/* XPM */
static char *_7d45d9beec94f80eb0263b2581842e6mVLL3D5yOIoqfHs7[] = {
/* columns rows colors chars-per-pixel */
"49 49 169 2 ",
"   c #360117",
".  c #3C0416",
"X  c #3E0817",
"o  c #3D071A",
"O  c #56060F",
"+  c #5C0B0F",
"@  c #430515",
"#  c #4B0612",
"$  c #440A16",
"%  c #4B0C15",
"&  c #500611",
"*  c #510C13",
"=  c #5B0D10",
"-  c #4D1116",
";  c #541415",
":  c #5B1514",
">  c #561815",
",  c #5C1B15",
"<  c #541318",
"1  c #630E0E",
"2  c #65110F",
"3  c #6B140E",
"4  c #6C1A0F",
"5  c #71160D",
"6  c #741A0E",
"7  c #7A1E0E",
"8  c #600F10",
"9  c #631411",
"0  c #691611",
"q  c #631A14",
"w  c #6B1D13",
"e  c #721C10",
"r  c #5F2015",
"t  c #7D220E",
"y  c #642314",
"u  c #6B2414",
"i  c #6C2915",
"p  c #6B201C",
"a  c #6A2D1E",
"s  c #752413",
"d  c #7B2512",
"f  c #722B14",
"g  c #7C2913",
"h  c #74221D",
"j  c #7D3513",
"k  c #7E311F",
"l  c #551E20",
"z  c #591F23",
"x  c #82250F",
"c  c #812A0F",
"v  c #8A2D0F",
"b  c #822710",
"n  c #842B11",
"m  c #8A2E11",
"M  c #822E1A",
"N  c #843512",
"B  c #843613",
"V  c #873612",
"C  c #833512",
"Z  c #8A3011",
"A  c #8B3011",
"S  c #8B3111",
"D  c #8C3011",
"F  c #8D3011",
"G  c #8C3111",
"H  c #8D3111",
"J  c #8E3011",
"K  c #8C3211",
"L  c #8D3211",
"P  c #8D3311",
"I  c #8F3210",
"U  c #8E3211",
"Y  c #8F3211",
"T  c #8E3311",
"R  c #8F3311",
"E  c #8C3212",
"W  c #8E3312",
"Q  c #883410",
"!  c #8B3712",
"~  c #8C3511",
"^  c #8E3411",
"/  c #8F3411",
"(  c #8E3511",
")  c #8D3412",
"_  c #8F3412",
"`  c #8E3512",
"'  c #8F3712",
"]  c #8C3111",
"[  c #853A13",
"{  c #883913",
"}  c #893913",
"|  c #8A3B12",
" . c #8C3811",
".. c #8D3C12",
"X. c #8C3D12",
"o. c #8B3D13",
"O. c #85311F",
"+. c #8C3619",
"@. c #873A1F",
"#. c #8C381C",
"$. c #903211",
"%. c #903311",
"&. c #913311",
"*. c #923311",
"=. c #903411",
"-. c #913411",
";. c #923410",
":. c #933410",
">. c #913610",
",. c #933611",
"<. c #943510",
"1. c #913411",
"2. c #913B11",
"3. c #933A11",
"4. c #903812",
"5. c #933A12",
"6. c #923B12",
"7. c #953B11",
"8. c #963B11",
"9. c #953A12",
"0. c #903E11",
"q. c #933F11",
"w. c #933D12",
"e. c #903E12",
"r. c #903F12",
"t. c #913F12",
"y. c #923F12",
"u. c #943D11",
"i. c #983B11",
"p. c #993F11",
"a. c #923D1E",
"s. c #8E3D21",
"d. c #933F20",
"f. c #8D4013",
"g. c #8D4013",
"h. c #934011",
"j. c #924012",
"k. c #934012",
"l. c #924112",
"z. c #924113",
"x. c #934212",
"c. c #964211",
"v. c #944012",
"b. c #954012",
"n. c #944112",
"m. c #954112",
"M. c #954212",
"N. c #954213",
"B. c #954313",
"V. c #944213",
"C. c #964312",
"Z. c #964313",
"A. c #974212",
"S. c #934512",
"D. c #974512",
"F. c #954713",
"G. c #974712",
"H. c #954112",
"J. c #984112",
"K. c #994411",
"L. c #994512",
"P. c #9B4712",
"I. c #994312",
"U. c #9C4A13",
"Y. c #97421E",
"T. c #994319",
"R. c #A05014",
"E. c #944123",
"W. c #A1562E",
/* pixels */
"Z.Z.Z.Z.Z.Z.Z.Z.Z.P.C $ ; h.N.S.N.N.D.N.P.f 3 Z.Z.D.{ % $ ` D.Z.D.N.Z.D.6.= O & @ X , D.D.Z.Z.Z.Z.",
"A A A A A A A A A A $.q j >.m A A A A A m m A m A m >.q @ c A m A A A m ` } 3 3 4 @ f.D m A A A A ",
"A A A A A A A A Z v $.q f >.A A A m A A G G G G A m >.w : x m A A A A A G c 3 Q ;.; g ~ A A A A A ",
"A A A A A A A m D D $.: g ` m m A ` A m m G m $.G m $.w = G G G m A A A m ` q.` ~ : , w.m m A A A ",
"A A A m G A A ` n m 7 # g <.G $.A t n $.A A G c c $.;.u . n m n G G G A G m m m v , N $.G 7.` A G ",
"m m m m m A 6 6 = 2 1 @ ; 0 9 5 3 @ 9 7 A A G s + c g % . e w 0 t n m A G m m 0 & $ ; v A q w D q ",
"> > , , , - @ @ - % $ - . % - ; * - - % % $ > ; - : > - - ; > ; ; > , % $ ; , ; - % - , , $ . - $ ",
"e.h.e.e.h.f $ i P.| f Z.f ..N.z.h.h.D.o.% - } Z.h.D.h.h.G.h.f.h.D.z.h.q $ f w.r.P.D.h.f.h.S.; $ } ",
"Z v G m m c , Z.m G 6.m 5.W m m m m m *.e f i.n A 6.G m ` G m m 5.m G n , J.m m ) *.m m m p.s q <.",
"Z Z G A G 3 * h.m m m m m G m m m E E *.w i 7.m A m A G A A G G m G G n , N.m W E m G m m $.u q ;.",
"m G A m ` 6 ; h.m G G m G m m m W G m $.w i 7.m A A A G A A G m m m W b , ,.m m m A m G m $.u 0 >.",
"G G G ` v = - 6.$.G G G G G W W m b $.,.u i 6.A A A G G G m x $.m W W m > *.W m G G G W W ,.s q <.",
"n n 6 d 1 @ . : m m b 1 b m n e # & 3 9 $ $ d m m n 6 n m f # 7 n 8 d : . w m m m m w n 0 : $ @ s ",
", , ; , ; : ; > - @ $ > > % , > < > > ; ; > , < @ $ ; , , , ; , , ; > ; < > > $ $ @ ; , > ; > > , ",
"Z.e.P.Z.P.P.e.P.f @ f I...s D.U.P.U.w.I.N.w.N.{ % , w.Z.Z.w.Z.Z.U.D.U.Z.z.N.r.q   , r.w.U.D.w.N.w.",
"m m ` m G G m m m , Z.m m G E ..A G m m m m m <.q j $.n m m m m ) G ..m m m G d , w.G m G G m m m ",
"G G m m A A A G m , o.G A A m m m m A A A A A $.q u t G G m G G D D Z D ~ D G d r >.m A m G G G m ",
"m m G m A A A G s ; z.G A A A m A A A A G A m ` q # n c G G G m D D Z D c c >.d   u $.m m G m A G ",
"G $.J $.G G $.<.0 % ) G G G A G $.G G m d G G $.q $ 6 7 n ` G G D D D $.$.t 7 d ; m G G W m W W G ",
"g g d g g g g e # . ; m g n n n n g g m w $ d s $   ; w # = n 0 % + 6 g g Q ; . @ $ % g g n n g g ",
"q r y , y , y , , , # # # . . # # # # # # @ # # ; , X . ; , y , , , r , r y r , , , , y - . $ q q ",
"Z.U.P.w.w.e.Z.U.Z.7.t t b , ; g 7 t t t 7 x x 7 Z Z.q -  .Z.w.U.R.w.U.I.e.w.U.I.Z.Z.w.p.g $ j p.w.",
"m ` A m m m A A m m G G <.d u I.A G ) G $.G ` G v G d i T.m m G ` m A A m m G m m m m m G , r.m m ",
"A m A A A A A m A A m A G q y e.m A m G m m m m A ;.w a W.E v A m A A G m m A A m G m G m , r.m A ",
"A A Z Z Z m A A A A A G m # i T.s.+.+.d +.) +.#.A a.k l s.+.+.B #.A m G A G G A A G m G m ; f G A ",
"G ` D ~ ;.>.` G G $.m t $.w q Y.#.M h s.d.d.d.d.a.+.w z s.s.d.d.E.+.` G G m G G $.G G m t @ 9 $.G ",
"s d s d d d s g g s s 9 + @ . q 8 * # 0 s h w < w = . o u g h s s s s d e # q d d g d = #   @ 6 g ",
"y y y , $ i , . . , u y y y y y u > . $ y y y y y y y u %   - u y y y y y y y i ;   $ y y y u - > ",
"p.w.e.i [ I.7.: y w.w.7.P.p.w.w.p.) * f p.w.w.P.P.w.P.I.g - { w.U.R.U.U.p.7.p.p.~ ; f p.P.U.I.[  .",
"m m m E ~ v $.w f 7.m m G m m m n $., [ G m m m G m A m m > { m A G A A m m m m G , o.G Q A m G G ",
"A A G G m m >.w i w.m G G G A A G G , { >.A A A G m m G m - f G m m A A m A m m $.> { G A m A A A ",
"A A G G G m >.w u >.m m G G A A A G , g $.m A A G G A G m - s m A A A A A A m m $., [ ` A A A A A ",
"m A m A m m $.u w $.G s u m $.G m $.: d m G G m m m G m v $ # , n G m m m G G G $.; g D v m G $.m ",
"$.$.>.$.$.$.G q > $.$.w.f = g m >.Q ; q : b b $.<.0 x <.g $ w Z.;.G >.$.$.n d G e # 9 v v >.x b m ",
"q , q : q q > . . > 0 : y X @ = q - . . @ # & , , $ # q $ . @ : q q q : q = @ > @ . $ ; : , # & : ",
"j j , u $ $ i { [ % . $ i [ B j j B B [ } , . > B B B j C j 1 + . X & + = = 1 + + g [ j j j [ q . ",
">.>.A >.z.r.f W <.g , D.>.>.>.$.6.P.7.G >.G ; ..6.~ 7.Z.$.G v G ; , w.m v m v G m G >.>.>.>.>.G ; ",
"m m A m m W ..m G n , I.m m m m m m m m m m , ..G v m m m G G ` g y Z.A G G A A G m m m m m m G ; ",
"m A A A m A m A G n , w.m A A A G A A G G G > 6.G G m A G m m $.n $ d G m G m A G m A A A m $.w X ",
"A A m m A A A A G g ; G W A A m m m G v m m > m G m A A m G G m s # t A m A A A A A A G G m ` t # ",
"$.$.$.$.$.J $.m t = @ 0 x v *.$.G >.c 9 0 q - u *.$.$.$.$.m x 9 . % n *.$.$.G $.G $.$.m 7 : x n % ",
": : > ; > > , ; # $ $ @ # ; : ; : : # @ @ . @ $ : > , : : > # $ $ @ % > ; , : > : , , ; # @ * # o ",
"f u ,   q ..{ { o.f.C 1 3 1 1 9 O . - 2 1 2 Q ..| [ [ [ } } o.o.o.f.u   , { [ g.o.{ { { o...o.g.| ",
"G G m , Z.$.>.G G G G m m m $.x t q , G J m m 7.w.$.$.` $.` G w.*.W G , o.$.G I.e.$.G ` ` G G e.6.",
"m G m , e.m A m m m G G m G G m I.f > A A G A m m G m m m G A m d m G > | G A m m m A m A m A A m ",
"m G m > h.m G A G A G G $.m m ~ $.w f 7.m m G G G m A G m G A A A q w : ..G m A G G m m A A A A A ",
"$.m e > e.m G A A A D x s $.G A $.0 . g G G G G A A A A G m G G <.c O % A G G A x m $.G A A A A A ",
"e : . $ d G t G G G D v : > d b 6 $ . n $.x n G G G G G G G n 7 q & * @ : n 7 3 = 5 u A G A G b m ",
"@ . $ . $ ; # ; ; ; * , * . $ # $ o @ ; ; $ * ; ; ; ; ; * ; * @ . @ X . $ * @ $ $ # @ ; ; * ; $ * "
};
