/* XPM */
static char *_413fbf1db674d97931d32b90e2b8a54raAsYq30VUNcl9kp[] = {
/* columns rows colors chars-per-pixel */
"45 67 197 2 ",
"   c None",
".  c #4A1E01",
"X  c #511F00",
"o  c #4E2203",
"O  c #4F2109",
"+  c #532402",
"@  c #5A2807",
"#  c #512409",
"$  c #55290C",
"%  c #5B2C0A",
"&  c #5F310F",
"*  c #5C2F12",
"=  c #542D14",
"-  c #5E3214",
";  c #612D06",
":  c #62330E",
">  c #7A3600",
",  c #773A04",
"<  c #783A06",
"1  c #7C3C0A",
"2  c #6D2C13",
"3  c #653513",
"4  c #6A3513",
"5  c #693915",
"6  c #683619",
"7  c #663A1C",
"8  c #6C3D1C",
"9  c #643618",
"0  c #713510",
"q  c #713913",
"w  c #7C3C13",
"e  c #723D1C",
"r  c #793D1A",
"t  c #6C3E21",
"y  c #6F372D",
"u  c #723E23",
"i  c #793D22",
"p  c #7F400B",
"a  c #6E401D",
"s  c #74421E",
"d  c #7A431E",
"f  c #6F4122",
"g  c #744423",
"h  c #7B4623",
"j  c #7C4925",
"k  c #73462C",
"l  c #79472A",
"z  c #7D4C2B",
"x  c #774A27",
"c  c #7F502E",
"v  c #6C4C38",
"b  c #7B4C35",
"n  c #774B32",
"m  c #7F5033",
"M  c #7C553E",
"N  c #695143",
"B  c #7C5545",
"V  c #7A5B44",
"C  c #7C5F4B",
"Z  c #7D604B",
"A  c #79695A",
"S  c #803D07",
"D  c #823D0B",
"F  c #8A3E0A",
"G  c #823B10",
"H  c #834106",
"J  c #83420B",
"K  c #89430C",
"L  c #8C490D",
"P  c #8C4406",
"I  c #934B0C",
"U  c #8F5009",
"Y  c #844115",
"T  c #8B4613",
"R  c #8D4B13",
"E  c #87491C",
"W  c #934E1B",
"Q  c #934A16",
"!  c #9B5716",
"~  c #96541D",
"^  c #834623",
"/  c #834B25",
"(  c #8A4B22",
")  c #824D2B",
"_  c #8C4D2A",
"`  c #824529",
"'  c #83512D",
"]  c #8B522D",
"[  c #955222",
"{  c #995422",
"}  c #92552E",
"|  c #804B31",
" . c #845332",
".. c #8B5634",
"X. c #8D5936",
"o. c #81533B",
"O. c #8C5738",
"+. c #855D3F",
"@. c #8D5A39",
"#. c #855932",
"$. c #935632",
"%. c #935A36",
"&. c #985C36",
"*. c #935D3A",
"=. c #9D5F3A",
"-. c #995E3C",
";. c #9A5D3A",
":. c #A45F26",
">. c #96603B",
",. c #95603D",
"<. c #9A603B",
"1. c #9A613C",
"2. c #A56532",
"3. c #A96631",
"4. c #A0603D",
"5. c #A26B38",
"6. c #B67237",
"7. c #B3703A",
"8. c #CB7F3E",
"9. c #835342",
"0. c #855844",
"q. c #8D5E44",
"w. c #835D4C",
"e. c #935F41",
"r. c #8E6145",
"t. c #8C634C",
"y. c #80694F",
"u. c #89664E",
"i. c #946142",
"p. c #9B6443",
"a. c #94664C",
"s. c #9C694D",
"d. c #97694D",
"f. c #836755",
"g. c #8B6353",
"h. c #826955",
"j. c #8D6B57",
"k. c #896D5D",
"l. c #916650",
"z. c #946A55",
"x. c #9D6C54",
"c. c #906D58",
"v. c #9A6D59",
"b. c #88745C",
"n. c #9C7456",
"m. c #93725D",
"M. c #9B715C",
"N. c #A16C4D",
"B. c #AA6941",
"V. c #AA734C",
"C. c #B9754C",
"Z. c #A06F53",
"A. c #A16E5B",
"S. c #A77855",
"D. c #A67859",
"F. c #A2755F",
"G. c #8E7562",
"H. c #877F6A",
"J. c #8E7B6B",
"K. c #877567",
"L. c #957560",
"P. c #947C66",
"I. c #9D7C64",
"U. c #947D6C",
"Y. c #9A7E6A",
"T. c #997767",
"R. c #8E7D71",
"E. c #917F71",
"W. c #A27964",
"Q. c #A87E68",
"!. c #C57E41",
"~. c #C37E5E",
"^. c #B48151",
"/. c #91816C",
"(. c #8E8272",
"). c #938373",
"_. c #9C8777",
"`. c #918A75",
"'. c #9C8877",
"]. c #97947E",
"[. c #A3806E",
"{. c #A48372",
"}. c #A58E7D",
"|. c #AE897C",
" X c #A78776",
".X c #B18A7A",
"XX c #A3917E",
"oX c #C88958",
"OX c #D18E61",
"+X c #CF9562",
"@X c #948F81",
"#X c #9B9486",
"$X c #A98C85",
"%X c #A59888",
"&X c #B9A08F",
"*X c #A7A792",
"=X c #C4B0A0",
/* pixels */
"< < < < , < < < , < < < < 0 , , < < < < < < < , < < < < < < < < < < < , < < < < < < < < < ",
"< < < < < < , 0 < < < < < < < < , > < < < < < , < , < < < < < < 0 < < , < < < < < < < < 0 ",
"< < < < < , < < < < < < < < < , < 0 < < < , < < < < < < < < , > , < , < < < < < < < < < , ",
", < < < < , < < < < < < , , < < < < < < < 0 , < < < < < < < , 0 , < < < < < < < < < < , < ",
", < , 0 < < < < , < < < < < < < < < < < , , < < < < < < < < < < , , < < < < , < < < 0 , < ",
"< < < < < < < < < < , , < < < < < < < < < 0 < < < < , < < < < < , > 0 < 0 , < < < < > , < ",
"< < , , < < < < < < , < < < < < < < < , < < < < < , < < < < < < < , < < < < < < < < < < < ",
"< < < < , < < < < < 0 < < < < < < , < < < , < < 0 , < , < < < < < < < < < < < < < < < < < ",
"< < < < , , < < < < > , , < < < < < 0 , , < < < < < , 0 < < < < < < < < < < < < < , < < < ",
"< < < < , > 0 < < < 0 < < < < < < < , > < , < < , , < < < < < < < < < < < < < < 0 , < , < ",
"0 , < < < < < < < < < < < < < < < < < < < < < < < < , < < < < < < < < < < < < , < < < , , ",
", < < < < < < < < < < < < < < < < < < < , < < < < < < < , < < < 0 < < < < < < , < < < < < ",
"< < < , < < < < < < < < 0 < < , < < < < , < < < < < < < , 0 , < , < < < < < 0 > < < < , < ",
"< , < < < < < < < < < < , , < < < < 0 < < < , , < < < < < < < < < , < < < < < < < < , 0 < ",
"< < < < < < < , < < < < < < , < < < < < < < < < 0 < < < < , < < < < , , < < < < < < < < , ",
"< < < < < , < < , 0 < < < < , < < < < < < < , < , < < < < , < < , < < < < < < < < < < < < ",
"< < < < < < < < < < < < < < < < < < , < < < < < < < < < < < < < < , < , < < < < < < < < < ",
"< < < < < < < < < < < < < < < < < , < 0 < < < < < < < < , < < < < < < < < < < < < < < < < ",
"< < 0 , 0 < < < < < < < , < < < < < , , < < < < < < < < , < < < , < , < < < < < < < < < < ",
"< < , < > < < < < < < < , < < < , < < < < < < < < < < < , < < < , < < < < < < < < < < < < ",
"S S S S < S S S S S D S S S S S S S S S 1 S S S S S S S S S S S 1 S 1 S S S S < < < < < < ",
"S S S S S S S S S S < S S S S S S S S S 1 < S S S S < D S S S S 1 S S S S S S < q 1 1 w p ",
"< S S S S S S S S S S S S S S D S S S S S S S S S S S S S S S S S S S S S S H %.} $.' } $.",
"S S S S S S S S S S S S S S S < S S S S S S S S S S S S S S S S S S S S S S S } %.$./ *.;.",
"S S S S S S S S S S S S S S S S S S S S S S S S S S S S S S S S S S S S S S S &.<.4.E *.1.",
"S S S S S S S S S S S S S S S S S S S S S S S S S S S S S S S S S S S S S S S =.<.<.^ %.;.",
"S S S S S S S S S S S < S S S S S S S S S S S S S S S S S S S S S S S 1 S S S =.<.<.d *.<.",
"S S S S S S S H S S S D S S S H S S S S S S S S S S S S S S S S S S S S S S S -.>.<.j %.;.",
"< < < < < < , , < < , , , , , , , , < < > < < < < , , , , , , , < < < < , , , *.,.-.h %.*.",
"< < < < > < < < < < < < , < < < < < < < < < < < < < < < < < < , < < < < , < < -.-.=.h ..) ",
"< < < < < < < < < < < < < < < < < < < < < < < < < < < < < < S < < < < < < < < -.%. .e 8 : ",
"< < S < < < < S < < S < S < H < < 1 < < < < S < < < < S < < < p S < < < 1 < < _ h 4 8 g ) ",
"< p p < p , < H p p , p < p H < H < < S p p < p < S < < p < < p p < < < H < p 4 a d z ] } ",
"J < p 1 S p p < < < S p H S < S < S S S < < p < S S S < p p S S S S S S S S < s z ] j %.<.",
"o.j E K S H S S H S H p p p < S S S S S S H S S 1 w u w I P p < S S S S 1 D H ] } *.d %.%.",
"} ] d.W S S H D S S J Q Q H H S H H H S H S D k J.G.L.Y.g.E T H S H S H F S K $.*.<.d X.>.",
"' } i.Y J S H J 1 e u.b E 3.~ H H H H H S D l %XJ.) _ -.s.c.( L H H H H H g j.&.>.%.h X.*.",
"] ] -.r K H S w P.N *Xt.U.9.3.6.! H R Q S n %XY.0 / ) ;.>.p.v.W J S H H < R._.%.X.*.d X.%.",
"#...-.n D J D y. Xy }.h h r.0.( 7.8.8.{ B %Xn.<.q / / 1.<.<.n.r.W H J J M ).a.*.*.*.g @...",
"' ] *.0.D J e '.z.2 *Xs h j @.l.g.g k K.'.p.&.*.q / ( 1.<.;.<.F.( L J D ).M / *.*.-.e ' 7 ",
"' X.1.l.D D C n.v.r @Xj j ) X.1.p.s.A.W.<.<.-.*.< / / >.*.&.1.p.z.{ H G #Xl j -.*...e * g ",
") } 1.v.1 G G.i.q.( J.k.h ) $.1.*.-.,.,.>.>.>.*.a c / ,.,.-.*.1.W.$.P r #Xg  .*. .u 8 j ' ",
"' h d |.> w /. .Q._ f.w.h z h / z z z ) m c ' z 5 z h j z c z z t.0.K r `.s ) | 6 8 j  .*.",
"d : + $X> w H.= 9.[ M A a 5 @ + + + + + $ $ + + & s & @ o @ @ o + w.G i A 5 s 8 u z j %.X.",
"@.z j .X/ Y b.+.o.T l b.#.X./ ) / / ' / ' ) / / h ..' ' / / / z ' T.w i J.z O.g j O.e X.X.",
"@.] ..A.&.K h.r...R ` ]./  .....] ] ] ] X.@.] ] E ] / ] ] ] ] ] ]  XT i U.h _  .O.%.h ....",
" .$.=.x.B.L w.a.N.5./ `.s / $.4.=.&.*.&.;.>.>.-.0 / ] &.<.<.-.$.-.|.{ i U.r _ O.@.X.g ..O.",
" ._ $.z.C.U | m.S.^._ ].d / $.&.*.;.-.*.-.>.%.$.4 E / X.%.>.>.-.p.W.:.i E.e ` %.@...e ..| ",
"+.) *.z.oXW j /.*.~.Z `.s z ,.%.*.@.*.*.*.@.%.O.8 x ' X.@.@.*.@.X.{.3.Y U.8 z @.@...g m t ",
"l...<.T.V.OX0.}...a.I.n j ' #.>.%.*.e.e.@.%.*.@.4 / ' %.>.>.X.,.>.v.W T G.8  .@.X.@.e t f ",
"q.] *.*.Q.k.P.z.>.*.*.r h ' X.>.*.@.*.i.*.%.*.O.4 / ' X.%.-.>.*.*.a.I L m.k / @.....7 f z ",
" . .i.@.*.v.s.i.*.*.,.s r h X.X.*.*.%.*.%.e.%.@.4 h / %...@.%.....M.I L u.V ) @. .t f z ..",
"o.) -.*.e.-.i.@.e.i.i.u 8 j X.-.*.*.>.*.*.%.*.*.4 d j ,.,.*.*.,.*.Z.! I @.h.' ..t 7 h  ...",
"..j  .) | z ) | ) ) ) e l ) j ) ' c c z c c c z 5 j x z ' b z '  .Q.7.! X.Z ' g 7 z g ....",
"k @ + X + + X + + + + @ g 6 + + o o o o o o + o @ s & + + + + o @ m.+X2.d.v e 7 g ' s  ...",
"| g l h z j h h h h g g |  .g h x j j x h h x h j #.z g s g x g h [.D.V.'.o.' g ....u ....",
"@.z ..z z z ) ' j |  .j j ' ) z ' ) ) ) ) ) ) ) h ) j  . .| )  .c z r.u.j.g ) ' .. .f @.f ",
"z ) *.X.@.*.*.@.*.*.X.e s ) X.*.*.,.X.,...*.%.X.4 ` ) %.%.@.%.*.X.X.@.*.) 4 h ..O. .f z $ ",
"z ) *.O.@.@.@.@.X.@.*.e e h  .*.X.@...,.X.%.*.#.4 h j X.O.O.X.X.*.%.*.*.) 5 / @.@...t *   ",
") ) %.X.X.X.%...X.%.*.g e h  .%.X.X.O.*.X.X.X.#.4 h j ..X.@.X.O.X.X...X./ 4 h O... .}.=X  ",
"j ) ........X.@...@...q e j  .$...X...@.X.X.X.] 4 h j ..@.@.X...%...O.@.) 4 / ..#.n -     ",
") ) %.........%.X.....e s j  .........X.X.X.@. .4 h h ......X.X.O.O.%.%.j 4 j ..m -       ",
") | *.O.O.O.@.@...*.*.u e h  .%.O.O...@.%...*...4 h j X...@.*.@.O.O.O.@.j 3 h  .7 &X      ",
") j O.O.O...O.O...O.@.i e j  .O.O.O...O.@. .@. .4 j j ..O.O.@.O.O.O.@.@.j 5 z n @         ",
"j l  .'  .'  . . . . .5 g h '  . .m #.m #.z  .n 3 x g m c c c c m m #. .g 3 x O           ",
"f $ o O o $ o # # o o o 7 t O o o # # o o o O o = f = o $ o # o O O O O O - f ;           ",
"l f 8 8 f 8 g 8 8 8 a a n z a 7 f f f a t f 8 f a x c f f f f f a a a a f x m             "
};
