/* XPM */
static char *_626362818551[] = {
/* columns rows colors chars-per-pixel */
"45 89 70 1 ",
"  c #5D2F04",
". c #5F3105",
"X c #602F03",
"o c #643204",
"O c #6A3707",
"+ c #6C3907",
"@ c #633409",
"# c #6B3909",
"$ c #733E0D",
"% c #693A12",
"& c #6F3F18",
"* c #713F12",
"= c #754314",
"- c #7A4514",
"; c #7C4816",
": c #72431C",
"> c #7A4719",
", c #7D4919",
"< c #7D4D24",
"1 c #7F5027",
"2 c #7F522A",
"3 c #804711",
"4 c #834A14",
"5 c #834D1C",
"6 c #87501F",
"7 c #8B511F",
"8 c #814E23",
"9 c #804F29",
"0 c #865124",
"q c #8D5423",
"w c #81522A",
"e c #8B562C",
"r c #8E592D",
"t c #915522",
"y c #965C27",
"u c #985C26",
"i c #935D2D",
"p c #865732",
"a c #895730",
"s c #875833",
"d c #8C5B33",
"f c #8E5E39",
"g c #935E33",
"h c #985F31",
"j c #915F39",
"k c #9A602E",
"l c #8F603B",
"z c #956237",
"x c #9B6234",
"c c #96623B",
"v c #9A653D",
"b c #9C683D",
"n c #A1642F",
"m c #A56634",
"M c #A76833",
"N c #A0673C",
"B c #A1693E",
"V c #976440",
"C c #9D6741",
"Z c #9C6945",
"A c #9F6C48",
"S c #A46D43",
"D c #A96F45",
"F c #A26E49",
"G c #A67045",
"H c #A97147",
"J c #A5704A",
"K c #AA744C",
"L c #AE7650",
"P c #AB7851",
/* pixels */
"&pddffffffvdpflljjjjjCvrzzccVcvVFCavvvvvvvvZP",
".#dddlddgdz2OrgggggzxxsorzhzxhhxmzOyxNxmxmmMG",
" @VZZZZZZCi2.VAAAAAFFhsojKFKJKKHnzXjKKLKKKLMB",
" @VZVZZZZCk2.vZAAAAFSxr.zKFFJFJKnzogKKKKKKLMB",
" @VZZZVZZCiw.vZAAAAAGkr jJFJJJJKxzozKJKKKKLMB",
" @VVZZZZZCi2.VZAZAAFSks vJFFFHJJnzogKKKKKKLMG",
" .VZZZZZZCiw.VAAAAAFSxdojJHHJFKHnzogKJKKKKPMB",
" .VZZVZZZCi2.VZAAAAFSks jJJJJJJKnzozJKKKKPLMB",
" @VVZZZZACiw VAZAAAFFhr.jJHFFHJKnzozKKKKKKLmB",
" @VZZZZZZCi2ocZAZAAFShdXvFFFJJJJnzogKKKKHLKmG",
" .ZZZZZZZSi2 vFAFFFFShdXjKHHJJHHmzogHKKKKKLMB",
".@,55,8558i2o50557577ydo4t77qt7qyz+4qtqytttuG",
"&11<8118<wdf8w8w8wwwwdzweeweeeeedveeeeeeeregJ",
"%<ssssasrsvs<dgdgdgrgvj8dgggggrgbb8ggzhhjxxNH",
" @jjccczvzi2.gvvvvbCNkdXrSNNBSBBmzoiSSSDDDDMS",
" @VFZZZZACiw.vFZFAFFSkdXjKFFJJKKnzogKKKKHKLMB",
" @VZZVZZZCiw.VAAZFAFFhdXjKHJJJJKxzogKKKKKKLMB",
" @VVVZZZZCiw.VZAAAAAShdXjJJJJJJHnzozJKKKKKLMG",
" @VZZVZZZCi2.VAZZAAFSkr.vJHJJJJKnzogKHKKKKPMB",
" .VZZZZZACiw.cAAAAAFSks jFFJFJHJnzozKKKKKKPMB",
" @VVZZZZZCiw.VZFAAAAGkdovHFFJJHKnzozKHKHKKPMB",
" .VZZZZVZCiw.vAZAAAFFks jFHFFFKHnzogKKPKKKLMG",
" @VZZZZZZCiw.VAAAAFFFkdojFFFJKFHkzozKHKKKHLMB",
" @lVVVVVvvg2 zCbCCCCBkr gSSSSSFSnzogHGHGHGHMB",
"@%:===---;ew+--;---;;ed$-4;43444tz$34444444tG",
":2sssspswsllpssddddddcvsdgddfggfvZdgzjjxzzzbJ",
".:reeessrrzw=qrrriiiixd*rgzighggxz=ihxhxkkkMJ",
"..vVZbZVZbkw.vZASZCFSkdXgHFSJSDHmzogHHHHKKKMG",
"..VZVZZZZZk2.cAZZAAFFhdXvFFHFKFKxzogLLKKKKPMG",
" @VZZZVZZbk2.cAAZAAAFhsXvFFHJFKHnzojKHKKKKLMB",
" %VVZZZZZCk2.VZZZAAFFhgXjHFFJJHJnzogKJKKKKPMB",
" .VZZVZZZCr2.VAAFAAFFudXvFFHJFKKnzogKKKKKKLMG",
"..VZZVVZZCiw.vAAAAAAFkr cJFFHFFKnzogKKKKKKLMS",
"..VVZZZZZCk2.vAZAAAFSkd zJFKFFKHnzogKHKKKKKMS",
" @VZZZZZZZiw.cAAAAAFFkd.vFFHKFFKnzozKKKKKKKMB",
" @VZZZZZZCi2.VAAAAAFGkr.vFFJJKKKnzozKKPKLKLMG",
" .sdrdigdii2.eggggigzir.qhhhhhxhkzoqxxxmmxmxB",
"%:->>==>->es=>;-;>,,>rl-5,,55555qc555555555qG",
"&pdsaddddsVfeffddgdldvcejjjjjjcjCCeccjzzzzzbP",
" Oddgdgdggz2orggggizxxdorxxxxxxxmzoyNxmNmbmMG",
" @VZZZZZZCiw ZFAFAAFFksovJHFKJKKkzozPKKKPPKMG",
" @VZZZZZZCiw.cZAAAAFSxd jJFHJFJJmzogKJKKJKLMB",
" @VZZZZVACi2.cAZAAAFSkr.vFFHJFKHkzogKKKKKLKMB",
" @VVZZZZZCiw.VAAAAAASks jKFJJJJKnzozKJKKHKLMG",
" @VVVVZZZCiw.vZAZAAAGkdojHFFFKJJnzogKHKKKPLMS",
" @VZZZZZZCiw.VAAAAAFFks vFFHHFJKmzogKKKKKKKMS",
" @VZZZZZZCi2.VFZAAAFFkdovFFHFFKHnzogKKKKKKLMB",
" @VVZZVZZCg2ocZAZAAFSkr jKJFFKFKnzozKHKKHPKmB",
" @VZAZZZZCi2.vAAFSZFDhdXvFFHHFHHmzogKKKKKKKMG",
" .<2558550iwo55567060ydo4qqq7qqtyzO4yttttttyG",
":12<11111wsdwwwwwwww9dcweweweweedZeeeereieeiJ",
"%1d2spsdsdvs,adgaigdgxz<igggggggbv8gggxxzxxbK",
" .lcczlcvvg2ogvvvvbbbkrorNSNNNNSnzoiSDSBSGHMB",
" .VZZZZZCCiw.VAFAAAFGks vFJJJJKJnzogKKKKHKLMG",
" .ZZZZZZZCiw.VAZAAAFSkd.jJHJFHJKmzogKKKKKKLMB",
" .VZVZZZZCiw.cAAAAAFSkr jKFFJJJKnzogKHKKKKHMB",
" %VVZZZZZCiw.VAAAZAAFksocJFJFHFKnzozKKKKKKLMS",
" .VZVVZZZCi2.VZAAAAFSxdXzHFJKFJKnzogKHKKKKKMS",
" .VZZZZZZCiw.VAAAAAASkd cFFFFJKHnzogJKKKHPKMB",
"..VVZZZZZCiw.vZAAAAFFkdXjKFKHFFHnzogKKKKKLKMS",
" @VZZZVZACi2.VAAAAAJSksXvFFHFFKHmgXgKKKKKKLMB",
" @VVvvVVvvi2.zZCCCCCBhdXgSSFSSFSkvoiGGHFHHHMG",
".#:=------ep+-------4qf#-3334444yj$34444544tG",
":ss2pppsppffadsadddfdccagjdjjdjjzCgzjzjzzzzzG",
".:eeseereizp&eirrrieixd*egghiighxv=yighhhxxmH",
"..cVZbZVZCi2 zZZZFSFSkdovSFFSHFDmzogHHHHKHKmG",
"..ZZZVZZZCiw.cAAAZZFSxsXzFHFFKHKnzozKKKKKKKMB",
"..VZZZZZZCi2.vAAAAAFSkdXzFFKFHFKnzogKKLKKKLMS",
"..VVZZZZZCiw.vZAZAAFFhdXzJSJJFHKnzogKHKKKKLMS",
"..VZZZVZZCiw.vAAAAAFFhsXcJJJJJJKnzozKKKKKLKMB",
" .ZZVZZZZZi2.VZAZZFFFugXjJJJJFJHnzozKKKKHKKMS",
"..lZZZVZZCi2.cAAFZAFShd vJFJFFKKkzozKJKKKPLmB",
".@ZZZZVZZCk2.vAAAZFFSkd jJJJHFKKnzogHHKKKKLMB",
".@VZZZAZZZr2.vAAAAFFSkd vJFFFKFKnzozKPKKKLLMB",
".@2lrrdrrdk2.ezdgggghhd.qhhghgxxkzoqxmxxxMxkG",
"%==:>>;:>>es=>;,;>,;,ez-5,554555ev,55555566tG",
":psdsddddlclplddfgffgVcscfjjjzcjCCdvzzzvzbbbK",
".@elrzrzrzz2oezkgghgxxdoexxxxxxxxzOtNbmNxmmxH",
" .ZZZZZZZCk2.vAAAAFFSkd vFHKFKKKnzogKKKKKKPMB",
" .VZZVZZZCr2.vAZZAAFShdXvFFJFFKHmzogKKKHPPKMH",
" .VZVZZZZZi2.vZFAAAFFkd zFHJJKFKnzozHHKKKKPmB",
" .VZZZVZZCiw.VAZZFAFSkdozJFFFHKHnzozKKKKKKKMB",
" .VVZZZZZCiw.VAAAAAASkd cHFFJFFKnzogKKKKKPKMG",
".@VZZZZZACiw.cZAAAAFFkr cFFKFFKHkzozKHKKHKLMB",
" @VZCZZZZCiw.VZZAZAFFhr.vJFJJJJHnxozKKKKKPLMB",
" @VZZZVZZCiwocAAAACFShd jJFJJJJKkzozKKKKKKLMS",
"..VZZZAZZCi2XvZFAFFFDhr.vFFHFKKHnzozKKLKKKLMB",
"..<2858650rwo5088007qido5qqqqqqqyz+4y77ytttuG",
":<<:<<:<,<ad<<<<<<<8<az588888080rcw00000000eA"
};
