/* XPM */
static char *_626361061879[] = {
/* columns rows colors chars-per-pixel */
"89 45 50 1 ",
"  c #4B2306",
". c #4E270A",
"X c #502506",
"o c #522709",
"O c #552A0A",
"+ c #5B2C0A",
"@ c #5D300F",
"# c #5C3213",
"$ c #64330F",
"% c #6A360F",
"& c #653513",
"* c #6A3611",
"= c #6D3A14",
"- c #673919",
"; c #6C3D1C",
": c #713B14",
"> c #733E1A",
", c #6F401F",
"< c #73401C",
"1 c #7B431B",
"2 c #7E481F",
"3 c #6C4020",
"4 c #744523",
"5 c #7A4622",
"6 c #774826",
"7 c #7C4925",
"8 c #764728",
"9 c #764829",
"0 c #7B4B2B",
"q c #83491E",
"w c #834C24",
"e c #894F25",
"r c #824E2A",
"t c #894F28",
"y c #8F5124",
"u c #84512D",
"i c #8C522B",
"p c #955427",
"a c #865433",
"s c #895634",
"d c #8B5837",
"f c #8D5938",
"g c #915731",
"h c #925A34",
"j c #995D37",
"k c #945D3A",
"l c #995F3A",
"z c #97613C",
"x c #9A603C",
"c c #9B6540",
/* pixels */
"chghhhhghgphhzhhhhhgghghhlkhhhgghhhhhhlhhhhggghhghjxhgghhhghpzhzjdhhgghhpzhhxjhhhghhhhghf",
"dpppppppppyq7gpppppppppp1ripppppppppy1appppppppppq7ipppppppppp1rppppppppppe1appppppppppq1",
"aixxxxxxxxcq5whxcxxxllcj:rtxxcxclclcy:uiclxxxxcxx12ujxxxxxcxxx:wtlxxxxxxxxy<uyxxxxxxxxxq<",
"ipxxxxxxxxxq5ihxxxxzlcxj:relxxxxlxxxi:uicxxlxxxxx12rhxxxxxxxxj:0tlxxxxxxxxq<sixxzxxxxxx1<",
"ayxxxxxxxxx15rgxlxlxxllh:wwlllxllclxe:ryxxxxxlxxx15whxxxxxzxxj:wtjlxxxxxxxi=uyxxxxjxxxxq<",
"uixxxxlxxxx15rhxxxxlxxxl:relxllxllxli:aixzxxxxxlx15uhxlxlxlzxh=wwlxljxxxxxy:uixxxxzxxxx1<",
"aixlkkxzjzx15wgxkzzzlllh%rwllxzzlzlct:rixlxxkzlzxq1whllzllllxh:wwllzzkzkxxi=uyxljzjzhzxq<",
"uixxzlkxzjx15whxzllzlllh:wwlllllllllt:rixxkkxkzkx1<tgxkxllllxh:0tklxkxzzzxi=uixzzjzxxxj1>",
"uixxzlzzxzx1<rhxkxxxxlkj:rwjlklxzllxi=uixzxkxxzzx15whzxzzzzlxj:7txxxxxxxllt:ttllzzxzzzx1>",
"u1rw0wrw7ww:5w5rrrw00www%r5wrrrwrr0r1=r1rrrw7wwrw=571rrwr0rwr5%r1ww07w7wrr1:u5rr7w0wwwr:<",
"6+ XXX XX XO<;XX XXoXXX +7@X XXXXXXXX=5OX  X XXX.O5;XXXXXX XXX@7@ X X XX Xo=6OXXXXXX XXO>",
"aururruwuuwusawurrtrurruraarrrrrrrrruuaruuwuuruwruairu0wrrurwuuauuuwururrtursrrrrurrruwua",
"dyyyyyypyyy27iyyyyyeyyyequtyyyyyyyyye1ayyyyyyypeyq5iyyypepepyy1uiyypypyyyyt<ayyyyypyyyyq5",
"uixkzkkkkjj1<ugxjklllljg*rrjkjjklkkki=rizjlkxkkkx14whkkljklkkj=9wkkkkkkklli=rtlllkkkkjx1;",
"utkjkkkkkkz14wgzkkkkkkkh=0wkkkkkkkklt=0tkkkkkkkkk14whkkkjkkkhh%0wkkkkkkkkkt=rrkkkkkkkkk1;",
"0tkkkkkkhkk1<wdhkfkkkkkg:7whkkkfkkkkw=rukkhkkkkkk<57ikkfkkkkkh:0whkkkhkkkkw=rtkkhkkkkkk<>",
"uukkkkkkfkj>5wgkkfkkhkkh*rwkkkkkkkfkt=0tkgkkkkkkk:<0gkkkkkfkkg%0wfkkkkkkkkr*0tkkkkkkhhh<,",
"rtlffkfkkkk>,wgkkkkkkfkg*0wfkkkkkkkkw=0tkkkkkfkkk15wikkkfkkkkd%0wkkfgkkkgkr:rtkkfhkkzhz1,",
"utkkkfkhfkj>47ghhfkfkffg*7whgfkffkkkw=rtkfkfhffkk<46ikfkhkfkkg%07ghkkfkfkkw=rrkkkkkfhkh<,",
"0tkkkkkkkkj>,rskkkkkkkkh*8wkkkkkfkklw=0tkkkkkkkkk1<7skkkkkkklg%0wkkkkkkkkkt*0tkkkkkkfkz1&",
"r5trrrrrrrr:<7wrrrrrrruw*05rirrrrrrr1=05rrrirrrrt=<6wrtrrrrtrr%85rrrrrrrrr>=rwrr0trrt0u<,",
"4o X    X XX,;    X     +8@        X *8o      X  X,;          +6@ X        *8X         O,",
"r96667866684r088875857888u785885666689r65788758566ru66656666666r865788858877r584588666666",
"atewwwwewwew7awwwewewwew5rtewwewwweew5utwwewwwewe29uteewweweww5uteweeeewwew4areewewewee2,",
"rrhhfkkfkkg>,wskhkgkfkkg%8wgfkfkhhfkw*0rkkfkhfhkj>,7sfkfhhfkhg*8wgfkgfkggkr-0ekfhhhfhfh>,",
"0tkfffffffk><7ikffkffffs%8wfffffkffkw*7rfffffffff>,7tkffkfffka*87fkfffffffw*0rfffkfffkk>-",
"0rffddffffk:,8afffffffks*85sdffdffsfw-0wfffffffff>,7iffffffffs*58gfffffffkw*8rffffffffk>,",
"0rffddddsff:,8ifsfsfffsi%85fddddffff7&0wfdddfffff:;7sfsfffsffs*85sffffffsfw-7wfffffdfff>-",
"0rfdddddfff:,8ifsfsffffs%85sfffffsffw*0wffsdffffk>>6tffffffssi*85fssdfffff7-0wfsddddsff>-",
"0wfddddfsff><8uffsfsfsfa%87fsfffsfff8*8rfdddsfssf:,7afsfssfffs*85fffdfsfsfw*0wffddddfsf>3",
"0wfddddffff>,8ifffssdffa%85gfsfffsffw*8rfffffffff>,5uffsfdfffa*85sffddffsf0&00ffddfffff>-",
"05auua0auuu=,5ruaraaa0a0%84ruuuuuaua,*87uau0auuuu=,87aaa0auuur$88uuua0uuui4-95uaa0uuura=-",
"4.   . .    ;;   .      O4@ .  .     &,o..   .   X,- .      . O4@   .      &4.         .-",
"9,,,,3333,,,993,,33,3,,,3043,333333,3803333333,,339933,,333333303,33,3,,,,360,,,33,,,,,,9",
"a0qw7777w7w29uw77ww27w7w60rq7w07wwww54a000097wwq229u7q777wwwww50uwr77w77w7740t7w7w2qw2728",
"0wdssiddaga:,9rssississa&97siaddasaiw&8wf0daaiada<,9idaddiaisu&95isasisgdi7&9wdadsssgss<-",
"97ddad0dsad<;4addadaadad%84adad0aada7&87daddadfad=,4uadadadaaa%44daddff0sd7&97dadd0dsad<-",
"90dadac0dad=;5rsaddddad0$45ada0cddad7&87dadadfafa<;5udda0dadaa&48fdaaddfsd7&97ad0dfdada<-",
"07daadadaas=38aaf0aaadau@85aadaaaasd5&8wadadadaad<,9udadc0daau$480adadfdaa7&97dsfdadaaa<3",
"97dadadadad=380dddaddadu$82aadadadss5&87dadaaaaaa=;4uaaa0daada$89adaaa0dad9&97ssf0aadau,#",
"90ssadaaada-380dd00c00c0$44aaaaadfaf6&87sssaadaas;330daac0aad0-94saaaadaaa6&99daf0c0dad3-",
"97saaadaaad333afdfddddc0@85adaas0faa8-87saadffads-380add0cadaa#84ddaadaads5&99dd0cc0dda3-",
"09aaaa0aaaa#38900d000d00#880aaaa0a0d8#99aa0sd000a=380d0aa0daa0#880000aaaaa9&98a0d0000d0--",
"4O..........-3....#.....O8#... .#....#8........ .X33..  ......#3#.# O......#8.  ...#....-",
"#           #.      ..  .#.          .#           #O          .#.          .#   ..      #"
};
