/* XPM */
static char *_626371038681[] = {
/* columns rows colors chars-per-pixel */
"39 45 68 1 ",
"  c #461E01",
". c #4C1F01",
"X c #511F00",
"o c #4D2204",
"O c #4D2508",
"+ c #4F280B",
"@ c #532302",
"# c #582501",
"$ c #562807",
"% c #5B2906",
"& c #522609",
"* c #55290C",
"= c #5B2C0C",
"- c #572E12",
"; c #5A2D12",
": c #5D3115",
"> c #5F361A",
", c #612E0D",
"< c #63320E",
"1 c #643313",
"2 c #6A3513",
"3 c #6C3814",
"4 c #603419",
"5 c #673B1E",
"6 c #6C3D1C",
"7 c #703611",
"8 c #723A14",
"9 c #723E1B",
"0 c #6D3E21",
"q c #6E401F",
"w c #73411E",
"e c #7B431D",
"r c #6E4122",
"t c #754423",
"y c #7A4624",
"u c #7C4926",
"i c #75472A",
"p c #774929",
"a c #7D4C2A",
"s c #7E502F",
"d c #7E4F31",
"f c #7F5032",
"g c #824722",
"h c #824B25",
"j c #884C27",
"k c #824D2B",
"l c #894E2B",
"z c #84512D",
"x c #8B522D",
"c c #91552F",
"v c #855333",
"b c #8A5635",
"n c #865837",
"m c #8D5936",
"M c #855639",
"N c #8A5738",
"B c #875938",
"V c #8D5A39",
"C c #925631",
"Z c #935A35",
"A c #995D36",
"S c #935D3A",
"D c #9A5E3A",
"F c #96603D",
"G c #9B613C",
"H c #A0623D",
"J c #976342",
"K c #9B6443",
/* pixels */
"GZAccZCCAAcccAAAccccccAccGAAccCcccAZAcG",
"xxcccCcCcccggxxcccccccccejxcccccccccxex",
"xcGAAGADAAAggjcGHGGGAGGG8gjAGHGGAGGGx7h",
"xCGGGGGGHHHggjZGGGHGGGGG8jxGGGHGGGFGx7j",
"xxDGDGADAGGeehcFGGGAFAFZ8glSSASAAGAGx8x",
"xxDGGGFGGGGeehZGGGGGGGFA3hjGGGGDFGGGx8x",
"zzSFAFSFFFFeeumFAAASSAAZ8hhDGDGGAFGFj8g",
"zbFGSFFGFFFeuhZGAGGGGGFS3jhDSDGDGAGGjwu",
"zbGGFFFFGGGeezmGFFFFFFFFwguFFFZJDDKDx3x",
"jyyhjzkuguh8eeeaahsausuu2uuuazzakkauy9h",
"y<#@#oo@##%%w3#@#@$##$$$<w<%o###@#@@%3w",
"buhxzzkzzhuunmazzhzhzuhuumzzkzaukkhuazB",
"xzblllzxxxxghzjxxxxxxxxjgxjjxjxcllbljyx",
"lbDDDGFZDDAe9lZGASAAAFZZ7gxFFGFZDZDAc8l",
"jxZZmSSFZSDeejmZSSSSFZFm7ukZbFFAGASFk2h",
"hzSDSASZZZS9wgZZSSSAZFZcwuuFZZSmbFZAh2l",
"zzSSSZSSbFD9ykbSZZSSSZSZ<jlmFFZASZmSv2y",
"llSmVZSVSSS99hmDSVSSbSSb2hzmbFFSDSDSj3h",
"zvJNZSDVVSS99hmmVSVSmSSb3yhSmmVbmVDSy3z",
"yhJSJSSVVFD99kmSFSSSVSFV2eaFFSFFSVJDh3l",
"vuvazaakaka6taakvdkazssu3uiasaazkaau09k",
"9$@X@XX$$@@%53X#X.@o@o@o=w,@@$@@$@@@,,9",
"vtyyaaytyyttkvtuyuuuyuuyynut9ittytytyyv",
"babaaakvakvyyvkakakahazayaabvakzkabkayv",
"akSNVSSVSSm99kCSZSBSxFFb2uhVSVZSSNSSk19",
"akSmmZSNNSS09yvSmFmSbSZb2yummVVVSVZSl2k",
"kkZmmmmmbZS99ylVmVmZmZmz3yybmVVmNCNNh29",
"akZNNNmmNmm99avmmmmmmnSz2eubmmmbZNCZk2l",
"akVNNbNmbmm69yvmBmbmmbZv2yybmmmmVNVVk2a",
"kkVVmNmmNZZ99yxVVmNmSbSb2yunmmZSNNNSy29",
"kaNNNNmVvNV69uvbNMNbBvVv3yubbBNNNNVVk2a",
"a0vzvkvvvzv50udvvdvvnsva4tivfffvvvvv0:i",
"0*.@.&.$@o.@55@oX&X&X&XX*0;.*.@o@oo@X40",
"d960t0t666r6asq6000000000ddr000t00060iv",
"zyza9ztukakyusua0lahaakkauutyakiaavua9v",
"vkbvmaVbbvv96uzvbbbbvbvb3yaVbvVvzzbsa2h",
"t0NVvVzNBbB95ybBbbbNbvlv1a9vVvvkmnmvv,y",
"akVvVzSdbvN93yzvNvbNvNNv,yavvNvJznvNk,0",
"yyNdvVVBvbM66pvvNvvNlNMd,0kbNNkvbmbmy2k",
"aiNvVvMMbMb66tfbVvvNvNNv1a0VvvNNvmvZ92k",
"uubbvBBvbMb1ttuBVkkKaaKa20yvbvvNmVvVa,i",
"itvMvbvvabBtttdVVVNvSmKd,yaMNbvbyNVMt2v",
"dpvBvfffBBf16tiaindpiMiu;utudvvMvfvMi40",
"0-&oo+++OO*o55;oO*;O****;i:&&OoO-*.&*4i",
">ooOOOo Ooo -*OoO +OO OO 4O OO O+.OO.O:"
};
