/* XPM */
static char *_bf40e9e17f841589de32ad6fd7bf7a4xNKG2cD3GGcXNARe[] = {
/* columns rows colors chars-per-pixel */
"45 67 197 2 ",
"   c None",
".  c #4A1E01",
"X  c #511F00",
"o  c #4E2203",
"O  c #4F2109",
"+  c #532402",
"@  c #5A2807",
"#  c #512409",
"$  c #55290C",
"%  c #5B2C0A",
"&  c #5F310F",
"*  c #5C2F12",
"=  c #542D14",
"-  c #5E3214",
";  c #612D06",
":  c #62330E",
">  c #7A3600",
",  c #783A06",
"<  c #7C3C0A",
"1  c #6D2C13",
"2  c #653513",
"3  c #6A3513",
"4  c #693915",
"5  c #683619",
"6  c #663A1C",
"7  c #6C3D1C",
"8  c #643618",
"9  c #713510",
"0  c #713913",
"q  c #7C3C13",
"w  c #723D1C",
"e  c #793D1A",
"r  c #6C3E21",
"t  c #6F372D",
"y  c #723E23",
"u  c #793D22",
"i  c #7F400B",
"p  c #6E401D",
"a  c #74421E",
"s  c #7A431E",
"d  c #6F4122",
"f  c #744423",
"g  c #7B4623",
"h  c #7C4925",
"j  c #73462C",
"k  c #79472A",
"l  c #7D4C2B",
"z  c #774A27",
"x  c #7F502E",
"c  c #6C4C38",
"v  c #7B4C35",
"b  c #774B32",
"n  c #7F5033",
"m  c #7C553E",
"M  c #695143",
"N  c #7C5545",
"B  c #7A5B44",
"V  c #7C5F4B",
"C  c #7D604B",
"Z  c #79695A",
"A  c #803D07",
"S  c #823D0B",
"D  c #8A3E0A",
"F  c #823B10",
"G  c #834106",
"H  c #83420B",
"J  c #89430C",
"K  c #8C490D",
"L  c #8C4406",
"P  c #934B0C",
"I  c #8F5009",
"U  c #844115",
"Y  c #8B4613",
"T  c #8D4B13",
"R  c #87491C",
"E  c #934E1B",
"W  c #934A16",
"Q  c #9B5716",
"!  c #96541D",
"~  c #834623",
"^  c #834B25",
"/  c #8A4B22",
"(  c #824D2B",
")  c #8C4D2A",
"_  c #824529",
"`  c #83512D",
"'  c #8B522D",
"]  c #955222",
"[  c #995422",
"{  c #92552E",
"}  c #804B31",
"|  c #845332",
" . c #8B5634",
".. c #8D5936",
"X. c #81533B",
"o. c #8C5738",
"O. c #855D3F",
"+. c #8D5A39",
"@. c #855932",
"#. c #935632",
"$. c #935A36",
"%. c #985C36",
"&. c #935D3A",
"*. c #9A5E3A",
"=. c #9D5F3A",
"-. c #995E3C",
";. c #9A5D3A",
":. c #A45F26",
">. c #96603B",
",. c #95603D",
"<. c #9A603B",
"1. c #9A613C",
"2. c #A56532",
"3. c #A96631",
"4. c #A0603D",
"5. c #A26B38",
"6. c #B67237",
"7. c #B3703A",
"8. c #CB7F3E",
"9. c #835342",
"0. c #855844",
"q. c #8D5E44",
"w. c #835D4C",
"e. c #935F41",
"r. c #8E6145",
"t. c #8C634C",
"y. c #80694F",
"u. c #89664E",
"i. c #946142",
"p. c #9B6443",
"a. c #94664C",
"s. c #9C694D",
"d. c #97694D",
"f. c #836755",
"g. c #8B6353",
"h. c #826955",
"j. c #8D6B57",
"k. c #896D5D",
"l. c #916650",
"z. c #946A55",
"x. c #9D6C54",
"c. c #906D58",
"v. c #9A6D59",
"b. c #88745C",
"n. c #9C7456",
"m. c #93725D",
"M. c #9B715C",
"N. c #A16C4D",
"B. c #AA6941",
"V. c #AA734C",
"C. c #B9754C",
"Z. c #A06F53",
"A. c #A16E5B",
"S. c #A77855",
"D. c #A67859",
"F. c #A2755F",
"G. c #8E7562",
"H. c #877F6A",
"J. c #8E7B6B",
"K. c #877567",
"L. c #957560",
"P. c #947C66",
"I. c #9D7C64",
"U. c #947D6C",
"Y. c #9A7E6A",
"T. c #997767",
"R. c #8E7D71",
"E. c #917F71",
"W. c #A27964",
"Q. c #A87E68",
"!. c #C57E41",
"~. c #C37E5E",
"^. c #B48151",
"/. c #91816C",
"(. c #8E8272",
"). c #938373",
"_. c #9C8777",
"`. c #918A75",
"'. c #9C8877",
"]. c #97947E",
"[. c #A3806E",
"{. c #A48372",
"}. c #A58E7D",
"|. c #AE897C",
" X c #A78776",
".X c #B18A7A",
"XX c #A3917E",
"oX c #C88958",
"OX c #D18E61",
"+X c #CF9562",
"@X c #948F81",
"#X c #9B9486",
"$X c #A98C85",
"%X c #A59888",
"&X c #B9A08F",
"*X c #A7A792",
"=X c #C4B0A0",
/* pixels */
", , , , > , , > , , , , , , , , , , , , , , , , , ; , , , , , , , , , , , i , , , , , , , ",
", , , , 9 , , , , , , , , , , , , , , , , , , , , , , , , , , , , , , , , ; , , ; , , , , ",
", , , , , , , , , , , , , , 9 , , , , , , , , , , , , , , , , , , , , , , , , , , , , , , ",
", , , , , , , , , , , , , , , , , , , , , , , , , , , , , , , , , , , , , , , , , , , , , ",
", , , , , , , , , , , , , , , , , , ; , , , , , , , , , , , , , , ; , , , , , , , , , , , ",
", , , , , , , , , , , , , , , , , , i , , , , , , , , , , , , , , , , , , , , , , , , , , ",
", , , , , , , > , , , , , , , , , , , , , , , , , , , , , , , 9 , , , , , , , , , , , , , ",
", , , , , , , 9 , ; , , , , , , , , , , , , , , , , > , , , , , , , , , , , , , , , , , , ",
", , , , , , , , , , , , , , , , , , , , , , , , 9 , , , , , , , , , , , , , , , , , , , , ",
", , , , , , , , , , , , , , , , , , , , , , , , , , , , , , , , , , , , , , , , , , , , , ",
", , , , , , , , , , , , , , , , , , , , , , , , , , , , , , , , , , , , , , , , , , ; , , ",
", , , , 9 , , , , , , , , , , , , > , , 9 , , , , , , , , , , , > , , , , , , , , , , , , ",
", , , , , > , , , , , ; , , , , , , , , , , , , , , , , , 9 > , , , , , , , , , , , , , , ",
", , , , , , , , , , , , , , , , , , , , , , , , , , , , , , > , , , , , , 9 , , , , , , , ",
", , , , , , , , , , , , , , , , , , , , , , , , , , , , , , , , , , , , , , , , , , , , , ",
", , , , , , , , , , , , , , , , , , , , , ; , , , , , , , , , , , , , , , , , , , , , , , ",
", , , , , , , , , , , , , , , , , , , , 9 , , , , , , , , , , , , , , , , , , , , , , , , ",
", , , , , , , , , , , , , , , , , , , , > , , , , , , , , , , > , , , , , , , , , , , , , ",
", , , , , , , , , , , , , , , , , , , , , , , , , , , , , , , , , , , , , , , , , , , , , ",
", ; , , , , , , , , , , , , , , , , , , , , , , , , , , , , , , , , , , , , , , , , , , , ",
"< A A G , i > G A A A < A A < G A A A < , A A A A A A A A A < G , A < A A A A , , , , , , ",
"A A A > i , < G G > A A < A A > A A A < , < A A A < A < < A A > < A A A A A A , 9 < < q i ",
", , , , , , , , , , , , , , , , , , , , , , , , , , , , , , , , , , , , , , , $.$.{ ' ..{ ",
", , , , , , , , , , , , , , , , , , , , , , , , , , , , , , , , , , , , , , , { $.{ ^ $.-.",
", , , , , , , , , , , , , , , , , , , , , , , , , , , , , , , , , , , , , , , $.<.<./ %.1.",
", , , , , , , , , , , , , , , , , , , , , , , , , , , , , , , , , , , , , , , ;.<.<.~ $.-.",
", , , , , , , , , , , , , , , , , , , , , , , , , , , , , , , , , , , , , , , ;.<.<.g $.<.",
", , , , , , , , , , > , , , , , , , , , , , , , , , , > , , , , , , , , , , , ;.>.<.g $.-.",
", , , , , , , , , , , , , , , , , > , , , , , , , , , , , , , , , , , , , , , &.>.>.h %.>.",
", , , , , , , , , , , , , , , , , , , , , , , , , , , , , , , , , , , , , , , -.>.1.g  .x ",
", , , , , < , , , , , , , , , , , , , , , , , , , , , , , , , , , , < , > < , -...' a p & ",
", , < < , > i , , , , i , , i , , , , < , < > i , , , i , , i , > < > < , , < ( g 2 p a h ",
"i > i , , i i > i i i i i i i > , i i i i i i i > i > < i i i > i i > i i i , 3 p f h ' $.",
"H < G < A i i A , G > > i > G < > G > > , , i > i < G < i i > < G > A < > G i a l ' ^ $.$.",
"m h R J G i A A G A i i i i < A G G A A > G A < < q y q P G i A G < A A < H i / $.$.s $.&.",
"{ ' z.! > A A A A A H E P G G A G G G G G G H j U.b.L.Y.g.R T G A G G A A G H $.$.>.s ..$.",
"' ' i.U A G G H < w u.v R 3.! G G G G G A S j %XJ._ ' -.N.z./ K G G A G G y j.%.>.$.g $.&.",
"' ' &.e J G S e P.M *Xu.Y.9.2.6.! H P T S b %XW.0 ^ ( &.>.p.m.W J G G G < E._.%.$.&.s ..+.",
"@. .<.v S H S y. Xt }.f g r.0./ 6.!.8.[ B %XZ.>.0 ^ / 1.<.>.x.t.E G G H B ).a.&.&.&.f +.| ",
"` ' &.0.S H w '.z.1 *Xa s l +.l.g.r j K.'.p.>.$.0 / ^ 1.<.<.<.F./ J G < ).m ~ &.&.&.w ( 7 ",
"` ..1.l.S S V n.v.e @Xk h _ $.>.s.s.M.W.<.<.-.$.0 ^ R >.$.<.1.p.v.[ G q #Xk g &.&. .w * g ",
"( { <.M., F K.p.q.) J.k.g ^ $.1.&.-.-.>.&.1.>.>.a h ` >.1.&.$.p.W.#.L e #Xf ' &. .y 7 h ` ",
"` g s |.> q /.( Y.] f.V h l g ^ ( l ( l | x ` l 4 l z l l ` x l r.9.D e (.7 l | 5 7 h  .&.",
"s : + $X> q (.= 9.[ m Z p 4 + + + + + + $ $ o + : a : + o + + + + g.F u K.2 a 7 7 l g o...",
"O.( h .X/ U b.O.X.Y ( m.@.@.l ^ ( ^ ` ^ ( ` ^ ^ s @.' ` ( ( ^ ^ x U.q u J.( o.f (  .a o.o.",
"o.' ' A.$.H h.r.| T _ @X( '  . .' { ' ' +.+.' ' ~ ' ^ { ' ' ' ' )  XD u U.g ) | o.+.s  ...",
"' #.4.x.5.J w.d.N.5.~ `.e ^ $.4.%.%.*.%.-.<.>.&.0 / / %.%.<.-.$.-.|.[ g E.e ) o.&.o.a  . .",
"} ' $.v.C.K | m.S.^.) ].s ( #.%.;.;.&.&.1.$.$.$.3 ~ ^ ..$.>.1.&.p.W.:.u E.w _ $.o. .a o.l ",
"O.) &.j.oXE l /.&.~.C `.a h i.>.&.+.&.&.&.+.+.o.p h h >.&.+.&.....{.2.U U.7 x $.o.+.f x r ",
"l. .&.I.B.OX0.}...a.I.b h ` @.>.$.&.e.e.&.&.$.o.3 ^ ` ..>.>...>.&.v.E Y G.7 | o.o.+.w r r ",
"t.( &.e._.j.P.z.&.&.>.e g ` { >.&.+.&.i.&.$.&.$.3 ^ ` ..o.$.>.&.-.a.P T m.d ^ +.o. .6 p v ",
" . .e.$.&.x.s.i.&.&.&.a w g ..o.$.&.&.&.o.e.$.o.3 g ^ $.$.o.&.o. .M.P I u.B ( o. .7 d l  .",
"v ^ e.-.&.e.i.+.i.i.p.y w l o.&.&.&.>.&.>...>.>.3 s l >.>.,.&.,.e.Z.Q I q.h.`  .r 6 g |  .",
"| h | ( } ^ ( } l ( ^ 5 k ^ h ( ` x x l x x x h 4 h f x x x l ( | Q.7.Q +.B ` f 6 h a  . .",
"j @ + X + X X + @ X + @ y 5 + + o o + o o o o o % p & + + + + o + M.+X2.d.c 7 8 g ` f |  .",
"| y l g ( l g g g f f f | | g h z z h h f g h s g  .l f a f z f g [.D.V.'.X.| g `  .f  . .",
"o.x ` x l h ( ` l ` | l g ` ` l ` ( ( ( ( ( ( l g ( h  .( ( ` ` l l r.u.j.g l `  .| d +.d ",
"l ( >.o.&.&.&.o.&.&.o.w a ( ..&.&.>.o.>.o.&.>...3 h ( $.&.&.+.&.&.+.&.&.( 3 g  .+.| d l $ ",
"^ ( &.o.o...&. .o.&.&.w w g ' +...+.o.>.o.>...' 3 g h o.o.o.....&.$.+.&.` 3 ^ o.+.| d -   ",
"l ( >.o...o.$...o.$.+.a w g | &.....o.........@.3 g h  .o.+... .o... .o.^ 3 h o. .| }.=X  ",
"^ l &. .o. .$... .$.o.7 a h ' o.o... .$.o. .$.` 3 g g  .o.o.o...$. .o.$.l 3 ^ +.@.k -     ",
"h ^ +.o.o.| o.o... . .w w g ` o.o. . ...o. .&. .3 g g  . .o.$.o.o.o.o.&.^ : g  .n -       ",
"( ( &.o.&. .+.&. .+.&.y w g  .o.+. .o.o.$. .&. .4 g ^ o.+.+.&.&.o.o.o.+.h 2 g | 6 &X      ",
"( l o. .o.|  .o. .o.+.w w h ' o.o. . .o.+.| o.| 4 g h @. . .o.o. .o.+.o.l 4 l b %         ",
"k g | | | ` | | | | | 4 a h x | | x n @.@.v | l 8 z z x x x x n n n n @.f : g #           ",
"d $ o O o # o $ O o o o 6 r O o o $ O o o o o o $ d $ o $ o o o O O # # O 8 r %           ",
"k d 7 7 d 7 f 7 p 7 p 7 b l p 6 d d d p 7 r d r d b x d d d d d p p d p d z n             "
};
