/* XPM */
static char *a7e5bc8eaafc4930a30f50dade7d7499HzFC5oiezS7AXSoB[] = {
/* columns rows colors chars-per-pixel */
"50 50 187 2 ",
"   c #460101",
".  c #4C0301",
"X  c #4E0803",
"o  c #46030D",
"O  c #4D050B",
"+  c #4D080D",
"@  c #530401",
"#  c #5A0602",
"$  c #540A02",
"%  c #5B0C02",
"&  c #51050A",
"*  c #580608",
"=  c #550B0C",
"-  c #5A0D0A",
";  c #5D1103",
":  c #54100F",
">  c #5D130C",
",  c #480411",
"<  c #460817",
"1  c #4E0B12",
"2  c #530713",
"3  c #540D11",
"4  c #590E12",
"5  c #571214",
"6  c #5C1313",
"7  c #5E171D",
"8  c #620C02",
"9  c #690F02",
"0  c #630E0A",
"q  c #631302",
"w  c #6A1403",
"e  c #651804",
"r  c #6B1904",
"t  c #63140A",
"y  c #69150A",
"u  c #65190B",
"i  c #6B1A0C",
"p  c #731A06",
"a  c #7B1D04",
"s  c #701709",
"d  c #731D0C",
"f  c #641512",
"g  c #6C1712",
"h  c #621914",
"j  c #6C1C14",
"k  c #661D19",
"l  c #6C1E1B",
"z  c #731D13",
"x  c #7A1E13",
"c  c #741F18",
"v  c #6D210C",
"b  c #75220D",
"n  c #7C240D",
"m  c #7C280C",
"M  c #6D2115",
"N  c #6E231C",
"B  c #742414",
"V  c #7B2412",
"C  c #772B14",
"Z  c #7B2A15",
"A  c #74241B",
"S  c #7B251B",
"D  c #74291B",
"F  c #7C2B1C",
"G  c #7E301B",
"H  c #621D20",
"J  c #681C20",
"K  c #6E2522",
"L  c #742521",
"P  c #782723",
"I  c #762B23",
"U  c #7B2C23",
"Y  c #712A28",
"T  c #7D2C28",
"R  c #7E3320",
"E  c #7E342A",
"W  c #7D3330",
"Q  c #822005",
"!  c #872C0D",
"~  c #8B2D0E",
"^  c #912E0E",
"/  c #8D3206",
"(  c #86320E",
")  c #8C310D",
"_  c #92300E",
"`  c #802511",
"'  c #842C14",
"]  c #8C2E13",
"[  c #802719",
"{  c #842D1A",
"}  c #8B2E1A",
"|  c #912E13",
" . c #922E19",
".. c #863314",
"X. c #8C3114",
"o. c #8C3915",
"O. c #85331C",
"+. c #8B331B",
"@. c #8F381D",
"#. c #8F3F1C",
"$. c #8C3A1C",
"%. c #903113",
"&. c #923111",
"*. c #903115",
"=. c #933114",
"-. c #923015",
";. c #923017",
":. c #903216",
">. c #913215",
",. c #913C15",
"<. c #943D15",
"1. c #913119",
"2. c #903219",
"3. c #943219",
"4. c #933519",
"5. c #90341B",
"6. c #92331D",
"7. c #91351D",
"8. c #91371C",
"9. c #90341F",
"0. c #91331B",
"q. c #913B18",
"w. c #943B1B",
"e. c #923E1A",
"r. c #923F1D",
"t. c #933B1C",
"y. c #842D22",
"u. c #8B2F22",
"i. c #8A2E21",
"p. c #823322",
"a. c #813420",
"s. c #823024",
"d. c #853423",
"f. c #883120",
"g. c #893123",
"h. c #8C3420",
"j. c #8F3421",
"k. c #8D3720",
"l. c #893326",
"z. c #8E3024",
"x. c #8A3425",
"c. c #893624",
"v. c #8D3625",
"b. c #8B3423",
"n. c #853921",
"m. c #873922",
"M. c #853924",
"N. c #883A23",
"B. c #8E3A20",
"V. c #8C3A22",
"C. c #8F3B23",
"Z. c #8D3C21",
"A. c #8F3F21",
"S. c #8B3B25",
"D. c #8B3826",
"F. c #8C3B23",
"G. c #853328",
"H. c #84352A",
"J. c #8B362A",
"K. c #873A28",
"L. c #85392B",
"P. c #883A2D",
"I. c #8B3C2B",
"U. c #913521",
"Y. c #913B22",
"T. c #923C23",
"R. c #9A3E22",
"E. c #913E2B",
"W. c #853D32",
"Q. c #8A3D32",
"!. c #994314",
"~. c #9A4117",
"^. c #9A4115",
"/. c #9C4017",
"(. c #9A4215",
"). c #95411C",
"_. c #9B421C",
"`. c #8D4127",
"'. c #8E412F",
"]. c #964025",
"[. c #964321",
"{. c #9B4423",
"}. c #92422B",
"|. c #93432C",
" X c #8D4234",
".X c #8F423A",
"XX c #944131",
/* pixels */
"O L +.~ | +.A > +.) ' X...$.w z.}  .~ ~ o...w j.] ] X.V.O.e 4.] | ] ) #.w f.} ] ] ..Z.e ' &.] ) ) /.",
"o h +.] X.f.k > +.~ &.~ $.A.9 f.} | =.! o...w +.] X.X.].M.q X.|  .] X...w f.} ] ] X.n.q X.~ &.] ) (.",
"< o C O.{ s.k 6 X.X.~ X...r q M.' | ] } $.O.r v.' ^ ~ e.+.w =.| X.' #.).% Z 6.] X.X.Z.q +.|  .| ) /.",
", O q q w e   > @.~ ) X.O.C ; O.=.] ] $.b V y f.] &.~ &...w =.| ] ( o.$.8 { U.] ' X.Z.q ] =.]  .) /.",
"@ B Y.q.,.).t t +.=.] ! }.q ; l.+.] ~ X.C.q r $.] &.] 4.O.e O.+.+.X.o.O.% z } 0.X.@.K.; +.X. .X./ /.",
"g v.] | ) ..P.t +.&.^ X.}.$ 8 l.} ~ 0.X.O.O.q +.]  .] 0.G e @.+.] ' r.A.@ @ z V b O.D > O.! =.] ) (.",
"$ G } ] ] @.p.q +.) &.>.Z b t G.+.4.X.X.V.O.e V.]  .^ 0.O.q +.] =.X.o.O.@ . $ @ @ u o X Z X.+.] ) !.",
"q O.}  . .@.M.; ..~ &.>.' S.@ j [ n n V Z @ r +.]  .| R.c.q j.} ' X...S.& J H.P.K.H.5 X B +.] ~ / !.",
"u f.]  .| 0.M.@ V +.=.! +.`.. $ q ; i r i   e f.} ] ] @.H.. j D +.c.D.A t J.i.+.+.+.L.% w ] X.) ) !.",
"q v.] ^ | } L.$ u f.O.} n.M $ I L.D.E.E.Q.i i +.+.' ] @.L.X @ @ q r e @ 0 J.+.] ] X.I.@ y } ' ~ ) ).",
"r } ] =.] +.J.. . > t ; 6 . > G.{ X.' ! Y.O.r c.] ] X.} B   t +.' G G @ > G.} =.) T.j . f i.f.@.O.T.",
"i v.' X.=.{ g & - L L.L.W.$ ; D.' ]  .X.X.X.8 B ' ] +.{ # t v.+.#.$.Z.M.@ V } ' ' +.H.@ * 0 B V D q ",
"g j n X.X.} 0 & z U. .+.T.i t L.r ' 0.=.r...# S v.{ +.i.0 y f.] ' ' +.].% [ +.| X.@.P X $ y g e i X ",
"@ t ] X.+.} 0 0 } ] ~ | ..Z.q t B 7.] ! ].$.@ A b d +.{ $ y +.] ] ] ..r w v.] ] ' T.D . c v.v.v.'.R ",
"@ A j.'  .} 0 0 7.~ =.] ..Z.  t f.] ] ] +.+.  3 $ $ e t   f +.] =.] ..m w } X.] ] +.'.$ s j.} X...).",
"f P } +.] ' 0 y +.X.X.] X.r.% A @.~  .] ..m.@ K '.S.v.J.= f U.] X.' ).].8 p.+.] ] ..I.$ d +.] ] / (.",
"* S +.7.} V - y 9.] X.) X.+.q M.' ~ =.] q.' % G.+...0.} - f  . .X.) r.#.@ c j.' X.+.Z.$ x } X.) / (.",
"O f O.' E.S   f +.] X.~ <.T.8 M.+.+.U.} +.c.@ S +.~ ] +.% f 7.) ~ ~ q.V.@ - { ] ] ..S.$ 8 } X.~ ) /.",
"o . $ t t = O - j.] &.X.{.T.X k U S F F U > . t ' X. .} 8 0 +.] X.X.>.@.# g } ] X.] I.$ # ` } =.) _.",
"1 3 >  XM P 3 . z ] } ! ) r.@ = t w w u f   @ t V ] X.} 0 y +.] ] =.>.@.@ P U.] } +.I.$ d 9.0.~ ) _.",
"f J.O.' +.f.f & s }  .} ..V.. = { +.).A.`.e 8 ' n ] ] j.% f { ' +.' &.v.. N v.+.+.M.K = [ ]  .] / (.",
"j i.+.&.! } f . 0 u.} +.o.D.$ f ' ..) ( ..$.w U.] &.] { 0 & s ] ..X.X.T.. X i q w t   > v.] ] X.) e.",
"8 [ X.| ~ 9.f . f I A D D t @ c c.' X.~ $.' d z. .] ) ' f @ x U.] X.+.+.$ u $.X.X.+.> % ..' &.X.{ s ",
"y l.] ^ | } W.  = t i e g . # P } ] | ] +.O.8 { } ] ] +.% f J.} ....+.I.q M.X.&.X.t.G.u V.X.~ X.+.d ",
"y u.X.X.~ t.L.$ Z o.].r.E.b q f.} ] ^ X.r.+.8 S } ] X.O.$ = I L.c.m.M.j u f.' ' ' +.C.# b ` X.X.) [.",
"w +.] &.~ q.n.q +.~ ! ( X.V.i f.} =.| ) q...% y.+.] ] +.R   $ ; % y q   q s.+.=.| } C.# q ] ] ~ _ <.",
"w +.X.] ~ +.O.e +.| ] ~ ) $.@ % [ X.X.X.o...@ A J.f.+.C.W . . % w f.M.q % G.} ] &.t.C.u +.{ } X.) !.",
"r +.X.] &.$.O.q =.^  .] ,.$.% F +.X.X.( ).G . = j B d i . = k S [ ` v.v.% [ } | ~ +.I.% U v.+.@.o.O.",
"q +. .] ] @.m.q 0.| | ] e.X.t J.X.X.3.] O.`.  6 $ M b V . - c V +.X.+.D.w v.' X.X.+.I.. $ k f t 6 = ",
"r +.] ] ] +.O.q +.]  .] ) r.$ l f.Z { { G ; > E F S.].`.I . z { X.) +.+.w j.] X.' r.`.$     t u $ . ",
"r +.0.X.X.+.M.q ] =.X...+.O.. O X - > $ >   i f.+.X.! +.K.@ V 9.X.X.X.@.0 S X.&.) +.D.% S i.u.` [ $.",
"t i.X.~ ' $.a.$ n +.X.' +.t . 7 3 k I I  Xu y +.] ^ _ +.O.u f.] ' X...$.@ t ' ' X...Z.; d } } X./ _.",
"$ S } ] | T.I.X e [ X.+.l.0 $ Q.i [ +...O.O.w j.} | ^ w.M.% [ X.] X.X.o.q { ] ' ) X.S.q p ] X.] ) <.",
"O J I.] Q U.L.X . B O.[ g @ - v.[ ! +.X._...w c.] ] ^ {.I.  b 4.] ' ).o.q f.+.X.~ T.S.% V =.] _ ~ _.",
"o 4 U w ' X.L.X $ $ % u > . q s.O...X.X.{...r @.] >.~ X.M.@ V ] ~ X.o.V.# z +.~ _ X.m.q +.} ] ] ) {.",
", 3 % d v.C.N X U M j Q..X% ; f.X.) ' ~ ).( r ..X.~ X.t.H.% ' =.&.~ {.S.% y.} =.] @.L.q +.} ] =.) (.",
"o O . e t ;   u l.u.@.{ O.w 8 @.X.&.] ~ e.( w @.] X.~ T.O.e 0.] &.~ q.Y.% L O.[ G R M > { =.} ' ) (.",
"1 5 E L.H.L.= t j.] ] ] j.8 q { ' |  .X.q...q +.] +.) ..O.q 8.~  .] ..S.. @ t q q >   > +.' =.=.X.e.",
"0 I c.+.O.V.M.q } |  .X.} 9 % H.}  .] X...o.@ S +.] X.X.O.v $.a ! X...$.@ M O.T.T.S.u ; X.) 0.' v.r ",
"@ S +.) ..X.O.q  . .] ] z.9 . l z.]  .X.o...# y.} } X.t.n.; r F +.X.O.I.t M.+.X.X...I.e ..&.3.s j $ ",
"& A +.~ ~ {.+.q 0. .~ ] +.w * s.}  .| ~ #...q v.} | ] T.L.  f G.p.F G.f q M.' ] =.' C.% b ] 8.V ; = ",
"& - ! &.) T.K.q +.=.X.X.} 8 # K v.7.X.+.$.C w v. .| | +.L.X $ - % u $   > +.}  .X.4.C.$ 8 i.f.E.N O ",
"* y ] | ~ X.M.q +.] ~ X.] d . , k v v i M . e c.] | ~ 4.L.. M t r XXA . t U. .] ] T.Q.. t l L h   o ",
"@ S 9.| _ ..s.e 0.] &.X.X.T.@ O h M b b M   e V.] | ^ X.M.  v D.f.{ I.V # [ } =. .] I.$ % l $ k Y + ",
"8 y. .^ ^ &.v.q +.] X.~ ) T.% U j.Y.w.t.V.Z # F } ~ X.4.L.; Z X.] +...$.q { X.] ' ..n.; { T.+.@.].O.",
"g U.] ^ ^ 4.K.% ` X.! X.$.+.% S +.| ^ ! q.+.# c i.U.X.V.U t $.X.] X.o.$.q s.O.~ X.+.M.q +.) &.X.) _.",
"w c.] ] ) +.l.@ s } X.' X.+.q l.] ] ] X.{.n.. 2 N j i u . f 9.~ X...).o.@ g +.' ~ #.I.; ] 3.X.~ ) <.",
"i } ] ] | ] I.@ y } +.X...Y.8 [ =.&.| ! #.n.. 1 @ A C D @ f +.^ &.! ..$.@ N j.O.X.V.N   d w.' X.) _.",
"y i.] &.] 4.M.; f.{ } f.O.v.# z 9.~ | X...G @ A { T.t.Y.F t 0.] &.' X.A.. = t q q %   - { ] ] X.) w.",
"% F } ~ ~ R.K.@ i r 8 { F % @ S } ] | ] T.q w f.] ] ~ 4.M.q X.~ | ~ ..A.X H I F U I 5 6 { X.0.' _ _."
};
