/* XPM */
static char *bc645efc3cc64a25cf82f6a714ca6d690CsKaz1TteVEPWDn[] = {
/* columns rows colors chars-per-pixel */
"50 50 213 2 ",
"   c None",
".  c #34332F",
"X  c #521800",
"o  c #501505",
"O  c #5E2A0D",
"+  c #5E2705",
"@  c #4E271A",
"#  c #582B18",
"$  c #6C2C0D",
"%  c #652809",
"&  c #7C310D",
"*  c #612B13",
"=  c #6D2F12",
"-  c #7D3414",
";  c #7F3816",
":  c #7C361A",
">  c #7B3B1D",
",  c #743517",
"<  c #6E3117",
"1  c #433B3A",
"2  c #4F3C36",
"3  c #523E37",
"4  c #47352F",
"5  c #7A3C20",
"6  c #48403C",
"7  c #514138",
"8  c #3A4649",
"9  c #3D5C5B",
"0  c #3F7D7F",
"q  c #494541",
"w  c #49595D",
"e  c #535A5C",
"r  c #544642",
"t  c #7C5345",
"y  c #624B43",
"u  c #48605E",
"i  c #786458",
"p  c #445C62",
"a  c #4A5D63",
"s  c #4A666A",
"d  c #476769",
"f  c #56666A",
"g  c #5B6E73",
"h  c #427175",
"j  c #457C7E",
"k  c #49797D",
"l  c #5A7577",
"z  c #426D74",
"x  c #736965",
"c  c #6B7979",
"v  c #6F6560",
"b  c #823615",
"n  c #823816",
"m  c #823719",
"M  c #843C1B",
"N  c #8A3D1B",
"B  c #90431E",
"V  c #8C4B2B",
"C  c #894324",
"Z  c #944622",
"A  c #934826",
"S  c #9E4B24",
"D  c #954B2A",
"F  c #9C4C2A",
"G  c #994621",
"H  c #9A502C",
"J  c #985434",
"K  c #A14B25",
"L  c #A14B2D",
"P  c #A4522D",
"I  c #AA542F",
"U  c #B65B2E",
"Y  c #A65532",
"T  c #AA5632",
"R  c #AD5B33",
"E  c #A65B39",
"W  c #AA5B3A",
"Q  c #B45C33",
"!  c #B95D33",
"~  c #B25E3A",
"^  c #B85F3A",
"/  c #B05732",
"(  c #AF613E",
")  c #BE6235",
"_  c #B3613D",
"`  c #BB633D",
"'  c #BC693D",
"]  c #C06234",
"[  c #C1653D",
"{  c #C66B3F",
"}  c #D76F3F",
"|  c #D5733F",
" . c #D8713F",
".. c #895949",
"X. c #945E45",
"o. c #945E4B",
"O. c #9D5F4B",
"+. c #985E42",
"@. c #AC5F41",
"#. c #9C624C",
"$. c #936552",
"%. c #956A59",
"&. c #AE6243",
"*. c #A2624B",
"=. c #AC664B",
"-. c #AF6B4D",
";. c #B46342",
":. c #BA6643",
">. c #BC6944",
",. c #B46B4D",
"<. c #BB6B49",
"1. c #B76848",
"2. c #B77154",
"3. c #B8704F",
"4. c #8C7975",
"5. c #C16643",
"6. c #C46A45",
"7. c #CA6C45",
"8. c #C36B49",
"9. c #CB6D49",
"0. c #D26F45",
"q. c #D26E48",
"w. c #CC7245",
"e. c #CB7049",
"r. c #D47243",
"t. c #DB7445",
"y. c #DC7946",
"u. c #D4754A",
"i. c #DB7648",
"p. c #DA794A",
"a. c #CF7B53",
"s. c #D47E55",
"d. c #E37A46",
"f. c #E27C4A",
"g. c #EB7D49",
"h. c #E17646",
"j. c #D5825B",
"k. c #D8875D",
"l. c #CF845F",
"z. c #D38660",
"x. c #D68865",
"c. c #467D81",
"v. c #5B7B81",
"b. c #647C80",
"n. c #3E8B88",
"m. c #35A6A6",
"M. c #3AA5A5",
"N. c #4C898B",
"B. c #458787",
"V. c #598589",
"C. c #559998",
"Z. c #4D8E93",
"A. c #6A8A8B",
"S. c #638488",
"D. c #728B8E",
"F. c #6A8E95",
"G. c #708D93",
"H. c #6C949D",
"J. c #6B999D",
"K. c #679797",
"L. c #71949C",
"P. c #769998",
"I. c #7B928F",
"U. c #6D94A2",
"Y. c #649DA3",
"T. c #6B9AA3",
"R. c #659CA8",
"E. c #7097A4",
"W. c #43A7A8",
"Q. c #5EA4AC",
"!. c #5AA6A6",
"~. c #5EA9B1",
"^. c #5DBBBE",
"/. c #59B6B8",
"(. c #66A3A5",
"). c #63A4AC",
"_. c #62A8AE",
"`. c #69AAA7",
"'. c #63ACB3",
"]. c #69ACB4",
"[. c #64B5BB",
"{. c #63BABC",
"}. c #66B5B9",
"|. c #54C1BF",
" X c #59C4BF",
".X c #5CBEC3",
"XX c #56BFC2",
"oX c #68BDC2",
"OX c #4EC5C5",
"+X c #4AC6C9",
"@X c #53C2C3",
"#X c #5CC2C3",
"$X c #57CDCC",
"%X c #5ACBCB",
"&X c #5BC8C9",
"*X c #57D1CC",
"=X c #59CFD3",
"-X c #5AD4D3",
";X c #5ED8D9",
":X c #5AD6D5",
">X c #63C2C4",
",X c #63CBCC",
"<X c #66C8CA",
"1X c #61CCD2",
"2X c #62D3D5",
"3X c #63D6D7",
"4X c #64D0CD",
"5X c #889898",
"6X c #8B9393",
"7X c #87A6A5",
"8X c #97ABAB",
"9X c #9BB3B0",
"0X c #A6B2B4",
/* pixels */
"                                                                                                    ",
"                                        0X7XW.m.M.M.M.W.8X                                          ",
"                                    6X(.&X=X;X^.oX[..X;X*X X_.6X                                    ",
"                                5X!.;X{.Q.Q.>XoXU.U.{.,XQ.(.^.2XC.I.                                ",
"                            9XZ.^.;X=X'.H.F._.!.l v.C._.H.K._.1X3X#Xn.0X                            ",
"                          9X$X2X).K.).oXV.w 6 o X X X 6 a V.>X).J.).;X@X9X                          ",
"                        5X}./.>X'.F.l 9 7 % = - , & & $ % 3 p l K.].,X'.}.5X                        ",
"                      8X}.].J.Y.~.9 @ = ; M ^ q.:.1._ S N N % @ 8 {.Y.E.`.{.9X                      ",
"                      /.1XT.U.b.2 % M D _ _ ) i.:.1.1.P r.7.K : % 4 S.J.Y.%XW.                      ",
"                    P.^.<XoXV.3 ; ) [ <.5.` ) u.:.>.1.Y  .w.9.^ T $ 7 V.<X>X/.7X                    ",
"                    !.{.E.Z.6 = B t.0.5.e.` ] p.5.:.1.T r.7.q.0.7.b > . J.Y.{.B.                    ",
"                  A..X(.E.l # H P t.r.6.6.~ ) i.6.7.:.T } 6.7.0.5.S >.o c J.R.,Xc                   ",
"                  !.&X,XT.1 > ( P | 0.{ 7.~ ] i.7.7.:.P r.8.6.q.^ K 0.- . (.<X%X!.                  ",
"                c %X'.[.d # D ;.P | 7.7.9.W ! h.0.7.>.T } 6.5.9.;.K d.Z # h }.Q.4X6X                ",
"                c %X(.U.8 > ~ 1.I r.6.7.6.W ] y.7.7.>.I r.5.>.7.:.K f.&.: 8 H.R.4X6X                ",
"                K.#XT.A.1 C ;.1.P u.5.7.6.W ) h.7.7.:.T r.7.>.7.7.K f.:.: 6 A.Y.<XP.                ",
"                &X:X<XB.< _ :.1.P r.6.5.>.E ) d.7.6.6.I | 5.1.7.{ K d.1.P # N.<X2X@X                ",
"                $XXX[.h > r.>.:.P | 6.<.1.E ] f.7.6.7.P r.{ >.e.{ F f.:.:.* c./..X@X                ",
"                %X).L.e > { ` ( F { ` ;.;.Y Q r.` ;.:.L 5.:.;.;.~ G r._ @.O f H.!.@X                ",
"                %X).A.$.R ! Q R U ! ! R Q Q Q U ! Q Q U ! Q Q Q Q Q ! ! Q T $.G.Q.@X                ",
"                =X3XJ.e.y.r.j.j.r.r.r.l.a.r.r.r.a.z.u.r.0.r.a.j.u.q.w.l.u.q.Q `.2X+X                ",
"                $X#XA.8.7.:.,.,.:.1.1.2.,.>.:.:.1.2.;.:.>.` ,.3.:.:.1.2.<.1.J K.^.OX                ",
"                &X(.G.i M n ; ; n n ; ; n b m b n ; ; n m n n ; b b ; m n > i F.).|.                ",
"                %X).J.w = H D D M P F A D C Z I D D D B F D D D A n Y F A O s U.Q.@X                ",
"                *X;X2XB.> 7.6.;.L r.0.>.>.E ! h.>.:.5.Q 7.5.:.1.~ F f.5.` * Z.,X:X+X                ",
"                %X#X}.h > u.>.1.P t.q.6.>.W ] d.7.5.5.Q r.6.>.>._ K g.9.7.* k [.#XOX                ",
"                &X).T.p > w.%.$.H | 7.6.>.W ) y.7.7.7.R | 7.5.>.;.S g.7.6.% s H.).@X                ",
"                &X_.U.p > >.4.x V t.9.q.5.E ) y.9.9.7.P r.6.8.8._ S g.7.6.* s U._.|.                ",
"                =X:X4X0 5 w.%.i D r.5.9.9.W ) i.6.q.7.P r.6.6.7.;.S g.7.6.* N.%X:XOX                ",
"                %X#X{.h > u.+.X.Y r.<.5.7.W ) i.5.0.6.Y | 5.6.8.` K g.7.7.* c.[.#XOX                ",
"                $X).L.w 5 r.X.#.P r.7.>.9.~ ) i.5.r.7.Y | 6.6.8._ K g.w.` * s L.).@X                ",
"                %X_.T.p > u.+.X.P r.8.1.9.~ ) i.5.w.7.Y | 6.6.6._ F f.7.` O s U.Q.@X                ",
"                =X:X,Xc.> r.#.o.P  .5.>.7._ ) i.5.r.6.Y 0.7.7.7.` F d.7.6.* N.,X-X@X                ",
"                $X#X{.h 5 >.4.i V | 8.1.5.` ) i.>.q.7.Y } 7.0.q.` K f.7.6.* c.[.#XOX                ",
"                $X).H.p > 8.4.x V r.8.<.>.~ ] i.>.7.6.Y | 7.r.q.` K f.7.>.* d H.Q.@X                ",
"                &X~.J.a > u.&.#.P y.5.>.8.` ] i.>.>.:.Y r.w.7.7.` K f.6.;.O d J.Q. X                ",
"                $X-X%Xh > r.<.<.P | 6.>.>.) ] u.>.>.:.Y t.0.8.7.` F d.:.` O N.<X=X+X                ",
"                $X>XoX0 > r.8.:.P r.>.<.5._ ) u.:.:.:.Y t.0.5.8.{ K f.1.;.* k }.oXOX                ",
"                %X_.P.e ; ) ( ( S ` ~ W _ P I { W W W F ] ) ~ Q Q Z { W E % f J.Q.@X                ",
"                %X'.A.#.R U _ R Q U U _ ~ Q U ! Q ~ Q Q ! ! ^ ~ Q Q ! ~ ^ W $.D.~.@X                ",
"                $X1XK.w.p.p.j.j.p.p.p.z.s.p.p.p.j.k.p.i.i.p.j.k.p.i.p.x.s.p./ `.=X+X                ",
"                $XoXA.<.5.;.-.1.~ ~ ;.-.=.( ~ ~ &.,.( _ &.&.;.=.W _ &.-.;.( J J.^.@X                ",
"                $X).L.i - b - - - - ; - b - - b - - b - b - ; - b - - - - , v L.).|.                ",
"                $X'.T.p = I L D M P F F F C G P D F D N L F L D S n Y D A O s U.~.|.                ",
"                $X:X&Xh 5 y.r.5.P | 7.7.8.W ) i.9.q.6.T r.w.9.w.` K f.>.;.* N.,X-X+X                ",
"                &X.X].0 > r.e.7.P y.6.8.5.W ] y.9.9.8.Y r.5.6.q.;.K f.>.:.* k '.^.@X                ",
"                %X).J.w > r.7.7.I  .7.6.>.W ] d.6.7.7.T } 5.8.8._ F f.:.;.* s H.).XX                ",
"                 X(.F.w > r.[ :.P 0.7.>.:.E ! h.7.5.5.W | [ ;.:._ S y.:.W O s F.!./.                ",
"                P.l g w y #.*.o...*.*.o.#.....=.*.#.O...#.#.O.O.o.t =.O.o.r e f l 5X                ",
"                                                                                                    "
};
