/* XPM */
static char *_75c674c28fb4d01a54fd1c5121f5970UYCtwWPKb4nSp0A4[] = {
/* columns rows colors chars-per-pixel */
"50 50 216 2 ",
"   c None",
".  c #0D0C07",
"X  c #151108",
"o  c #483915",
"O  c #5B4312",
"+  c #7C5304",
"@  c #644D1A",
"#  c #5C4C22",
"$  c #665527",
"%  c #7B6730",
"&  c #845702",
"*  c #8C5C04",
"=  c #8D5E0B",
"-  c #865A07",
";  c #895E16",
":  c #8F600D",
">  c #956409",
",  c #98670B",
"<  c #9B6A0B",
"1  c #926005",
"2  c #86641D",
"3  c #926412",
"4  c #966914",
"5  c #9B6D1E",
"6  c #976A1A",
"7  c #9F7119",
"8  c #A1710F",
"9  c #A37312",
"0  c #AA7A16",
"q  c #A1741D",
"w  c #AC7D1A",
"e  c #A26A1C",
"r  c #986C24",
"t  c #987428",
"y  c #836E33",
"u  c #997A3A",
"i  c #876825",
"p  c #A36E24",
"a  c #A57126",
"s  c #A57A25",
"d  c #AA7C25",
"f  c #A57B2C",
"g  c #AB7C2A",
"h  c #A97424",
"j  c #B17B26",
"k  c #AA7C31",
"l  c #A57D39",
"z  c #B2821E",
"x  c #9E853E",
"c  c #B48421",
"v  c #B98924",
"b  c #B2832E",
"n  c #BC8D2C",
"m  c #B78D20",
"M  c #AB843D",
"N  c #A98436",
"B  c #B28433",
"V  c #BB8B34",
"C  c #B2863D",
"Z  c #B58A3C",
"A  c #BA8C3A",
"S  c #B78B34",
"D  c #BC9239",
"F  c #BC9136",
"G  c #B58A27",
"H  c #C2932E",
"J  c #C18B36",
"K  c #C39534",
"L  c #C99935",
"P  c #C2953B",
"I  c #CA9D3D",
"U  c #C39A3E",
"Y  c #CFA03D",
"T  c #A48B43",
"R  c #A98546",
"E  c #B48B43",
"W  c #B18E4C",
"Q  c #BD9C4C",
"!  c #B99449",
"~  c #B99757",
"^  c #AA9247",
"/  c #BEA352",
"(  c #BF9C63",
")  c #BFA561",
"_  c #C39A42",
"`  c #C49C4C",
"'  c #C89B43",
"]  c #C29E55",
"[  c #CBA243",
"{  c #CBA54C",
"}  c #C8A64D",
"|  c #D2A541",
" . c #D4A946",
".. c #D9AB45",
"X. c #D2A749",
"o. c #D3AA4C",
"O. c #DBAF48",
"+. c #DDB34D",
"@. c #C5A254",
"#. c #CBA454",
"$. c #CDA953",
"%. c #C4A45C",
"&. c #CAA55B",
"*. c #CEAD5E",
"=. c #C6AA5A",
"-. c #D3AC52",
";. c #D2AD5B",
":. c #CFB05D",
">. c #DBB452",
",. c #D5B35B",
"<. c #DBB55B",
"1. c #DDBA5B",
"2. c #D8B356",
"3. c #E1B64E",
"4. c #E5BC54",
"5. c #E8BF56",
"6. c #E3BE5B",
"7. c #E8BF59",
"8. c #C8AA67",
"9. c #CDB26B",
"0. c #CEB161",
"q. c #D4B364",
"w. c #DAB763",
"e. c #DDBC64",
"r. c #DABC6B",
"t. c #D4B66B",
"y. c #CDAF73",
"u. c #C8AD7C",
"i. c #CEB577",
"p. c #D3B474",
"a. c #DBBD74",
"s. c #D3BC7D",
"d. c #DABF79",
"f. c #D0AE67",
"g. c #E1BE62",
"h. c #E7C057",
"j. c #E9C057",
"k. c #E6C25E",
"l. c #EBC45B",
"z. c #EFC85F",
"x. c #DEC16A",
"c. c #DCC174",
"v. c #DDC37A",
"b. c #DAC57B",
"n. c #E3C263",
"m. c #E9C562",
"M. c #EECA63",
"N. c #E2C46D",
"B. c #ECCB6B",
"V. c #E7C86C",
"C. c #F1CC63",
"Z. c #F5D267",
"A. c #F6D46B",
"S. c #F8D76E",
"D. c #F9D86F",
"F. c #E2C374",
"G. c #E5C974",
"H. c #E1C578",
"J. c #E5CC7B",
"K. c #E9CE7C",
"L. c #E8CC73",
"P. c #EED173",
"I. c #EBD17A",
"U. c #F5D674",
"Y. c #FBDA73",
"T. c #F1D77A",
"R. c #F5DA7A",
"E. c #FBDE7A",
"W. c #F8D671",
"Q. c #FBE17B",
"!. c #D5BE87",
"~. c #D4BB94",
"^. c #DCC584",
"/. c #DDCA8C",
"(. c #D7C386",
"). c #DDC896",
"_. c #E2CB83",
"`. c #E2CC8C",
"'. c #ECCF84",
"]. c #EAD385",
"[. c #EEDA86",
"{. c #EAD58B",
"}. c #EDDA8C",
"|. c #E7D185",
" X c #F0DD8B",
".X c #F6DD86",
"XX c #E1CF9D",
"oX c #E4D394",
"OX c #ECD694",
"+X c #ECDA93",
"@X c #E6D69C",
"#X c #E9D69A",
"$X c #ECDB9A",
"%X c #F0DE94",
"&X c #FBE482",
"*X c #FBE788",
"=X c #FDE989",
"-X c #F6E187",
";X c #EFE29D",
":X c #F3E294",
">X c #F4E59B",
",X c #F6E99E",
"<X c #DCC9A6",
"1X c #EADAA3",
"2X c #E7D7A9",
"3X c #EBDDB8",
"4X c #E7CFA6",
"5X c #EEE0AA",
"6X c #F3E7A9",
"7X c #F5EDB5",
"8X c #F3E8B9",
"9X c #F8F2BE",
"0X c #EEE2B3",
"qX c #F5EBC6",
"wX c #F9F4C6",
"eX c #F8F4CB",
/* pixels */
"                                                                                                    ",
"                                                                                                    ",
"                                                                                                    ",
"                                                                                                    ",
"                                                                                                    ",
"                                                                                                    ",
"                                          5X@Xb.(.(.b.^.+X                                          ",
"                                    +X(.b.8.i.c._.v.r.9.8.9.9.b.                                    ",
"                                oXb.i.b.w.w.w.:.g.e.:.*.-.2.r.9.8.9.                                ",
"                            @Xs.s.r.,.t.J.}.:X>X+X|.:X-XI.n.$.} $.:.@.t.                            ",
"                          /.i.v.e.x.}.,X$XoX6X$X`.H.+X;X;X|.[.V.2.o.;.%.=.                          ",
"                        ^.s.w.w.].d.7X0X(.! M M g f f M E 9.+X,Xc.,.{ [ =.]                         ",
"                      ^./.e.x.:X7X3Xu.R F o.k.Z.Z.Z.Z.l.>.U N ~ ^.:Xn.{  .&.`                       ",
"                    ^./.g.L.+XwX<XW _ n.S.Y.Q.Q.E.Y.W.S.Z.M.l. .B i.:XN.q.[ &.@.                    ",
"                  @Xs.e.H.+X4X~.E 1.A.Y.Y.Q.Q.Q.Y.Y.D.S.Z.C.z.l.h.P 8.b.w.$.Y #.*.                  ",
"                  b.v.x.>X9X~.D m.W.E.R.Q.Q.E.Y.D.D.S.Z.C.z.l.j.4.h.[ =.}.e.#.X.#.H.                ",
"                `./.<.].6X<XQ m.W.Y.Q..XQ.D.D.D.S.A.Z.Z.z.z.l.l.6.7.7.X.0.].1.Y *.*.                ",
"              7X^.r.{.@X).@.h.U.Q.E..XR.D.D.D.S.A.Z.C.C.z.l.m.m.N.7.7.7.{ r.r.2.o.*.H.              ",
"              oX).r.6X7Xp.2.U.Q.E..XR.W.D.A.A.A.Z.Z.Z.z.M.l.n.m.V.N.4.4.h.-.].L.-.q.w.              ",
"              @X_.].9XOX,.B.Q.&X.XY.Y.D.S.=.T T x } } / { l.l.6.N.4.4.4.5.6.N.[.g.-.t.              ",
"            8X!.a.$X/.F.k.R.&X&XR.Y.D.S./ . . . . . . . y z.7.7.h.h.j.l.h.m.n.G.G.2.w._.            ",
"            1X@XF.7X1XG.V.Q.*XQ.Q.Y.D.S.,.1.1.% . # u ` 6.l.l.l.j.l.j.l.l.l.P.F.{.1.d.G.            ",
"            $X@X_.wX5XL.P.*X=X&XQ.E.D.S.A.m.$ x 1.C.C.C.z.l.l.l.l.h.l.z.m.l.T.G.:XN.q.G.            ",
"            1X/.{.eXOXP.R.=X=X&XQ.Y.W.S.M.y 1.Z.C.C.C.z.z.z.l.l.l.l.l.M.M.z.I.I.>XG.#.'.            ",
"            @Xa.{.s.{.G.R.=X=X&XQ.Q.D.A.^ k.Z.Z.z.C.z.l.l.l.l.l.l.l.z.M.Z.m.|.[.r.N.w.g.            ",
"            OXp.>XeX].J.T.*X*XQ.Q.D.A.A.M z.z.z.M.z.l.l.l.l.l.5.l.l.z.z.Z.z.'.-X:X].a.w.            ",
"            #Xc.}.eX].G.P.-X&XQ.D.A.Z.k.x M.z.z.7.5.l.5.5.5.5.5.l.l.z.M.Z.k.].}.:XI.e.F.            ",
"            OX!._.7XJ.J.V.R.E.R.A.Z.C.k.$ l.l.h.5.4.4.4.4.4.4.5.h.h.l.z.V.k.].{.+XJ.&.K.            ",
"            |.`.r.9.c.I.n.P.T.A.Z.M.z.h.O u 1.>.3.+.3.O.+.3.3.3.4.4.j.m.m.<.;XG.0.e.8.I.            ",
"            |.d.w.{.J.K.1.V.B.Z.M.k.h.h.Z . # N I .... .....O.O.3.1.4.4.4.2.6Xe.K.x.r.G.            ",
"            $X;.w.J.v.x.N.k.k.k.h.1.>.>.O.t . . . . X o r Y Y ..+.<.+.>.2.r.1Xw.N.q.<.K.            ",
"              r.;.,.x.[ }.2.4.>.>.1.>. .Y I n t ; @ O 6 H L L Y ;.-. . .o.5Xt.$.,.-.1.              ",
"              r.` -.*.F c.G.+. .o.-.;.#.L H n v v v v v v v n _ ' L L U a.0XP Q $.[ w.              ",
"                ' ` } F A }.1.| ' K ` n v z z z z w 0 0 0 w b b c v n o.qX&.b ` #.Y q.              ",
"                &.C ' V 9 @.:X>.L n c w w 0 0 9 8 8 8 8 8 8 s 0 0 c [ 8X).r d p.n }                 ",
"                  S j ! ! 5 f.$Xo.n 0 9 < 9 < < < < > , < > < < 0 [ 8X<Xg Z ~ @.P 8.                ",
"                  ( k E g - r t.6X1.n 9 > 1 4 * * * * 3 : 1 , j ,.qX4Xt r l R m ]                   ",
"                    E e C N + 5 #.$X[.-.c , = = & & = : > q [ %X8Xp.f + u ~ v `                     ",
"                      l q g t W 3 N q.}.:XV.-.D F V D { G.%X6X!.A 6 g R W n !                       ",
"                        k g a R ; & 6 D ` q.v.[.[.[.:X_.b.%.K s & - R r Z W                         ",
"                          ~ j p k B u M 4 d n Z B b B F b 7 5 5 M R a n ~                           ",
"                            ~ A b a k k s 4 l g q q d g , k C C h J U Q                             ",
"                                %.P V B p Z Z f j d k C E p k P I &.                                ",
"                                    ] ` P J J h j j q J P U { #.                                    ",
"                                            ~ A y.y.A E                                             ",
"                                                                                                    ",
"                                                                                                    ",
"                                                                                                    ",
"                                                                                                    ",
"                                                                                                    "
};
