/* XPM */
static char *_96d527bf13b4b94d1df676e5b93adb3OF8QhRRKp3DD51dK[] = {
/* columns rows colors chars-per-pixel */
"50 50 44 1 ",
"  c #FF8FAE",
". c #FB92AE",
"X c #FF90AE",
"o c #FF90AF",
"O c #F996AF",
"+ c #FC94AF",
"@ c #FF93B0",
"# c #FB95B0",
"$ c #FE94B0",
"% c #FE97B3",
"& c #F799B1",
"* c #FA99B2",
"= c #FB9AB3",
"- c #FC99B3",
"; c #FB9AB4",
": c #FD9BB4",
"> c #FD9BB5",
", c #F99DB5",
"< c #FC9DB7",
"1 c #FE9DB7",
"2 c #FF9EB8",
"3 c #FAA1B8",
"4 c #F8A2B8",
"5 c #FBA3BA",
"6 c #FDA0B8",
"7 c #FDA0B9",
"8 c #FBA5BB",
"9 c #FDA5BB",
"0 c #FBA7BD",
"q c #FDA4BC",
"w c #FDA5BC",
"e c #F9A9BD",
"r c #FDA8BE",
"t c #FCAAC0",
"y c #FBAFC2",
"u c #FAC6D4",
"i c #FDC7D5",
"p c #FAC8D3",
"a c #FBC8D3",
"s c #FBC9D5",
"d c #FBCBD6",
"f c #FDC9D4",
"g c #FCC9D5",
"h c #FCC9D6",
/* pixels */
"w@ @w9@ $8w@ $ww$ $ww$X$ww$ @ww$X$8w@ @ww@ @ww$X$w",
"@@1$$#$1@$$@2@$$@1$$$$2@$$@2@@$@1#$$@2@@@@1@$+$1$$",
" 1g1##1g1  2s1  1p7$X1g1  1g1  1s4XX1s1  1s1X+3g1X",
"@@1*,#@2$@@@2@@$-e2*++1@@@@1@@@-8*$$@1@@@@1@$-37$$",
"w$.&ew$X$ww@ @ww@*7ye@ @ww@ @w8*#$ww@ @ww@ @8e7>-w",
"w###8w$ $8w@ @ww$+>ew@ @w8$ $9e# @ww@ $ww$ @we,X$w",
"@.7$@@$2$$@@2@$$$1$$@$2@$$@1$$#$2@$$$2@@$@1@$$$1@$",
" 2i2  2g1  1i2X 2s2XX2g2  2s2XX2i2 X2i2  1s1  2i2 ",
"$@1@@$@1$$$$2$$$@2@$$$7$$$$2$$@@1@$$$2$$@@1@$@@1@$",
"w$ @ww$ $rw$X$ww$ @ww@@$ww$ $ww@ @ww$X$w9@ @ww$ @w",
"w$ @ww@ $wr$ @ww@ @ww$X$rr$@@ww@ @ww@ $8w$ @ww@ @w",
"@$1@@@@1$$$$2@@@@2@@@$2$$$$7@@@@1@@@@2@$$$1@@@$1@@",
" 1g2  1g7X@2i2@ 1s1X@2g1 @2s2  2s1  1s2XX2g2XX1s1 ",
"$$1@$$$1$$@$7@$$@1$$$$2@@$$2@@@@2$@@@2$$$$2$$$$1@$",
"w$ @9w$X$ww$X$ww@ $9w$X$ww$@$ww@X$ww@ $ww$X$ww  $w",
"w$ $ww$X$ww$ $ww@ $8w$ @ww$X$ww@X$w8X $ww$ $ww+ @w",
"++1**$$1@$@$1@@@@1**$$2@@$$1$$$-5+$$$1@$$X1$$$#4@#",
" 1a8-+1g1  1s2 X1s8#X1g1  1g1XX5s7$X1g1X 1g1XX8s1X",
"$$515*$2$$@@1$$$#8*$$$1@$@$1++**8;$$+1$$$@7+#**1+$",
"w$X*yr+ $ww@ @w8*.$ww@X$ww@ $9w*--ww+X$ww+ +88$X$w",
"w$X$ww$ $ww@X@w8.X$ww@X$ww$X$ww$X$ww@ $ww$X+89$ $w",
"$@2$@@@1$$@@1$@@+1$$$$1@$$$1$$$$1$$$@1$@$$1+$$@1@$",
"X1g1XX1g1  1g1  1g1  1g1XX7s1XX2g1XX1g2 X2g1  1g1 ",
"$+1+$$X1+$$$1@$$$1$@@@1$$$$1$$$$1@++X1@$$$1+@$@1@$",
"w$ @ww$ $ww$ $ww@ $ww@X$ww$X$ww$ $ww@ @ww$ $ww@ $w",
"w$ @9w$ $ww$ $ww@ @ww$X$w9$X@ww@ @w9X $ww+ $9w@ $w",
"$@1@@@@1@@@$1+++$1$$$$2$$$$1$@@@1@@@$1$$$@1$@@@1@$",
" 1g2  1g1  1a1X 1g1  2g2XX1g1  1i2  7g2  1s1  2s1 ",
"@@2$@@@1@@@@2@$$$1$@$$7$@@@2$$@@1@$$$1@@X$1$@@@2@@",
"w@XXw8+ @ww$ @ww$X$9w$X$ww@ $ww$X#9w$ $ww$ $ww@ $w",
"w$ $re$ $ww@ @ww++#ew$ $ww@ $w9$$*8w$ $ww$ +8e;$$w",
"$@1-,*$1@@@@1@$$$7>-$$1$@@@2$$$$w*#@@2@$$@1$$;27$$",
" 1s8+X1u2  1i1 X2de;X1g1  1g2 X4s<  2i2  2s1 ;ts2 ",
"$$5+$$$1@@@@1@$$+7,*$$2@@$@1@@#&2@$@@2@@@@2@@*22$$",
"5+.X9w@ $ww@ $ww$X-ww$X@ww@ $w8$X$8w$ $ww@ @e8#X$w",
"9+X+ww@ $ww@ @9w$ +9w$X@ww$X$w8@ $ww$ @ww@@@ww$X$8",
"@$1@@@@1@$@@1@@@X7+X$+1$@@@2$$@@2@@$$2@$$$2@@@@2@@",
" 2s2  2s1  1g2  1g1XX1g2  2i2X 2i2  7s2@@2s1  2i2 ",
"$@2@$$@1@$@@1$+$@1$$$$2$$$$2@@@@2@@@$2$$$@1@@@@1@$",
"8$ @ww@ X89@X$ww$X$ww$X$rw$@@ww$ @ww$X>ww$ @ww@ $w",
"w@ @ww@ $ww$ @8w+X$ww$X$rw$ @ww$ @ww@@$wr$ @ww@ $8",
"@@1$@@@2$$@@2@$$X1$$$$7$$$$2$$$@2@@@$2$$$$2@$@@2@@",
" 1s1  1s2  2s2X 1f2XX2g1X@1g1XX2i2@X2s1 @2s2 X2i2 ",
"@@1$@@@1$@@@1$$X+7X#$$1+@@$1$$$$2@$$@2@@@@2$$$@2@@",
"w$X#88$ @ww@ $8w+X$89@ @qw@ @ww$.*ww@ $ww$X$ww##$w",
"w$@;e8$ $ww@ @ww+X,e9@ @ww@ $we-;@ww@ $ww@ $we,#$8",
"$$5,5*$1$$@@1@$$.5;$@@1@@@@2$$-1t,$$@1@@@@2$#**2@@",
" 2g7>@2i1  1s2 X5u1X 1s1  2i1XX,g7XX2i1  2s1#.1s2 ",
"$@2$$$$2@$@@2@$##2$$$@2@$$@1@$$$2@$$@2@@$@2$#$@2@@",
"w$ $ew@ $ww@ @ww$X$8w$ @ww$ @ww$X$ww@ $8w$ @88 @@8"
};
