/* XPM */
static char *fe355644e0a84f32cd198a27ab578916JIFEI1xSqzDyuf8i[] = {
/* columns rows colors chars-per-pixel */
"50 50 189 2 ",
"   c #E3224E",
".  c #E72655",
"X  c #E72955",
"o  c #EE285B",
"O  c #F32B5A",
"+  c #E43958",
"@  c #EE386E",
"#  c #E64662",
"$  c #ED4D6E",
"%  c #F06B7F",
"&  c #F39E1D",
"*  c #F1A21F",
"=  c #F39F23",
"-  c #F3A020",
";  c #F3A12C",
":  c #F5A532",
">  c #F5A53B",
",  c #90C53F",
"<  c #FDCE1E",
"1  c #F8D219",
"2  c #C1D72D",
"3  c #C2D730",
"4  c #C5DB38",
"5  c #FDCE20",
"6  c #FDCF2C",
"7  c #F8D32D",
"8  c #F5AA4D",
"9  c #F4AC5B",
"0  c #F5B16B",
"q  c #8FC740",
"w  c #90C742",
"e  c #93C649",
"r  c #98CB4A",
"t  c #96C951",
"y  c #9CCC5B",
"u  c #A3CF72",
"i  c #A9D279",
"p  c #C5DB46",
"a  c #C5D94D",
"s  c #C9DC58",
"d  c #FBD24A",
"f  c #CADC64",
"g  c #FCD76B",
"h  c #FCD975",
"j  c #CDE06A",
"k  c #9C5BA4",
"l  c #A05EA6",
"z  c #9F62A8",
"x  c #9E64A8",
"c  c #A264A8",
"v  c #A36BAB",
"b  c #A671AD",
"n  c #A873AE",
"m  c #AB79B1",
"M  c #EB4C9C",
"N  c #F34C9C",
"B  c #EC559F",
"V  c #F56D81",
"C  c #EB7585",
"Z  c #F5798A",
"A  c #EC57A0",
"S  c #F358A0",
"D  c #ED6FA9",
"F  c #ED71AA",
"G  c #F473AB",
"H  c #3CBBB0",
"J  c #50BEB4",
"K  c #46C1BC",
"L  c #4DC5BB",
"P  c #54C6BC",
"I  c #74C7BE",
"U  c #5DC5C1",
"Y  c #7ACCC6",
"T  c #A3869C",
"R  c #A888A3",
"E  c #B994BD",
"W  c #BDAEB4",
"Q  c #ED8B98",
"!  c #F3889D",
"~  c #F6BD89",
"^  c #F79FA9",
"/  c #F39BBB",
"(  c #EFA8AF",
")  c #F3A4AC",
"_  c #EFAAB1",
"`  c #F5ABB3",
"'  c #F3B5BB",
"]  c #ACD382",
"[  c #B2D686",
"{  c #B7D995",
"}  c #BEDCA3",
"|  c #F5C08D",
" . c #FCDC82",
".. c #FCDE8C",
"X. c #F7C294",
"o. c #FEDF97",
"O. c #D4E48A",
"+. c #D8E59C",
"@. c #FBE199",
"#. c #C4DEAA",
"$. c #F7CBA7",
"%. c #F9D6BB",
"&. c #C6E0AD",
"*. c #DCE8A6",
"=. c #CBE2B5",
"-. c #D1E5BD",
";. c #FDE3A8",
":. c #E1EBB6",
">. c #E3EDBC",
",. c #FDE8B8",
"<. c #C6ABCA",
"1. c #C6ACCA",
"2. c #C9B1CE",
"3. c #CEBAD2",
"4. c #D1BDD5",
"5. c #F4A7C5",
"6. c #F5ADC9",
"7. c #F4B8C7",
"8. c #88CDC5",
"9. c #8CD2CD",
"0. c #9BD6D2",
"q. c #A8D8D5",
"w. c #ACD9D6",
"e. c #B5DDD8",
"r. c #B5DDDA",
"t. c #B9E1DD",
"y. c #C9C0C1",
"u. c #D4C0D6",
"i. c #D6C5D9",
"p. c #DACCDD",
"a. c #F5C4C9",
"s. c #FADDC7",
"d. c #F7C9D8",
"f. c #F7CDDD",
"g. c #F8D7DB",
"h. c #D4E7C4",
"j. c #D8E9C8",
"k. c #C3E3DF",
"l. c #DEECD2",
"z. c #E7EFC5",
"x. c #FDECC7",
"c. c #FBE1CE",
"v. c #EAF1CE",
"b. c #E1EED5",
"n. c #E3EFD8",
"m. c #FBE4D3",
"M. c #FEEFD1",
"N. c #FCE7DA",
"B. c #FBE9DB",
"V. c #ECF3D4",
"C. c #E6F1DD",
"Z. c #ECF3DE",
"A. c #FDF0D4",
"S. c #FAF4DC",
"D. c #DED0E0",
"F. c #E2D6E4",
"G. c #E4DAE6",
"H. c #E8DFE9",
"J. c #F9D6E3",
"K. c #FADDE4",
"L. c #FCDDE8",
"P. c #C8E6E4",
"I. c #CBE7E4",
"U. c #D0E9E6",
"Y. c #D4EBEA",
"T. c #DCEEEC",
"R. c #E9E6ED",
"E. c #FCEDE3",
"W. c #FBE4EB",
"Q. c #FCECEE",
"!. c #ECF4E4",
"~. c #FEF5E3",
"^. c #F4F8E6",
"/. c #F1F6EB",
"(. c #FDF4EA",
"). c #F5F9EC",
"_. c #FEF9ED",
"`. c #EFE8F0",
"'. c #F5EEF3",
"]. c #E4F2F1",
"[. c #ECF6F5",
"{. c #F6F3F6",
"}. c #FDF4F5",
"|. c #F5F9F4",
" X c #FAFCF5",
".X c #F7F4F8",
"XX c #FAF6F9",
"oX c #F5FAFA",
"OX c #FFFFFF",
/* pixels */
"r r r r r r [ OXOXOX@.1 1 1 1 1 1 ~.OXOXL.N N N N N N 6.OXOXOXf 4 4 4 4 4 p  XOXOX7.            a.OX",
"r r r r r r i OXOXOX..1 1 1 1 1 1 S.OXOXJ.N N N N N N 5.OXOXOXs 4 4 4 4 4 4  XOXOX'             a.OX",
"i r r r r r =.OXOXOXx.1 1 1 1 1 d  XOXOX}.S N N N N N J.OXOXOX*.4 4 4 4 4 O.OXOXOXg.          X W.OX",
"!.y r r r i  XOXOXOX X .1 1 1 7 A.OXOXOXOXf.N N N N / OXOXOXOX).j 4 4 4 s ^.OXOXOXOX_         ' OXOX",
"OX).-.#.j. XOXOXOXOXOX Xx.;.,.(.OXOXOXOXOXOXW.7.6.J.OXOXOXOXOXOX Xz.*.>. XOXOXOXOXOXOXg.( _ g.OXOXOX",
"OXOXOXOXOXOXOX XV.V. XOXOXOX XOXOXOXg.d.W.OXOXOXOXOXOXOX[.Y.T.OXOXOXOXOXOXOX Xm.s._.OXOXOXOXOXOXOX[.",
"! XXOXOXOXOXv.p 2 2 a V.OXOXOXOX}.C . . X ) XXOXOXOXOXt.L L L Y [.OXOXOXOXE.9 & = : %.OXOXOXOXOXI.q.",
"o / OXOXOX).4 2 2 2 2 p  XOXOXOXQ . . . X . a.OXOXOXY.L L L L K Y OXOXOXXX9 & & & & = B.OXOXOXY.q.w.",
"o @ XXOXOX>.2 2 2 2 2 2 z.OXOX}.X . . . . . C OXOXOX0.L L L L L L ].OXOXN.& & & & & & $.OXOXOXr.w.q.",
"o @ XXOXOX:.2 2 2 2 2 2 z.OXOXQ.. . . . . . C OXOXOX0.L L L L L K ].OXOXm.& & & & & & $.OXOXOXr.w.w.",
"o ! OXOXOXZ.2 2 2 2 2 3 ^.OXOXOXV . . . . . _ OXOXOXI.L L L L L I oXOXOX}.> & & & & = s.OXOXOXI.w.w.",
"$ W.OXOXOXOX*.2 2 2 2 :.OXOXOXOXK.# . . . C }.OXOXOXOX9.L L L P Y.OXOXOXOXs.= & & & ~ OXOXOXOXoXr.w.",
"XXOXOXOXOXOXOXV.*.*.V.OXOXOXOXOXOXQ.' ( a.XXOXOXOXOXOXOXI.q.t.[.OXOXOXOXOXOXE.$.$.c.OXOXOXOXOXOXoXT.",
"OXOXT.I.[.OXOXOXOXOXOXOX(.c.N. XOXOXOXOXOXOXOX].].oXOXOXOXOXOXOXOX'.p.R.OXOXOXOXOXOXOX|.b.b.}.OXOXOX",
"oX8.H H H q.oXOXOXOXOX%.; = * 0 (.OXOXOXOX[.r.w.w.w.T.OXOXOXOXoX1.k k l E XXOXOXOXOXl.t , , y n.OXOX",
"8.H H H H H k.OXOXOXm.- - - = * 0 OXOXOXOXr.w.w.w.w.w.[.OXOXOX4.l l l k k <.OXOXOX/.e , , , , t |.OX",
"H H H H H H 8.OXOXOXX.& * = - - = E.OXOX[.w.w.w.q.w.w.U.OXOXOXm k l l l l c OXOXOXh., , , , , , j.OX",
"H H H H H H I OXOXOX~ * & * - & - E.OXOX[.w.w.w.w.w.q.I.OXOXOXb l l l k l l XXOXOX=., , , , , , j.OX",
"I H H H H H w.OXOXOX%.= - - * = 8 XXOXOXoXw.w.w.q.w.w.].OXOXOX1.l l l l l E  XOXOXC., , , , w w /.OX",
"T.J H H H I oXOXOXOX X~ - - = ; m.OXOXOXOXT.w.w.w.w.I.oXOXOXOX'.m k l k v `.OXOXOXOX#., , , , =.OXOX",
"OX[.r.q.k.oXOXOXOXOXOX Xs.$.$.(.OXOXOXOXOXOX[.Y.I.].OXOXOXOXOXOXXXi.1.u.'.OXOXOXOXOXOXl.#.#.C.OXOXOX",
"OXOXOX XOXOXOX.XG.G.XXOXOXOXOXOXOXOXC.l./.OXOXOXOXOXOXOX_.M.S. XOXOXOXOXOXOXOXK.J.}.OXOXOXOXOXOXOX^.",
"W  XOXOXOXOXF.b z z n H.OXOXOXOX|.i q q q #.OXOXOXOXOX,.6 < 5 g (.OXOXOXOXW.F M M B d.OXOXOXOX X+.3 ",
"c y.OXOXOX'.v z z z c v .XOXOXOX{ , q q q q h.OXOXOXM.< < < < < g OXOXOXOXD M M M M M L.OXOXOX:.2 3 ",
"z R  XOXOXi.c z z z z z D.OXOX|.w q q q q q ] OXOXOXo.< < < < < < ~.OXOXL.M M M M M M 6.OXOXOXf 3 3 ",
"z T oXOXOX4.z z z z z z p.OXOX).q q q q q q i OXOXOX..< < < < < 1 ~.OXOXJ.M M M M M M 5.OXOXOXs 3 3 ",
"z W OXOXOXR.z z z z z z `.OXOXOXu q q q q q &.OXOXOX,.< < < < < d XXOXOX}.B M M M M M f.OXOXOX+.3 3 ",
"R /.OXOXOXOX2.z z z z 4.OXOXOXOX!.t q q q u |.OXOXOXOX .< < < 6 M.OXOXOXOXd.M M M M / OXOXOXOX).f 2 ",
" XOXOXOXOXOXOXG.2.2.H.OXOXOXOXOXOX/.=.} h.oXOXOXOXOXOX Xx.;.;.~.OXOXOXOXOXOXW.6.6.f.OXOXOXOXOXOX X>.",
"OX XK.g.W.OXOXOXOXOXOXOX[.Y.T.oXOXOXOXOXOXOX XB.m.}.OXOXOXOXOXOXOX X].|.OXOXOXOXoXOXOXXXD.D.oXOXOXOX",
"}.Z O O O ) OXOXOXOXOXt.L K K Y [.OXOXOXOXE.9 * * : s. XOXOXOXOXk.w.w.w.P.oXOXOXOXOXF.x k k v H.OXOX",
"! O O O O O a.OXOXOXY.K K K K K Y OXOXOXOX9 * * * * ; B.OXOXOXY.w.w.w.w.w.I.OXOXOX'.k k k k k c {.OX",
"O O O O O O Z OXOXOX0.U K K K K K ].OXOXB.* * * * * * $.OXOXOXr.w.w.e.w.w.e.oXOXOXi.k k k k k k p.OX",
"O O O O O O Z OXOXOX9.K K K K K K ].OXOXm.* * * * * * $.OXOXOXr.w.w.w.w.w.w.OXOXOX4.k k k k k k p.OX",
"% O O O O O ` OXOXOXP.J K K K K U oXOXOX}.: * * * * * c.OXOXOXI.w.w.w.e.w.k.OXOXOXH.k k k k k k `.OX",
"g.$ O O O V }.OXOXOXoX9.K K K K Y.OXOXOXOXs.* * * * | oXOXOXOXoXt.w.q.q.e.[.OXOXOXOX1.k k k k <.OXOX",
"OXQ.' ^ 7. XOXOXOXOXOXoXP.q.w.].OXOXOXOXOXOXE.$.$.c.OXOXOXOXOXOX XT.I.T.oXOXOXOXOXOXOXF.E 2.D.OXOXOX",
"OXOXOXOXOXOXOXXXG.H.XXOXoXOXOXOXOXOX!.l./.OXOXOXOX XOXOX_.M.S.OXOX XOXOXOXOXOXL.J.}.OXOX[.oXOXOXOX/.",
"X. XOXOXOXOXF.b z z n H.OXOXOXOX|.] q q q &.OXOXOXOXOX,.6 < < g _.OXOXOXOXW.F M M B d.OXOXOXOXOX+.3 ",
": $.OXOXOX'.v z z z z b .XOXOXOX{ q q q q q h.OXOXOXA.5 5 < < < g OXOXOXOXD M M M M M W.OXOX X-.3 3 ",
": 8 OXOXOXi.z z z z z z D.OXOX|.w q q q q q ] OXOXOXo.5 < < < < < ~.OXOXL.M M M M M M 6.oXOXOXf 3 3 ",
": > oXOXOX4.z z z z z z p.OXOX|.q q q q q q i OXOXOX..5 < < < < < ~.OXOXJ.M M M M M M 5.OXOXOXs 3 3 ",
": X.OXOXOXH.z z z z z z `.OXOX Xu q q w q q &.OXOXOX,.5 < < < < d  XOXOX{.B M M M M M f.OXOXOX+.2 2 ",
"9 (.OXOXOXOX2.z z z z 3.OXOXOXOXC.t q w q u oXOXOXOXOXh < < < 6 M.OXOXOXOXd.M M M M / OXOXOXOX).f 3 ",
"}.OXOXOXOXOXOXF.1.2.H.OXOXOXOXOXOX/.=.{ h. XOXOXOXOXOX Xx.@.;.~.OXOXOXOXOXOXW.6.5.f. XOXOXOXOXOX X>.",
" XOX!.b.).OXOXOXOXOXOXOX_.A.S.OXOXOXOXOXOXOXOXL.J.}.OXOXOXOXOXOXOX^.V.^.OXOXOXOXOXOXOX|.g.g.}.OXOXOX",
"|.[ r r r &.OXOXOXOXOX,.7 1 1 g (.OXOXOXOXW.G N N S d.OXOXOXOX X+.4 4 4 O.oXOXOXOXOXg.#     $ g.OXOX",
"{ r r r r r j.OXOXOXA.1 1 1 1 1 h OXOXOXOXG N N N N N W.OXOXOX>.4 4 4 4 4 *.OXOXOXQ.+         # }.OX",
"r r r r r r [ OXOXOX@.1 1 1 1 1 1 ~.OXOXL.N N N N N N 6.OXOXOXj 4 4 4 4 4 p  XOXOX7.            a.OX",
"r r r r r r i OXOXOX..1 1 1 1 1 1 ~.OXOXJ.N N N N N N 5.OXOXOXs 4 4 4 4 4 4  XOXOX'             a.OX"
};
