/* XPM */
static char * C:\Users\Bryan\42\test\img\ground_xpm[] = {
"50 50 48 1",
" 	c #915731",
".	c #955427",
"+	c #7B431B",
"@	c #824E2A",
"#	c #8C522B",
"$	c #8F5124",
"%	c #865433",
"&	c #83491E",
"*	c #7C4925",
"=	c #834C24",
"-	c #925A34",
";	c #9A603C",
">	c #9B6540",
",	c #995F3A",
"'	c #995D37",
")	c #713B14",
"!	c #894F28",
"~	c #84512D",
"{	c #7E481F",
"]	c #97613C",
"^	c #894F25",
"/	c #7A4622",
"(	c #6D3A14",
"_	c #945D3A",
":	c #6A360F",
"<	c #73401C",
"[	c #7B4B2B",
"}	c #6C3D1C",
"|	c #502506",
"1	c #4B2306",
"2	c #522709",
"3	c #5B2C0A",
"4	c #5D300F",
"5	c #552A0A",
"6	c #4E270A",
"7	c #6A3611",
"8	c #744523",
"9	c #8B5837",
"0	c #8D5938",
"a	c #774826",
"b	c #895634",
"c	c #764728",
"d	c #6F401F",
"e	c #764829",
"f	c #733E1A",
"g	c #673919",
"h	c #653513",
"i	c #64330F",
" ..........+@#.........$+%..........&*#..........+",
"=-;>;;;,,>')@!;;>;>,>,>$)~#>,;;;;>;;+{~';;;;;>;;;)",
"#-;;;;],>;')@^,;;;;,;;;#)~#>;;,;;;;;+{@-;;;;;;;;')",
"@ ;,;,;;,,-)==,,,;,,>,;^)@$;;;;;,;;;+/=-;;;;;];;')",
"@-;;;;,;;;,)@^,;,,;,,;,#)%#;];;;;;,;+/~-;,;,;,];-(",
"= ;_]]],,,-:@=,,;]],],>!)@#;,;;_],];&+=-,,],,,,;-)",
"=-;],,],,,-)==,,,,,,,,,!)@#;;__;_]_;+<! ;_;,,,,;-)",
"@-;_;;;;,_')@=',_,;],,;#(~#;];_;;]];+/=-];]]]],;')",
"=/@@@=[[===:@/=@@@=@@[@+(@+@@@=*==@=(/*+@@=@[@=@/:",
"}||1||2|||13*4|1||||||||(/5|11|1|||65/}||||||1|||4",
"%=~@@!@~@@~@%%@@@@@@@@@~~%@~~=~~@~=@~%#@~[=@@~@=~~",
"#$$$$$^$$$^&~!$$$$$$$$$^+%$$$$$$$.^$&/#$$$.^.^.$$+",
"~ ;'_,,,,' 7@@'_''_,___#(@#]',_;___;+8=-__,'_,__'(",
"= ]_______-([=________,!([!_________+8=-___'___--:",
"=9-_0_____ )*=-___0____=(@~__-______</*#__0_____-)",
"= __0__-__-7@=_______0_!([!_ _______)<[ _____0__ :",
"= ______0_ 7[=0________=([!_____0___+/=#___0____9:",
"]-----  - --,_---  ------,----   -- -';-  --- -.]-",
" ..........+@#.........$+%..........&*#..........+",
"=-;>;;;,,>')@!;;>;>,>,>$)~#>,;;;;>;;+{~';;;;;>;;;)",
"#-;;;;],>;')@^,;;;;,;;;#)~#>;;,;;;;;+{@-;;;;;;;;')",
"@ ;,;,;;,,-)==,,,;,,>,;^)@$;;;;;,;;;+/=-;;;;;];;')",
"@-;;;;,;;;,)@^,;,,;,,;,#)%#;];;;;;,;+/~-;,;,;,];-(",
"= ;_]]],,,-:@=,,;]],],>!)@#;,;;_],];&+=-,,],,,,;-)",
"=-;],,],,,-)==,,,,,,,,,!)@#;;__;_]_;+<! ;_;,,,,;-)",
"@-;_;;;;,_')@=',_,;],,;#(~#;];_;;]];+/=-];]]]],;')",
"=/@@@=[[===:@/=@@@=@@[@+(@+@@@=*==@=(/*+@@=@[@=@/:",
"}||1||2|||13*4|1||||||||(/5|11|1|||65/}||||||1|||4",
"%=~@@!@~@@~@%%@@@@@@@@@~~%@~~=~~@~=@~%#@~[=@@~@=~~",
"#$$$$$^$$$^&~!$$$$$$$$$^+%$$$$$$$.^$&/#$$$.^.^.$$+",
"~ ;'_,,,,' 7@@'_''_,___#(@#]',_;___;+8=-__,'_,__'(",
"= ]_______-([=________,!([!_________+8=-___'___--:",
"=9-_0_____ )*=-___0____=(@~__-______</*#__0_____-)",
"= __0__-__-7@=_______0_!([!_ _______)<[ _____0__ :",
"= ______0_ 7[=0________=([!_____0___+/=#___0____9:",
"* --0_0_00 7*=- 0_00___=(@!_0_0-00__<8a#_0_-_0__ :",
"@b________-7c=_____0__,=([!_________+<*b_______, :",
"*=@@@@@@@~=7[/@#@@@@@@@+([/@@@#@@@@!(<a=@!@@@@!@@:",
"}1111|111113c411111111|17c2111111|11|d}11111111113",
"[ccc*/c/*ccc~*c/cc/aaaace@a/*cc*/c/aa@~aaa/aaaaaaa",
"%===^=^==^=/@!^==^===^^=/~!==^===^=^{e~!^^==^=^==/",
"=b_-_ _0__ :c= 0_0_--0_=7[@__0_-0-_'fd*b0_0--0_- 7",
"*#_00_0000b:c=00000_00_=7*@000000000fd*!_00_000_%7",
"c%0000000_b7c/b900900b0=g[=000000000fd*#00000000b7",
"c#0b0b000b#:c/099990000*h[=099900000)}*b0b000b00b7",
"c#0b0b0000b:c/b00000b00=7[=00b90000_ffa!000000bb#7",
"c~00b0b0b0%:c*0b000b000c7c@0999b0bb0)d*%0b0bb000b7",
"c#000bb900%:c/ 0b000b00=7c@000000000fd/~00b09000%7",
"/@~%@%%%[%[:c8@~~~~~%~%d7c*~%~[%~~~~(dc*%%%[%~~~@i",
"}11161111115841611611111hd2661116111|dg16111111615"};
