/* XPM */
static char *_32bbc074dfd40e0a9b05d2f13b97294ioWcJSj8M8oqYJCd[] = {
/* columns rows colors chars-per-pixel */
"50 58 238 2 ",
"   c None",
".  c #E9532B",
"X  c #E65739",
"o  c #E21A5B",
"O  c #DD1777",
"+  c #DE1C65",
"@  c #E51E6E",
"#  c #E21372",
"$  c #E61A73",
"%  c #DE2C68",
"&  c #DC3664",
"*  c #DF287C",
"=  c #DF3F7B",
"-  c #E72769",
";  c #E42979",
":  c #E53479",
">  c #E8346D",
",  c #E45846",
"<  c #E96448",
"1  c #EA774D",
"2  c #E97C59",
"3  c #E64C6E",
"4  c #D1696F",
"5  c #EA7A64",
"6  c #E46B77",
"7  c #E47779",
"8  c #A8BA2D",
"9  c #B3B92E",
"0  c #A6C825",
"q  c #A6C83A",
"w  c #B5CA34",
"e  c #BBD136",
"r  c #CFCE17",
"t  c #E9C716",
"y  c #F4CB18",
"u  c #EBD00C",
"i  c #D2D232",
"p  c #E9C22E",
"a  c #E9D529",
"s  c #E7D63D",
"d  c #EBD333",
"f  c #E2E039",
"g  c #F7E039",
"h  c #AABF48",
"j  c #DE855C",
"k  c #CF9244",
"l  c #E58D4D",
"z  c #EB9858",
"x  c #EB8E56",
"c  c #CCB44C",
"v  c #E6B848",
"b  c #E8B552",
"n  c #DB937C",
"m  c #EB8667",
"M  c #E99569",
"N  c #EA8874",
"B  c #E89678",
"V  c #F09D61",
"C  c #DDA969",
"Z  c #C8B361",
"A  c #EBAB6A",
"S  c #EAA777",
"D  c #EABB77",
"F  c #F3B378",
"G  c #F1A979",
"H  c #A7C847",
"J  c #B3CF46",
"K  c #B9CB49",
"L  c #BCD24A",
"P  c #AFCE5D",
"I  c #BBCC58",
"U  c #B8D156",
"Y  c #B4CC67",
"T  c #BBD468",
"R  c #AECB63",
"E  c #DEC745",
"W  c #C4D54C",
"Q  c #C6C758",
"!  c #C5D555",
"~  c #C8D855",
"^  c #D6D75D",
"/  c #CFC24F",
"(  c #EDCF48",
")  c #E6D847",
"_  c #E9C15A",
"`  c #E8D95D",
"'  c #F4D254",
"]  c #EBE444",
"[  c #C3C76D",
"{  c #CBD965",
"}  c #D5DA6A",
"|  c #C8D776",
" . c #D3DE7B",
".. c #D8DA74",
"X. c #D2C672",
"o. c #F3D376",
"O. c #EED46F",
"+. c #DAE078",
"@. c #DEE169",
"#. c #F2E569",
"$. c #DF2680",
"%. c #E32D83",
"&. c #E73A87",
"*. c #D75594",
"=. c #DF478C",
"-. c #E74489",
";. c #E5588F",
":. c #E64993",
">. c #E55898",
",. c #DE698D",
"<. c #D37097",
"1. c #E56489",
"2. c #E5639C",
"3. c #E96499",
"4. c #E47497",
"5. c #E95FA4",
"6. c #DC6FA1",
"7. c #E969A3",
"8. c #E878A8",
"9. c #EC7DB1",
"0. c #B2B3B9",
"q. c #B3A69F",
"w. c #D5968D",
"e. c #E99588",
"r. c #E98798",
"t. c #EB9997",
"y. c #EB8E87",
"u. c #C9A387",
"i. c #D9B999",
"p. c #CFB492",
"a. c #F1A38B",
"s. c #EDBB8C",
"d. c #ECA39A",
"f. c #EBB397",
"g. c #F0B790",
"h. c #D981AA",
"j. c #DA97AD",
"k. c #DD8AB4",
"l. c #D68BB3",
"z. c #D692B5",
"x. c #E886AD",
"c. c #EA97A8",
"v. c #F19CAB",
"b. c #EB85B4",
"n. c #E28BB5",
"m. c #E988B5",
"M. c #EC9DB3",
"N. c #ED95BD",
"B. c #EA9BBC",
"V. c #E598B7",
"C. c #D3ADAD",
"Z. c #ECA5A7",
"A. c #EAAABA",
"S. c #F0A5B7",
"D. c #EFBFB0",
"F. c #BDD79D",
"G. c #B6D7A9",
"H. c #B7DBBF",
"J. c #B8CFAD",
"K. c #C7D786",
"L. c #D1CE93",
"P. c #E7C788",
"I. c #F4C797",
"U. c #F2CB93",
"Y. c #D8E187",
"T. c #CFE096",
"R. c #D9E495",
"E. c #F4EB8E",
"W. c #E8E796",
"Q. c #ECE78F",
"!. c #C4D9A1",
"~. c #C6D5BC",
"^. c #D2C8B4",
"/. c #E3C3A8",
"(. c #ECD4AD",
"). c #E6CAB4",
"_. c #E9CDB6",
"`. c #E9CEB9",
"'. c #E6C8B9",
"]. c #ECD3BD",
"[. c #EDDAB3",
"{. c #F5C9AD",
"}. c #D4E3B4",
"|. c #D2E2A9",
" X c #E4ECB9",
".X c #F3F1BD",
"XX c #F2EDA8",
"oX c #B4B9D3",
"OX c #D8A9C5",
"+X c #D9B7D2",
"@X c #E5A8C6",
"#X c #F1A5C9",
"$X c #E5B9C9",
"%X c #E9B6D1",
"&X c #F3B6CE",
"*X c #F097C3",
"=X c #9AC6CF",
"-X c #A4CCC8",
";X c #BAD6C8",
":X c #ABCADB",
">X c #A9D3D7",
",X c #B8D3D6",
"<X c #95CBEA",
"1X c #9BD1EB",
"2X c #ACD5E7",
"3X c #B8D4E9",
"4X c #A1D5F0",
"5X c #B4DCF2",
"6X c #A0CCE7",
"7X c #BEE2F5",
"8X c #C9C2D5",
"9X c #CED1CC",
"0X c #E8C3CD",
"qX c #F3C8C2",
"wX c #EDD5C1",
"eX c #EFD8C1",
"rX c #F1DAC6",
"tX c #F1DDC9",
"yX c #E4C8D7",
"uX c #F5CAD7",
"iX c #E6D4DF",
"pX c #DAEAC1",
"aX c #CCE6D5",
"sX c #DBE3D3",
"dX c #EEEBD0",
"fX c #C2D7E7",
"gX c #DAD9E6",
"hX c #CFCDE1",
"jX c #F5CEE0",
"kX c #E5DBEB",
"lX c #F2D4E7",
"zX c #C8E3ED",
"xX c #D8E9E9",
"cX c #C9E6F4",
"vX c #DBECF5",
"bX c #DDF0F2",
"nX c #E4F1E8",
"mX c #E7E9EE",
/* pixels */
"                                                                                                    ",
"                                                                                                    ",
"                                                                                                    ",
"                                                                                                    ",
"                                      +.+.Y.XXQ.` s s )                                             ",
"                                dXY.{ +.R..XE.g t t p b D g.                                        ",
"                              nXR.} { +..XE.a u y _ G m X . , <                                     ",
"                          cXbX X{ ~ ~ Q.E.#.#.o.I.m X . < 5 N y.e.t.                                ",
"                        zXcXnX .L W } U.o.U.`.`.f.M m d.D.S.b.4.x.V.0X                              ",
"                      xX5XcX XW W c f.qXlXbXnXR.Y.XX.XtXv.3 - $ # O ;.B.                            ",
"                    lXfX5XxXR.K 2 c.%XlXcXaXT L } #.#.XXtXD.3 - # # O >.                            ",
"                    yXfX1XxXY.e.3.@X#XhX>XF.T } @.` V m B {.qX6 3 $ # O 8.                          ",
"                  OX+X3X1XsXf.3.5.b.9.+XzXpXY.R.XXXXI.f.v.S.uX{.t.v.3.$.$.7.                        ",
"                  V.%XfX1Xp.v.&.7.3.@XkXxX+.~ #.' g.a.qXt.- &.b.d.m M.B.*.-.                        ",
"                @Xk.@XgX>Xu.M.%.-.m.&XgXaXU X.F V 5 y.v.uXr.&.; >.6 1.7.@X9.>.                      ",
"                $Xk.n.yXT.B v.-.3.9.#XyX9X].uXuXuX&X3.%.: 7.8.7.-.: 7 7.7.OX@X                      ",
"                @Xn.b.v.O.V t.4.8.:.N.c.&X&XgX2X3XmXjX8.2.:.-.4.#X7.6 9.9.n.@X                      ",
"                @X9.8.r.b A m t.c.&.7.N.b.%X<X-X:X<XkXm.h.m.8.,.B.N.t.v.9.n.V.                      ",
"                n.x.3.r._ ` m m e.:.-.8.9.OX;XT.}.=X3X@XOX9.m.z.+Xm.Z.wX@Xn.n.                      ",
"                =.A.3.7 [ a F N 2 x.;.-.b.l.,X}.K.~.<X$X;X,Xm.$X3X+XC.9XiXOXz.                      ",
"                %.6.N.4 Q f ] b x m c.-.&.7.*.j.9X2X6X^.F.6XOXi.H.3XC.-X2XgX@X                      ",
"                =.$.N.B 9 e ] ) p V m 7 3.b.m.;.j.p.p.@.J J.3XX.{ 2X9X;X<X3XyX                      ",
"                >.# : c.Z 0 ~ ^ W ) O.v l B a.B x 1 b ^ H F.;XX.J !.~.sX4X5XgX                      ",
"                >.# # > w.Y w U 0 i ^ R.I u.C.w.x v ) { J F.p.` L { K.}.zX5XxX                      ",
"                B.%.# - & 0.G.K.P H T ~.xX3XOX6.1.e.P.h k w.M ) W H Q R.xX5XzX                      ",
"                  n.* $ + 4 =X,XaXG.=X:XhX%XV.x.8.x.1.% - r.x ) W H L Y.bX7X                        ",
"                  Z.c.3.%.& <.oXfXvX:X0.<.*.,.-.o % + % x.5 z s K U J R.nXcX                        ",
"                    5 t.A.S.V.h.8.n.%X%Xl.6.=.* : = 4.r.5 1 v i Y.U q K.bX                          ",
"                    < X X 2 a.S.<.6.9.B.*X7.3.B S e.t.N < 2 v ) R.H q T.bX                          ",
"                      N < . . m Z.,.&.: $ ; B L w k X X X N O.f  .H H |.                            ",
"                        P.G G G U.(.e.3 , j / 8 8 h C B g.O.a a | q P                               ",
"                          d p t y u g #.E.Y.! l A | U ) a u r ^ Y H                                 ",
"                            ) a y t d #.+.U k x l L.I 0 r i { [ P                                   ",
"                                +.o...! 0 9 C s.G u.J.R H [ |                                       ",
"                                    U q H Z D s s p.0.;X!.                                          ",
"                                        L./.(.(.[.].).                                              ",
"                                          `.].].rXrX].                                              ",
"                                          {.`.].eXtX].                                              ",
"                                          `.)._.].tX].                                              ",
"                                          `._._.].tXrX                                              ",
"                                          `._.).].rX].                                              ",
"                                          `._.).].tX].                                              ",
"                                          `._.).].rX].                                              ",
"                                          `._.).`.eXwX                                              ",
"                                          `.).).].wX].                                              ",
"                                          `._.).`.wXwX                                              ",
"                                          ].'.).`.wXwX                                              ",
"                                          `.).).`.wXwX                                              ",
"                                          `.).)._.].].                                              ",
"                                          `.).).).].`.                                              ",
"                                          ).).).).]._.                                              ",
"                                          ).).).).).).                                              ",
"                                          i././././.                                                ",
"                                                                                                    ",
"                                                                                                    ",
"                                                                                                    ",
"                                                                                                    ",
"                                                                                                    "
};
