/* XPM */
static char *c024ab6e845b4058e5dd304d2e540694sJSCWOsMEep64XN9[] = {
/* columns rows colors chars-per-pixel */
"50 50 200 2 ",
"   c None",
".  c #191C1F",
"X  c #1C1D20",
"o  c #1E2927",
"O  c #222627",
"+  c #242629",
"@  c #262A2D",
"#  c #2A2E2F",
"$  c #262627",
"%  c #362C2B",
"&  c #26302F",
"*  c #28302C",
"=  c #262E31",
"-  c #292E31",
";  c #263032",
":  c #293335",
">  c #5A1F02",
",  c #5C2206",
"<  c #5A2208",
"1  c #592D1D",
"2  c #612105",
"3  c #742904",
"4  c #772E0B",
"5  c #7C300C",
"6  c #6E2E16",
"7  c #6D2E18",
"8  c #712D15",
"9  c #7C3617",
"0  c #512D22",
"q  c #452D23",
"w  c #77513B",
"e  c #744733",
"r  c #384D53",
"t  c #324546",
"y  c #455B5D",
"u  c #6D5141",
"i  c #7F5D50",
"p  c #764C42",
"a  c #526C6F",
"s  c #55747B",
"d  c #5A727B",
"f  c #5A787E",
"g  c #56767B",
"h  c #647C7C",
"j  c #767C75",
"k  c #736D64",
"l  c #853917",
"z  c #8C401D",
"x  c #91421C",
"c  c #99441C",
"v  c #8D442A",
"b  c #8E4324",
"n  c #954522",
"m  c #944A25",
"M  c #9A4B24",
"N  c #9E4E2A",
"B  c #984422",
"V  c #9B502D",
"C  c #9C583B",
"Z  c #A14D29",
"A  c #AD552B",
"S  c #AE592D",
"D  c #A4562D",
"F  c #B2562C",
"G  c #B1592D",
"H  c #AC5932",
"J  c #A75936",
"K  c #B25632",
"L  c #B35931",
"P  c #B75E38",
"I  c #A2643D",
"U  c #BD6236",
"Y  c #BC633C",
"T  c #B4623B",
"R  c #C46434",
"E  c #C5663A",
"W  c #C3693E",
"Q  c #CC6E3E",
"!  c #CF703F",
"~  c #D7723D",
"^  c #D76E3F",
"/  c #945C4A",
"(  c #8B5E4B",
")  c #A15E45",
"_  c #9C664A",
"`  c #A96446",
"'  c #BC6642",
"]  c #BB6A46",
"[  c #B56646",
"{  c #B67657",
"}  c #B36E53",
"|  c #817471",
" . c #9A7B76",
".. c #9C7963",
"X. c #BA7B67",
"o. c #AE7B68",
"O. c #C46B44",
"+. c #CB6E43",
"@. c #C86D49",
"#. c #D26F42",
"$. c #CD7244",
"%. c #CD764A",
"&. c #D37244",
"*. c #DC7545",
"=. c #D47449",
"-. c #DC7549",
";. c #D97946",
":. c #C77655",
">. c #E47B45",
",. c #E07747",
"<. c #C57D62",
"1. c #708074",
"2. c #BA856F",
"3. c #CB8856",
"4. c #D7955E",
"5. c #FB8546",
"6. c #FB8947",
"7. c #F2854B",
"8. c #FB8549",
"9. c #FA8A4A",
"0. c #F48346",
"q. c #F18E51",
"w. c #FA995B",
"e. c #E98F52",
"r. c #FAA15C",
"t. c #C1836B",
"y. c #D9A36C",
"u. c #DDA971",
"i. c #D3A670",
"p. c #CEA773",
"a. c #EBAC6C",
"s. c #E7A468",
"d. c #F4A963",
"f. c #E7AC71",
"g. c #F8B472",
"h. c #547A82",
"j. c #5A7982",
"k. c #3D8F91",
"l. c #558B8C",
"z. c #558589",
"x. c #528B90",
"c. c #459596",
"v. c #559395",
"b. c #549A9C",
"n. c #539799",
"m. c #688788",
"M. c #7A8C8A",
"N. c #66918F",
"B. c #668A92",
"V. c #6C959D",
"C. c #6C999A",
"Z. c #669798",
"A. c #779796",
"S. c #778F98",
"D. c #6BA198",
"F. c #6B95A0",
"G. c #629CA2",
"H. c #699BA4",
"J. c #53A4A3",
"K. c #55AAAC",
"L. c #55A5A5",
"P. c #5BBDBD",
"I. c #55ACAE",
"U. c #64A2AB",
"Y. c #67A4A9",
"T. c #76A1A0",
"R. c #65ACB2",
"E. c #63B3B6",
"W. c #63B7BC",
"Q. c #62BABC",
"!. c #69B7BB",
"~. c #5ABDC2",
"^. c #61BBC3",
"/. c #5ECECE",
"(. c #59C3C3",
"). c #5FD0CC",
"_. c #5ECED1",
"`. c #5BD3D2",
"'. c #5DD6DA",
"]. c #5DDCDD",
"[. c #59DBD8",
"{. c #62C1C6",
"}. c #63CCCC",
"|. c #67C7C8",
" X c #74CFCF",
".X c #62D0CE",
"XX c #62CDD1",
"oX c #61D1D2",
"OX c #63D5D9",
"+X c #62D9DA",
"@X c #57E1DD",
"#X c #5DDFE2",
"$X c #61DFE0",
"%X c #5AE3E2",
"&X c #5CE6E9",
"*X c #8A8D8D",
"=X c #8C8E93",
"-X c #AF9187",
";X c #B39589",
":X c #D6C2B4",
/* pixels */
"                                                                                                    ",
"                                                                                                    ",
"                                                                                                    ",
"                                      C.c.[.'.OX|...q.s.H #. .                                      ",
"                                  A.(.W.W.^.{.M._ 0.d.%.S *.M 2.                                    ",
"                              T.K.XX`.Y.C.z.K.p 0.w.s.$.F *.A $.2.                                  ",
"                            V.].E.V.Y.!.r : $ 9 0.g.L &.A *.A $.k A.                                ",
"                          C.!.G.|.z.y . = # q ~ 5.g.G *.F *.A &.8 D.A.                              ",
"                        C.~.F.V.z.t @ - # - 1 ~ w.4.G ;.G -.A *.5 j P.C.                            ",
"                        K.`.E.j.O - # - - % H 5.r.3.G >.F #.A -.L C |.L.                            ",
"                      m./.F.v.: - - - - : % H 5.r.3.S ~ F +.D *.F J S.}.M.                          ",
"                      (.Z.S.y - - - - - - 0 Q 6.r.3.S ;.F #.A *.F ' j H.P.                          ",
"                    N.~.+XG.X # - - - - # 7 8.6.a.@.L =.F *.A *.F $.1.OX~.N.                        ",
"                    c.E.C.r - - - - - - - 6 8.9.a.O.L $.S *.A *.G *.e x.~.k.                        ",
"                    b.R.S.t # # - - - - - 8 0.7.y.P F &.S ! A ~ F -.2 j.!.c.                        ",
"                    $X/.b.O & : - - - - @ 6 >.R R P n J S $.A $.F +.< J.}.].                        ",
"                    '.R.z.+ # - - - - - - 6 Q ~ +.:.;.=.c M Z O.K $., l.R.[.                        ",
"                    }.V.d O : - - - - - - 8 >.U N o.] X.;.;.R U n D , f Z._.                        ",
"                    [.R.z.o ; - - - = - # 6 8.>.m l l ) ` X.@.{ ;.*.l m.R.'.                        ",
"                    #XXXb.O - ; - - - - - 6 8.9.f.J m x 3 v N X.] X.[ Y.}.[.                        ",
"                    }.C.d O - # - - - - - 6 8.9.a.O.G Q Z A 9 l 9 _ V h V.}.                        ",
"                    `.Z.g + - - - - - - - 7 8.9.a.O.K $.L $.S U c x , g F._.                        ",
"                    &X$XL.+ # - - @ = - - 6 8.9.a.[ K $.G &.S $.G +.< K.].%X                        ",
"                    }.V.g o - = - - - - - 6 8.9.u.| I $.S *.A &.H &.< h.V._.                        ",
"                    oXV.d O = - - - - - - 7 8.9.p.=X_ %.S ,.F +.F *., h.F.XX                        ",
"                    &XoXJ.O : # - - - - - 7 8.9.f.k J *.H *.A *.G -.2 L.`.%X                        ",
"                    OXY.h.+ - # - - - - - 7 8.9.a.w K *.A *.A *.F -.< j.U.`.                        ",
"                    }.F.g + ; ; - - - : # 6 8.9.a.w H *.G +.F *.K -.< j.F.`.                        ",
"                    +XW.x.+ - # - - - - - 6 8.9.a.w H *.G &.F #.F ;., v.W.'.                        ",
"                    %X{.v.$ - & - - - - - 6 8.9.f.u H -.L *.F +.G *.2 b.(.[.                        ",
"                    .XV.d + - # = - - - - 6 8.9.i.*X` =.F *.A =.G ,., f V..X                        ",
"                    `.G.h.+ - = - - - - - 7 8.9.i.*X_ $.F *.F *.F ;.2 h.H.`.                        ",
"                    &XOXL.+ - - = - - - - 7 8.9.f.( H &.S #.A ;.F &.< K.OX%X                        ",
"                    XXF.d $ # - - - - - # 6 8.9.a.+.G *.S $.A $.F $., f V._.                        ",
"                    oXZ.s $ - - - - - - - 6 8.9.a.$.K *.F $.S W Z T M k V./.                        ",
"                    &XOXJ.+ - - - - - - # 7 8.9.a.' G &.A T x @.^ $.W e  X%X                        ",
"                    OXG.g O # ; - - - - - 6 5.9.a.P Z U G &.,.:.] 2.J i F._.                        ",
"                    }.V.d O - # - - - - - 8 7.E I U ~ :.&.t.[ } v z 2 h F.XX                        ",
"                    ].{.v.+ # # # ; - - ; 6 +.&.>.<.] X.C J 3 3 l N < b.^.].                        ",
"                    ].^.l.O - : # # # # - 7 ! $.' { v v 3 5 M Y G -.2 n.W.].                        ",
"                    oXC.d O & # - - - - # 8 7.E 3 3 z N S *.A *.F -., f F.XX                        ",
"                    Q.B.a O - @ @ @ # @ @ 8 5.8.4.P G *.G *.A ,.G $.< d B.P.                        ",
"                                          ( 8.9.f.@.L ,.F ! A &.G O.                                ",
"                                          -X8.9.f.+.G *.S $.A +./                                   ",
"                                          -X8.9.a.@.L &.S $.n                                       ",
"                                          -X8.9.a.' L #.H }                                         ",
"                                          -X8.8.a.[ L W                                             ",
"                                          -X8.9.a.[ /                                               ",
"                                          :XY E 3.;X                                                ",
"                                                                                                    "
};
