/* XPM */
static char * C:\Users\Bryan\42\test\img\player_down_xpm[] = {
"50 50 150 2",
"  	c None",
". 	c #D3D3D3",
"+ 	c #B9B9B6",
"@ 	c #B3BABC",
"# 	c #A3A4A4",
"$ 	c #ABAEB0",
"% 	c #B4B5B4",
"& 	c #DCDCDB",
"* 	c #A2A9AC",
"= 	c #B6C1C5",
"- 	c #BAC5C9",
"; 	c #B3BEC2",
"> 	c #B0AFAD",
", 	c #A6AEB2",
"' 	c #B8C2C7",
") 	c #AAB2B6",
"! 	c #BEBEBD",
"~ 	c #AEB9BD",
"{ 	c #73797C",
"] 	c #7E8689",
"^ 	c #C6C5C5",
"/ 	c #4F5152",
"( 	c #2A2A2A",
"_ 	c #454848",
": 	c #9BA2A7",
"< 	c #9C938B",
"[ 	c #BDA08F",
"} 	c #D9B6A1",
"| 	c #E5C1AD",
"1 	c #CDAB98",
"2 	c #AD9A92",
"3 	c #979593",
"4 	c #FDD3BC",
"5 	c #E2DFDF",
"6 	c #9FA8AB",
"7 	c #D5B5A3",
"8 	c #F2C9AF",
"9 	c #A6B0B3",
"0 	c #CCCCCB",
"a 	c #92979A",
"b 	c #DEB79B",
"c 	c #CBA286",
"d 	c #F5CCB4",
"e 	c #CBA38B",
"f 	c #E4BCA3",
"g 	c #A29792",
"h 	c #988B86",
"i 	c #B09790",
"j 	c #F7CFB8",
"k 	c #DEBFAE",
"l 	c #D8D7D7",
"m 	c #99837D",
"n 	c #8F7468",
"o 	c #B1A7A3",
"p 	c #C0BFBE",
"q 	c #C1A99E",
"r 	c #C8B5AB",
"s 	c #E5E0DE",
"t 	c #776355",
"u 	c #F9CDB6",
"v 	c #E3C5B4",
"w 	c #E1D7D2",
"x 	c #A3847A",
"y 	c #EDC5B2",
"z 	c #A9A9A5",
"A 	c #F9C3B6",
"B 	c #FCCCB9",
"C 	c #ABA7A4",
"D 	c #838787",
"E 	c #929A9D",
"F 	c #F1C7AF",
"G 	c #E9B9A5",
"H 	c #949EA1",
"I 	c #8F9698",
"J 	c #F0C5B1",
"K 	c #E5BFAB",
"L 	c #D29E89",
"M 	c #D28D7E",
"N 	c #D19681",
"O 	c #DFB9A5",
"P 	c #ADB7BB",
"Q 	c #8F7D70",
"R 	c #FAC3AB",
"S 	c #F5B399",
"T 	c #898988",
"U 	c #97A0A3",
"V 	c #9CA4A9",
"W 	c #7C706A",
"X 	c #C9A694",
"Y 	c #BD9C89",
"Z 	c #72645B",
"` 	c #82888B",
" .	c #847E7B",
"..	c #8F847D",
"+.	c #666953",
"@.	c #6B6F64",
"#.	c #67695E",
"$.	c #61644F",
"%.	c #827F75",
"&.	c #5F624D",
"*.	c #686C55",
"=.	c #515348",
"-.	c #4F5145",
";.	c #ADADAB",
">.	c #5A5C45",
",.	c #565946",
"'.	c #FAFAFA",
").	c #525544",
"!.	c #8B8A85",
"~.	c #7B7D76",
"{.	c #FBFBFA",
"].	c #5A5C49",
"^.	c #9C9B95",
"/.	c #89897F",
"(.	c #4B4D3D",
"_.	c #636552",
":.	c #45473A",
"<.	c #8F908B",
"[.	c #F9F9F9",
"}.	c #83837B",
"|.	c #434435",
"1.	c #767565",
"2.	c #4A4C30",
"3.	c #34362B",
"4.	c #919189",
"5.	c #3B3D2F",
"6.	c #6B6C5C",
"7.	c #71715C",
"8.	c #2E3026",
"9.	c #DBD8D6",
"0.	c #EDEDEB",
"a.	c #695C52",
"b.	c #525332",
"c.	c #5B5C3A",
"d.	c #56583B",
"e.	c #6D6758",
"f.	c #646544",
"g.	c #59573C",
"h.	c #625547",
"i.	c #61633C",
"j.	c #504E30",
"k.	c #AB8F7E",
"l.	c #D2BEB5",
"m.	c #E5E4E4",
"n.	c #C1A08D",
"o.	c #5E5232",
"p.	c #9E9D9C",
"q.	c #4F4F2F",
"r.	c #5F603B",
"s.	c #989798",
"                                                                                                    ",
"                                            . + @ # $ % &                                           ",
"                                          * = - - ; - - ; >                                         ",
"                                        , - - ' , , ) - - ' )                                       ",
"                                      ! - - ; ~ { { ] ) ; - = ^                                     ",
"                                      , - ' * / ( ( ( _ : ' - *                                     ",
"                                    & ' - * < [ } | | 1 2 : - )                                     ",
"                                    ^ - = 3 4 4 4 4 4 4 4 2 ' ' 5                                   ",
"                                    % - 6 7 4 4 4 4 4 8 8 | 9 - 0                                   ",
"                                    @ - a b c c d 4 b c e f # - .                                   ",
"                                    @ - g h 0 i j 4 k l m n o - p                                   ",
"                                    @ ; q r s t | u v w x y o - z                                   ",
"                                    @ = q A B 4 4 u B 4 A A C - D                                   ",
"                                    E - g A A B F G d B A B # - H                                   ",
"                                    H = I J B K L M N | B O P ; ~                                   ",
"                                    H ; ~ Q d 4 R S R 4 y T - ; l                                   ",
"                                    U V ' I W X j 4 j Y Z ~ ; ^                                     ",
"                                    . ) ) ~ V `  .....{ P P -                                       ",
"                                      0 E = - = ) 9 P P ~ @ I                                       ",
"                                      C +.@.E * P P ; ) E #.$.^                                     ",
"                                      %.+.&.*.+.=.. -.+.+.&.+.;.                                    ",
"                                      >.+.,.*.*.-.'.=.*.*.).*.!.                                    ",
"                                      ,.+.,.*.*.~.{.].*.*.).*.$.                                    ",
"                                      &.&.&.*.*.!.{.#.*.*.].+.).                                    ",
"                                      $.+.-.+.+.^.{./.*.+.(.*.&.                                    ",
"                                      _.+.:.].$.;.{.!.&.,.(.+.&.                                    ",
"                                      &.+.(.*.*.@ {.<.+.+.(.+.,.                                    ",
"                                      ,.&.&.*._.^ [.z +.*.).+.*.                                    ",
"                                      }.,.&.*.$.3 + ~._.*.).+.!.                                    ",
"                                      }.,.|.,.]._.1.2.$.,.3._.4.                                    ",
"                                      ^ 5.3.:.].6.7.>.$.:.8.|.9.                                    ",
"                                      0.a.b.c.d.e.f.c.g.c.|.h.                                      ",
"                                        O b.i.i.b.j.c.i.i.k.l.                                      ",
"                                      m.O b.i.i.c.  i.i.i.k.n.                                      ",
"                                        m g.i.i.b.  i.i.i.t s                                       ",
"                                        m.j.i.i.o.  c.i.i.!.                                        ",
"                                          /.i.i.4.  b.i.i.%                                         ",
"                                          p.i.i.^.  q.i.i.                                          ",
"                                          C i.i.^.  q.i.i.                                          ",
"                                          > i.i.^.  b.i.i.                                          ",
"                                          % i.r.>   1.i.c.                                          ",
"                                          9.b.c.0   z c.2.                                          ",
"                                            2.2.0.  0 c.}.                                          ",
"                                          & z T     & s.>                                           ",
"                                          s.z . 0   0 ^ z %                                         ",
"                                        ^ & 5 ! p   ;.0 m.0 l                                       ",
"                                        ^ p.# !       ;.# p.0                                       ",
"                                                                                                    ",
"                                                                                                    ",
"                                                                                                    "};
