/* XPM */
static char * C:\Users\Bryan\42\test\img\player_right_xpm[] = {
"50 50 160 2",
"  	c None",
". 	c #CFD1D1",
"+ 	c #A7B1B4",
"@ 	c #9EA8AB",
"# 	c #A2AAAD",
"$ 	c #B1BABD",
"% 	c #C2C4C4",
"& 	c #E7E8E8",
"* 	c #A9AFB2",
"= 	c #B6C1C5",
"- 	c #BAC5C9",
"; 	c #AAB2B6",
"> 	c #9DA6A9",
", 	c #B1B7B9",
"' 	c #A4ADB1",
") 	c #ABB5B9",
"! 	c #9BA4A7",
"~ 	c #5A5F60",
"{ 	c #46484A",
"] 	c #494D49",
"^ 	c #8B9192",
"/ 	c #BAC3C6",
"( 	c #BBBBBB",
"_ 	c #B3BEC2",
": 	c #3D3938",
"< 	c #282828",
"[ 	c #232223",
"} 	c #373736",
"| 	c #8C989A",
"1 	c #716F6E",
"2 	c #B79584",
"3 	c #E3BCA5",
"4 	c #FDD3BC",
"5 	c #CBAB9B",
"6 	c #8B8D8B",
"7 	c #F3CBB5",
"8 	c #A4A5A4",
"9 	c #C5A594",
"0 	c #FCCDB9",
"a 	c #DEB79D",
"b 	c #D5AD96",
"c 	c #EBEBEB",
"d 	c #8C9598",
"e 	c #E7BEAA",
"f 	c #D0A88D",
"g 	c #CBA488",
"h 	c #8F7669",
"i 	c #CBCCCC",
"j 	c #D5B19C",
"k 	c #87736E",
"l 	c #C7BABA",
"m 	c #858683",
"n 	c #AEB8BC",
"o 	c #A59996",
"p 	c #948177",
"q 	c #B5A9A6",
"r 	c #CEC3BD",
"s 	c #D6C7C1",
"t 	c #DBB4A4",
"u 	c #A89D97",
"v 	c #F1C2B1",
"w 	c #DAC5BA",
"x 	c #DBC9C2",
"y 	c #FBCAB6",
"z 	c #EBB6AB",
"A 	c #A09897",
"B 	c #F8C2B5",
"C 	c #F1C4AE",
"D 	c #E7B5A3",
"E 	c #EBBCAA",
"F 	c #F4BFB5",
"G 	c #D8A692",
"H 	c #C69284",
"I 	c #B9A197",
"J 	c #939B9D",
"K 	c #FAD0B6",
"L 	c #B29C93",
"M 	c #9A9190",
"N 	c #928383",
"O 	c #C18E7E",
"P 	c #B99B8C",
"Q 	c #C7C9C8",
"R 	c #A2A19E",
"S 	c #EDA48F",
"T 	c #DDBCA8",
"U 	c #828A88",
"V 	c #978B85",
"W 	c #D5B4A1",
"X 	c #949593",
"Y 	c #D6D9D9",
"Z 	c #827F7E",
"` 	c #5A5E5F",
" .	c #B7ADA8",
"..	c #C9C6C3",
"+.	c #DAD7D5",
"@.	c #DEB8A4",
"#.	c #D3AF9D",
"$.	c #DFE0E0",
"%.	c #63665A",
"&.	c #6D716B",
"*.	c #EAC4AE",
"=.	c #E2E2E1",
"-.	c #5B5E4B",
";.	c #686C55",
">.	c #5D6152",
",.	c #5D5F51",
"'.	c #555848",
").	c #666A53",
"!.	c #636751",
"~.	c #DBDBDB",
"{.	c #ABABAA",
"].	c #424539",
"^.	c #B19689",
"/.	c #68685B",
"(.	c #717269",
"_.	c #515443",
":.	c #C9C8C6",
"<.	c #61644E",
"[.	c #4A4D3C",
"}.	c #3B3C2C",
"|.	c #8F908B",
"1.	c #555846",
"2.	c #F2F2F2",
"3.	c #858883",
"4.	c #5E614C",
"5.	c #9A9A96",
"6.	c #767973",
"7.	c #B4B5B5",
"8.	c #666A60",
"9.	c #F9F9F9",
"0.	c #D5D5D4",
"a.	c #5C5D43",
"b.	c #92958F",
"c.	c #84857C",
"d.	c #B9B9B7",
"e.	c #ADB0AF",
"f.	c #787874",
"g.	c #4E4E37",
"h.	c #3F402F",
"i.	c #33362A",
"j.	c #747565",
"k.	c #7F7F6B",
"l.	c #B69989",
"m.	c #D0CCC9",
"n.	c #3A423E",
"o.	c #707154",
"p.	c #535434",
"q.	c #4E5035",
"r.	c #D0B8AC",
"s.	c #424432",
"t.	c #5A5A36",
"u.	c #636540",
"v.	c #61633C",
"w.	c #808075",
"x.	c #5F613B",
"y.	c #575936",
"z.	c #5C5D3A",
"A.	c #8A8A84",
"B.	c #7C7A74",
"C.	c #C3C1BF",
"                                                                                                    ",
"                                      . + @ @ # $ % &                                               ",
"                                    * = - - - - ; > # ,                                             ",
"                                  ; - - - - - = ' ) ) - #                                           ",
"                                $ - - - - - = ! ~ { ] ^ / (                                         ",
"                                ! - - - - _ ! : < [ : } | +                                         ",
"                                ' - - - - > 1 2 3 4 4 4 5 _ %                                       ",
"                                ; - - - = 6 7 4 4 4 4 4 4 8 #                                       ",
"                                # - - - ' 9 4 4 4 4 0 a b 9 ; c                                     ",
"                                > - - - d e f g e 4 a b 9 h + i                                     ",
"                                @ - - $ ^ j 9 2 7 4 7 k l m ! /                                     ",
"                                $ - - n o p q o r 4 e s s t ^ ,                                     ",
"                                i - - n u v w x v 4 e 4 y z ^ ,                                     ",
"                                . - - = A B B 0 4 C D E y z | >                                     ",
"                                i _ = - | F B v 3 G H I 7 e # J                                     ",
"                                - - > - n t 0 K L M N O 4 P n n                                     ",
"                                Q = $ > - R 0 4 4 G S y T U _ $                                     ",
"                                / - ) _ _ _ V 5 e 7 7 W X ! n @                                     ",
"                                Y @ / ! ' - _ ^ Z Z ` m ! = n _          .P ..                      ",
"                                    % > ) @ _ - _ _ ; _ _ ) |         +.@.P #.$.                    ",
"                                    & U %.^ ' _ = = $ ' J &.;         i *.j 2 =.                    ",
"                                  Q -.;.;.;.;.>.%.U 8 ,.'.).!.    ~.{.].^.T ~.                      ",
"                                8 -.;.;.;.!.;.;./.(.$.-.!._.).8 :.-.<.[.}.$.                        ",
"                              |.!.;.;.!._.!.;.;.;.1.2./.).<.'.].-.).!.<.#                           ",
"                            3.).;.;.!.] <.;.;.;.;.4.=.5.;.).[.4.;.!.4.6.                            ",
"                          7.).).4.4.|.c 1.;.;.;.;.).i ( ;.<.[.;.;.;.6.                              ",
"                          7.;.;.!.U     6 ;.4.4.).!.( $.1.[.-.).4.{.                                ",
"                          c -.;.).8.    7.;.;.4.-.<.{.9.%.).6 8 0.                                  ",
"                            X !.!.a.$.    ;.;.<.;.;.b.9.5.).5.                                      ",
"                            % <.).!.(     ;.;.<.;.).c.9.d.!.>.                                      ",
"                              '.4.1.e.    ).).).;.)._.f.g.'.h.                                      ",
"                              Y i.[.6.    _.;.).).)._.j.k._.].&                                     ",
"                                7.l.K T m.n.[.[.g.[.-.j.o.p.q.:.                                    ",
"                                  r.4 7 u J s.h.s.g.t.<.u.v.v.(.                                    ",
"                                  +.t l...  w.x.v.v.v.}.y.v.v.z.i                                   ",
"                                            i v.v.v.z.i 4.v.v.v.c.                                  ",
"                                            =.z.v.v.z.  :.t.v.v.z.Y                                 ",
"                                              p.v.v.z.    u x.v.v.b.                                ",
"                                              c.v.v.t.      (.v.v.p.                                ",
"                                              8 y.v.t.      :.v.v.x.0.                              ",
"                                            i p.x.v.y.        p.v.v.8                               ",
"                                          ~.z.v.v.x.A.        A.v.v.c.                              ",
"                                          /.x.v.x.A.          0.y.x.c.                              ",
"                                        7.y.z.t.5.              R z.m                               ",
"                                      {.X a.B.:.                c B.* {.                            ",
"                                    ( 2.7.{.                    c l % i % 7.                        ",
"                                    A =.i {.                      C.m.Y i ( Y                       ",
"                                    0.i $.Y m.                    7.( 7.C.~.                        ",
"                                      7.( ( 8                                                       ",
"                                        =.+.                                                        "};
