/* XPM */
static char * C:\Users\Bryan\42\test\img\player_right2_xpm[] = {
"50 50 160 2",
"  	c None",
". 	c #DBDCDB",
"+ 	c #C3C9C4",
"@ 	c #BBC3C4",
"# 	c #D4DAD8",
"$ 	c #9FA8AB",
"% 	c #B3BDC1",
"& 	c #BAC5C9",
"* 	c #A2AAAD",
"= 	c #BBBCBA",
"- 	c #E6E8E6",
"; 	c #A5AEB2",
"> 	c #E4E4E3",
", 	c #ABB6BA",
"' 	c #A9B2B5",
") 	c #ABAFB0",
"! 	c #828A8D",
"~ 	c #6D7373",
"{ 	c #A9B4AB",
"] 	c #C8DCC9",
"^ 	c #9AA4A6",
"/ 	c #959EA1",
"( 	c #595D57",
"_ 	c #2B2C2C",
": 	c #4F5354",
"< 	c #EBECEB",
"[ 	c #A7B1B5",
"} 	c #B6C1C5",
"| 	c #8E9799",
"1 	c #AD958A",
"2 	c #C3A390",
"3 	c #CCAC9C",
"4 	c #C9A897",
"5 	c #B29684",
"6 	c #6F5E56",
"7 	c #7C8286",
"8 	c #AEB9BD",
"9 	c #D6DAD6",
"0 	c #D0A9A0",
"a 	c #FDD3BC",
"b 	c #BA9E91",
"c 	c #CDD1CD",
"d 	c #9F9791",
"e 	c #ECC3AA",
"f 	c #BCC2BD",
"g 	c #D6B4A2",
"h 	c #D4AC8F",
"i 	c #C09E88",
"j 	c #E5B09B",
"k 	c #F4CAB3",
"l 	c #9B9D9A",
"m 	c #937D74",
"n 	c #C1BFBC",
"o 	c #B69E94",
"p 	c #DAB6A2",
"q 	c #B5937D",
"r 	c #BE9F8E",
"s 	c #9EA6AA",
"t 	c #C7AEA1",
"u 	c #D7B8A6",
"v 	c #D3C4BF",
"w 	c #87706A",
"x 	c #C2AA9D",
"y 	c #FCCDBA",
"z 	c #CBCBCA",
"A 	c #BFAFAD",
"B 	c #666766",
"C 	c #A4A5A3",
"D 	c #DFBAA6",
"E 	c #DEBEAD",
"F 	c #D7AE9B",
"G 	c #D4D4D4",
"H 	c #DAADA3",
"I 	c #F7B9A2",
"J 	c #F9C3B5",
"K 	c #E6BBA6",
"L 	c #F6CEB9",
"M 	c #A48D84",
"N 	c #DCE0DC",
"O 	c #837F7E",
"P 	c #C77A67",
"Q 	c #E3BDAB",
"R 	c #8B9294",
"S 	c #929A9D",
"T 	c #91867F",
"U 	c #B2BBBB",
"V 	c #767774",
"W 	c #6C836C",
"X 	c #A49A95",
"Y 	c #534E45",
"Z 	c #5A6757",
"` 	c #607F71",
" .	c #555A46",
"..	c #565A4B",
"+.	c #5D614C",
"@.	c #686C55",
"#.	c #686D64",
"$.	c #868C82",
"%.	c #666A53",
"&.	c #848782",
"*.	c #54564A",
"=.	c #5C5D46",
"-.	c #636751",
";.	c #525543",
">.	c #8E9389",
",.	c #61644E",
"'.	c #4F5240",
").	c #64665B",
"!.	c #898A82",
"~.	c #A4A8A2",
"{.	c #5A5C4A",
"].	c #8E8E89",
"^.	c #7B8676",
"/.	c #9FA49E",
"(.	c #4D4E3C",
"_.	c #6C7361",
":.	c #81847B",
"<.	c #FAFAFA",
"[.	c #B1B1AE",
"}.	c #424436",
"|.	c #464838",
"1.	c #97A292",
"2.	c #878576",
"3.	c #B6B9B3",
"4.	c #464639",
"5.	c #39392B",
"6.	c #7B7B64",
"7.	c #A2A29E",
"8.	c #363C2E",
"9.	c #A49888",
"0.	c #EDF1EC",
"a.	c #CBC6B6",
"b.	c #CBB3A1",
"c.	c #5B5C3A",
"d.	c #575836",
"e.	c #535535",
"f.	c #54553A",
"g.	c #727358",
"h.	c #61633C",
"i.	c #999B96",
"j.	c #D2D9C1",
"k.	c #8F967E",
"l.	c #41412C",
"m.	c #595B37",
"n.	c #B2B59F",
"o.	c #CBCFB9",
"p.	c #D1CAC6",
"q.	c #C0BAB6",
"r.	c #B6B5B3",
"s.	c #A5A091",
"t.	c #E1E1D9",
"u.	c #767769",
"v.	c #DBDAD6",
"w.	c #5F613B",
"x.	c #ADAEAC",
"y.	c #95948E",
"z.	c #676B5B",
"A.	c #959595",
"B.	c #D3CECC",
"C.	c #C3C4C3",
"                                              . + @ #                                               ",
"                                          + $ % & & % * = -                                         ",
"                                        = % & & & & & & % ; %                                       ",
"                                      > , & & & & & & % ; ; ' )                                     ",
"                                      = & & & & % % % ! ~ ! ) % {                                   ",
"                                    ] ^ & & & & % / ( _ _ _ : , ^                                   ",
"                                    < [ & & & } | 1 2 3 4 5 6 7 8 >                                 ",
"                                    9 } & & & / 0 a a a a a a b & c                                 ",
"                                    c & & & ' d a a a a a a a e 8 f                                 ",
"                                    + & & % / g h i j a a e e k [ @                                 ",
"                                    } } & % l m n o p a k q q r s @                                 ",
"                                    ^ & & ; t u v w x y e z A B C @                                 ",
"                                    $ % & ; 0 y y a a a D E F 1 [ z                                 ",
"                                  G } ; & [ H I J a k a K L J M , N                                 ",
"                                  ' } ; % % g y y a J j e y J O *                                   ",
"                                  $ & , ; & x a a K P P F a Q ^ R                                   ",
"                                  * } * % & S D a a J I a L T U !                                   ",
"                                    U [ ^ % % V o u a y g W ; % ;                                   ",
"                                      U ; [ 8 % R X Y Z ` | % % +                                   ",
"                                    f  ...| } & & U * * , % 8 ^                                     ",
"                                    +.@.@.@.#./ U % 8 8 , ' *                                       ",
"                                  $.@.@.@.%.@.@...C R &.~ *.                                        ",
"                                  =.@.-.+.@.@.@.-.G &.@.;.%.z                                       ",
"                                >.%.@.,.'.@.@.@.).# !.@. .%.~.                                      ",
"                                +.@.@. .%.@.@.@.{.> ].%.%.;.^.                                      ",
"                              /.@.@.%.(.%.+.@.%.{.> l %.@.;. .                                      ",
"                              =.@.@._.;.@.,. .,. .< C ,.(.,.,..                                     ",
"                              {.@.@.:. .@.%.%.%...<.C %.(.@.@.:.                                    ",
"                            c {.%.@.^.,.%.,.%.@.).<.[.%.*.@.@.{.c                                   ",
"                            ~.-.-.+.$.%.@.%.@.%.!.<.= ,.}.%.-.@.@.                                  ",
"                            >.@.-. .+ +.%.@.%.%.{.].).%.:.W ,.-.+..                                 ",
"                            { |. .1.f }.(.;.{.,.{.2.(.{.!.- '.+.}.3.                                ",
"                            = 4.5.    5.}.|.(.+.{.6.=.;.7.  N 8.;.9.0.                              ",
"                            a.a b.    _.c.c.d.e.f.g.h.c.i.    9 D a b.                              ",
"                          j.b.a L f   k.h.h.h.c.l.m.h.h.%.      D a 3 n.j.                          ",
"                            o g 5 o.  [.h.h.h.e.= c.h.h.e.<     p.b r q.                            ",
"                            r.i s.t.  [.h.h.h.u.  =.h.h.h.z       c M .                             ",
"                              q.v.    = h.h.h.C   r.w.h.h.x.                                        ",
"                                      = c.h.h.+     e.h.h.T                                         ",
"                                      i.h.h.c.t.    y.h.h.e.                                        ",
"                                    n c.h.h.{.      = h.h.m.>                                       ",
"                                  < c.h.h.d.z       . c.h.h.z                                       ",
"                                  C c.h.c.r.           .h.h.=                                       ",
"                                  +.c.d.7.            C c.c.z                                       ",
"                              G l V z.z                 (.f..                                       ",
"                              z G = z                   [.A.x.                                      ",
"                            . = G B.z                   [.C.z r.z                                   ",
"                              = v.< =                   = v.. . z C.                                ",
"                              . = C.x.>                 C.x.C * =                                   ",
"                                  G v.                                                              "};
