/* XPM */
static char *_f8e37cf034547519992a7f410771b238mzDOYissFBxVVBX[] = {
/* columns rows colors chars-per-pixel */
"50 50 114 2 ",
"   c None",
".  c #410C22",
"X  c #4A0C25",
"o  c #4E0E29",
"O  c #540D2A",
"+  c #580D2A",
"@  c #51162B",
"#  c #5A122E",
"$  c #621132",
"%  c #4D2531",
"&  c #532F3B",
"*  c #622139",
"=  c #5A3A44",
"-  c #79364C",
";  c #7E4154",
":  c #814154",
">  c #8D5967",
",  c #9E556B",
"<  c #945869",
"1  c #9C5A6D",
"2  c #A7556C",
"3  c #AA526C",
"4  c #A65670",
"5  c #AE5470",
"6  c #AE5D76",
"7  c #B35673",
"8  c #B55875",
"9  c #B75C78",
"0  c #BB5C79",
"q  c #AB6075",
"w  c #A5667B",
"e  c #BD617E",
"r  c #A96E81",
"t  c #BD6580",
"y  c #BB6B84",
"u  c #BF6D88",
"i  c #A57484",
"p  c #AC7587",
"a  c #AE7688",
"s  c #A77B89",
"d  c #B1758A",
"f  c #BB758D",
"g  c #B57A8E",
"h  c #B87B8E",
"j  c #B57F90",
"k  c #BC7D92",
"l  c #C46481",
"z  c #CE6384",
"x  c #C36B87",
"c  c #C16F88",
"v  c #C96F8B",
"b  c #D06284",
"n  c #D06788",
"m  c #D46C8C",
"M  c #C0758E",
"N  c #CB748F",
"B  c #D96F91",
"V  c #CC7591",
"C  c #C37E94",
"Z  c #C97E96",
"A  c #CD7D98",
"S  c #DC7394",
"D  c #D27F9A",
"F  c #DB7F9C",
"G  c #E37B9C",
"H  c #E77FA0",
"J  c #AD808F",
"K  c #AB8A95",
"L  c #BF8397",
"P  c #B8AEB8",
"I  c #BFB3BF",
"U  c #CC829B",
"Y  c #D4829D",
"T  c #DA839F",
"R  c #DB86A2",
"E  c #D589A2",
"W  c #DB8BA6",
"Q  c #CE94A6",
"!  c #CE96AA",
"~  c #C998A8",
"^  c #E285A3",
"/  c #EB83A4",
"(  c #E089A5",
")  c #E68DAA",
"_  c #EA8EAC",
"`  c #F38CAD",
"'  c #ED91AE",
"]  c #F58FB0",
"[  c #EE92B0",
"{  c #F493B3",
"}  c #FA96B6",
"|  c #F798B7",
" . c #FA98B7",
".. c #FE97B9",
"X. c #FE98B9",
"o. c #C8A0AF",
"O. c #C4A4B2",
"+. c #CDA1B1",
"@. c #C4A9B6",
"#. c #C3BAC2",
"$. c #CFB8C4",
"%. c #CDB9C7",
"&. c #D0B4C3",
"*. c #D7C9D5",
"=. c #D8CCD9",
"-. c #DED0DD",
";. c #E0D3DF",
":. c #E1D2E0",
">. c #E1D3E0",
",. c #E4D4E2",
"<. c #E7DBE6",
"1. c #EFE0EE",
"2. c #F4E6F5",
"3. c #FBECFB",
/* pixels */
"                                                                                                    ",
"                                                                                                    ",
"                                                                                                    ",
"                                                                                                    ",
"                                                                                                    ",
"                                                                                                    ",
"                                                                                                    ",
"                                                                                                    ",
"                                                                                                    ",
"                                                                                                    ",
"                                                                                                    ",
"                                                                                                    ",
"                                                                                                    ",
"                                                                                                    ",
"                                                                                                    ",
"                                                                                                    ",
"                                                                                                    ",
"                                                                                                    ",
"                                                                                                    ",
"                                                                                                    ",
"                                                                                                    ",
"                                                                                                    ",
"                                                                                                    ",
"                                                                                                    ",
"                                                                                                    ",
"                                                                                                    ",
"                                                                                                    ",
"                                    i k         a           f p                                     ",
"                                    U Y E r R ..X...X.W i Y Y E                                     ",
"                                    R | Z } ....X.X.X.X...A { _                                     ",
"                                    j D  . .{ } ..X.X.[  .X.A C                                     ",
"                                      _ X.~ -.%.) } O.>.@.{ {                                       ",
"                                    g ..' :.1.:.+.Y <.,.3.E X.U                                     ",
"                          J K       y ..{ *.=.P ! R #.I 2.R  .Y                                     ",
"                            d     k x ..X.W &.o.{  .Q $.Q  ...^ k                                   ",
"                          U   s   [ 0 } X.X. .' W R _ X.X.X.X.T |                                   ",
"                            d U r ..u / X.X.( ) X.X._ R ..X.X.R ..C                                 ",
"                            k J u X.Y n }  .R f ) { w W } X.} Y X.Y                                 ",
"                              h t .. .0 B } R A ' | M ( { X.V { X._                                 ",
"                                8 } X.R 0 m D [ }  .{ E { m R X.X.[                                 ",
"                                3 / X.X.T 7 b l N N v S 0 T X.X...(                                 ",
"                                6 m X.X.X.` x 7 5 7 7 c { ..X.X.X.u                                 ",
"                                > b G ..X...X...] ` } X.....X.../ 1                                 ",
"                                  0 z / X.X.X.X.X.X.X...X.....` z                                   ",
"                                  < b b G ..X...X.X.X.X.....G z ,                                   ",
"                                    2 b b n G ` ..X...` ^ m b 9                                     ",
"                                      , - O * 3 b b 3 * + - 4                                       ",
"                                      = $ O $ # 0 0 # $ o $ =                                       ",
"                                      + O o $ $ ; : $ $ O O +                                       ",
"                                      & . X O @     @ O X . %                                       "
};
