/* XPM */
static char *_17f52d4ccc7433eedece18c29857c1fq5rOlB8AgI6HDzSJ[] = {
/* columns rows colors chars-per-pixel */
"50 50 183 2 ",
"   c None",
".  c #010101",
"X  c #0C0606",
"o  c #080609",
"O  c #0C0A0B",
"+  c #070508",
"@  c #140C0E",
"#  c #100607",
"$  c #0E100D",
"%  c #0F0F11",
"&  c #151211",
"*  c #1A1314",
"=  c #151719",
"-  c #111A19",
";  c #1D1E1D",
":  c #161817",
">  c #221215",
",  c #2C1518",
"<  c #251C1D",
"1  c #2F1D1F",
"2  c #281416",
"3  c #2E1E21",
"4  c #211F20",
"5  c #341F24",
"6  c #2D2324",
"7  c #2E2E2D",
"8  c #252727",
"9  c #322324",
"0  c #3B2326",
"q  c #312629",
"w  c #3A272A",
"e  c #322B2D",
"r  c #3A2A2C",
"t  c #312927",
"y  c #2E302D",
"u  c #2E2F31",
"i  c #3E2E31",
"p  c #2E3333",
"a  c #323433",
"s  c #353939",
"d  c #3A3D3C",
"f  c #363837",
"g  c #4D242A",
"h  c #412B2F",
"j  c #432328",
"k  c #54272E",
"l  c #412E31",
"z  c #482F33",
"x  c #592B33",
"c  c #443334",
"v  c #493134",
"b  c #4D393C",
"n  c #45383C",
"m  c #543A3E",
"M  c #583B3F",
"N  c #51363B",
"B  c #632B33",
"V  c #643137",
"C  c #3C413D",
"Z  c #543E41",
"A  c #5E3E41",
"S  c #613F40",
"D  c #7E3842",
"F  c #3D4241",
"G  c #414646",
"H  c #474B4B",
"J  c #4A4D4D",
"K  c #444847",
"L  c #594245",
"P  c #5F464A",
"I  c #4E504F",
"U  c #4D5151",
"Y  c #595D5C",
"T  c #684A4F",
"R  c #6A4C50",
"E  c #744F56",
"W  c #75555A",
"Q  c #7C555D",
"!  c #7A595F",
"~  c #76595E",
"^  c #5E605F",
"/  c #7F5C62",
"(  c #765B60",
")  c #5F6160",
"_  c #616665",
"`  c #646966",
"'  c #656969",
"]  c #7A7D7D",
"[  c #747878",
"{  c #863B46",
"}  c #A64E5B",
"|  c #AC4F5A",
" . c #AC545E",
".. c #B2535F",
"X. c #835C62",
"o. c #AD5561",
"O. c #B45663",
"+. c #B65964",
"@. c #8B6067",
"#. c #8B6369",
"$. c #876468",
"%. c #94676E",
"&. c #936C73",
"*. c #9D6C74",
"=. c #807E7F",
"-. c #9A7078",
";. c #A06E77",
":. c #A3757D",
">. c #A9757D",
",. c #A67B7F",
"<. c #C35A69",
"1. c #DC697A",
"2. c #D66676",
"3. c #E46C7E",
"4. c #7D7E82",
"5. c #A57980",
"6. c #AC7C83",
"7. c #B27A83",
"8. c #E66E82",
"9. c #ED7384",
"0. c #F27586",
"q. c #F37689",
"w. c #F8778B",
"e. c #F6788B",
"r. c #FC7A8D",
"t. c #FE7D91",
"y. c #858786",
"u. c gray56",
"i. c #8B918F",
"p. c #8D8E90",
"a. c #8D9091",
"s. c #999E9B",
"d. c #959696",
"f. c #AD8185",
"g. c #B5838B",
"h. c #BB868D",
"j. c #BA898F",
"k. c #B28489",
"l. c #BE8792",
"z. c #B78A91",
"x. c #BD8991",
"c. c #9CA1A1",
"v. c #A9AEAD",
"b. c #A7A8AA",
"n. c #AFB3B2",
"m. c #B6B6B6",
"M. c #C38C94",
"N. c #C48E98",
"B. c #C88C96",
"V. c #CC939C",
"C. c #C6949D",
"Z. c #D3969E",
"A. c #FF8295",
"S. c #FF8599",
"D. c #D297A1",
"F. c #D398A2",
"G. c #DB9DA5",
"H. c #DD9FAA",
"J. c #DCA0A9",
"K. c #E3A3AD",
"L. c #ECAAB4",
"P. c #EBA7B2",
"I. c #F3AEB9",
"U. c #F1A9B5",
"Y. c #F6B1BC",
"T. c #FBB4BE",
"R. c #C0C0BE",
"E. c #FEB6C2",
"W. c #FFB9C3",
"Q. c #FFBECA",
"!. c #C3C7C6",
"~. c #D3D3D1",
"^. c #FFC2CD",
"/. c #FFC5D1",
"(. c #FFC5D2",
"). c #FEC9D5",
"_. c #FFC9D4",
"`. c #FFCCDA",
"'. c #FFD2DD",
"]. c #FFD2E0",
"[. c #FFD5E1",
"{. c #EBECEA",
"}. c #FAFCFC",
/* pixels */
"                                                                                                    ",
"                                                                                                    ",
"                                                                                                    ",
"                                                                                                    ",
"                                                                                                    ",
"      u.: 8 a K ` s.                                                            s.' G p 8 : u.      ",
"      F A B.-.X.L 1 @ a v.                                                b.a & 3 A X.:.V.A F       ",
"      s 5.'.(.[.[.).K.X.# G           a.I e e r i l w e 7 U a.          G X X.K.).'.].(.].>.a       ",
"      d %.^.L.5.k.G.Q.[.W.w p     J < Z ;.F.Y.W.^.^.W.Y.F.;.Z < J     p 9 W.[.^.G.f.5.L.^.%.d       ",
"      U W [.:.. . . 6 #.T.'.6 - 9 @.I.(.(.Q.W.E.T.T.W.E.Q.(.(.I.#.6 - 9 '.E.@.6 . . . :.[.E U       ",
"      ] v '.&.. o . . . < ! < / W.(.W.E.E.W.E.E.W.W.E.E.E.E.E.W.(.W./ < ! < . . . o . &.'.v ]       ",
"      m.& ^.h.. . . . o . & F.).W.E.W.E.E.W.W.E.E.E.E.E.E.W.E.E.T.E.(.F.& . + . . . . l.^.&         ",
"        = M.Q.& . . . . c W.Q.T.E.W.E.E.W.W.T.W.W.T.W.T.E.W.E.E.W.E.T.Q.W.c . . . . * Q.x.:         ",
"        _ v [.X.. o . l Q.W.T.W.W.W.E.E.T.W.W.W.W.W.W.E.E.E.E.E.E.E.E.T.W.W.l . + . $.[.z '         ",
"          . D.^.3 . < Y.W.T.W.E.E.E.E.W.W.E.W.E.W.E.W.W.E.E.E.E.E.E.W.W.E.W.Y.< . 6 ^.V..           ",
"          ] # (.N.. F.^.T.W.W.E.E.E.E.E.T.W.T.E.W.W.W.E.E.E.T.W.E.E.W.W.E.E.^.D.. V._.# 4.          ",
"            H 1 Z W (.T.W.T.E.E.W.E.E.^.Q.T.E.E.E.E.W.W.E.Q.^.W.E.E.E.E.W.E.T.(.W m 1 H             ",
"              ^ . E.W.E.W.W.E.E.E.W.W.l.C.Q.E.E.E.W.W.T.Q.D.g.W.E.E.W.E.W.W.E.W.E.. )               ",
"              [ Q (.T.E.W.W.W.W.E./.W . o 5.Q.E.E.T.W.^.f.. . ( Q.E.W.E.T.T.W.T.(.Q [               ",
"              4 J.Q.E.W.E.W.W.W.W.K.. n.}.n E.W.W.T.W.W.& s }.5.V.Q.E.E.W.W.E.E.Q.G.8               ",
"            v.h ^.T.E.E.W.E.W.T.Q.l.. a.~.< K.W.W.T.Q.L.. 7 {.Y >.^.E.W.W.E.E.E.T./.h v.            ",
"            ' X.).E.E.E.E.W.T.T.Q.C.. . . @ I.W.T.E.E.Y.: . . . V.Q.E.W.W.E.W.E.E.(.X.'             ",
"            F g.^.E.E.T.W.E.E.W.E.W.i . . ~ /.Y.W.W.T.^.W . . i W.E.W.T.T.W.W.E.E.^.6.F             ",
"            e G.Q.W.T.W.E.E.E.E.E.W.P.T / E.E.E.T.T.T.E.T./ T P.Q.T.W.W.E.W.E.W.E.W.H.u             ",
"            e U.W.W.E.E.E.E.W.W.E.E.W.^.^.^.^.^.^.^.^.(.(.^.^.W.E.E.E.W.W.E.W.W.E.W.P.7             ",
"            q Y.W.E.W.W.E.W.T.E.E.E.E.^.E.z.! L b b L ~ z.E.^.E.E.W.W.E.E.E.T.W.E.E.Y.t             ",
"            q Y.W.T.E.E.W.W.E.E.E.W.^.&.q g { ..<.<...{ g 6 &.^.W.E.W.W.E.E.W.E.E.W.I.t             ",
"            e P.Q.E.E.W.E.E.W.E.Q.Y.c g 2.r.A.A.r.t.t.A.t.2.g n E.W.E.W.E.W.E.E.T.Q.P.e             ",
"            a Z.^.E.E.E.W.E.W.W.W.r D S.w.9.9.9.0.0.9.9.9.w.A.D i W.E.W.W.E.W.W.E.^.Z.y             ",
"            H >.^.T.W.E.W.E.E.^.( B S.9.w.e.r.w.9.0.r.e.q.w.9.S.B ( ^.T.W.E.E.E.T.(.>.J             ",
"            ] T _.T.W.W.E.E.W.I.9 3.q.r.+., >  .r.w. .> 2 +.w.q.3.9 Y.W.T.E.E.E.E.).T ]             ",
"            !.9 Q.T.W.T.W.E.^.N.g t.q.8.@ . . X 8.8.X . . @ 9.0.r.g N.^.T.W.E.E.E.W.9 !.            ",
"              7 M.^.E.E.W.E.^.z.x r.w.1.. . . . 1.2.. . . . 1.q.r.x z.^.T.E.E.T.^.B.7               ",
"              y.m (.T.E.E.T.W.H.5 e.0.r.V . . x w.w.x . . V r.9.w.j H.W.W.T.E.T._.N y.              ",
"                ; Z.Q.T.W.W.E.^.n } t.9.q.o. .q.e.e.w. .O.q.9.A.} c ^.E.E.W.E.Q.F.;                 ",
"                i.w _.T.E.E.E.Q.D.> 8.t.0.t.r.q.0.0.q.r.r.9.A.1.> F.Q.E.E.E.T.).w u.                ",
"                  a @.).Y.E.E.E./.6.* O.t.t.0.0.0.0.0.9.r.S.+.> f.(.I.W.W.E.).@.a                   ",
"                    @ M.(.Y.W.W.E.Q.C.w g  .3.w.r.r.w.3.| g e V.(.E.E.E.I./.M.%                     ",
"                      o D.(.Y.E.E.E.^.W.5.Z w 0 g g j r Z ,.Q.^.G.W.E.E.(.F.o R.                    ",
"                        X l.).E.E.E.E.E./.(.W.L.C.N.F.Y.^._.).P i ^.E.).h.o n.                      ",
"                          & ! ^.Q.T.T.E.T.W.V.~ W.'.`.(.Q.F.c @ G._.^./ & !.                        ",
"                            C 6 M./.(.W.T.E.K.6 O l L b < o L W.).l.3 F {.                          ",
"                              c.8 r 6.Y.(.(.).(.D.#.W $.h.E.^.6.r 8 c.                              ",
"                                  c.d 6 N X.7.V.K.L.K.B.*.m < C c.                                  ",
"                                        s.` K s u u a G _ s.                                        ",
"                                                                                                    ",
"                                                                                                    ",
"                                                                                                    ",
"                                                                                                    ",
"                                                                                                    "
};
