/* XPM */
static char *_973effc42dd4d848a9be24f59dd79635hNZ1A4IDvCTuuQn[] = {
/* columns rows colors chars-per-pixel */
"50 50 210 2 ",
"   c None",
".  c #1D1B1A",
"X  c #160D0E",
"o  c #230611",
"O  c #2D0B18",
"+  c #2D0816",
"@  c #330519",
"#  c #37091D",
"$  c #251C1C",
"%  c #28181B",
"&  c #32171D",
"*  c #21201E",
"=  c #2E1E20",
"-  c #331B22",
";  c #381923",
":  c #2A2424",
">  c #2C2A29",
",  c #252221",
"<  c #3B242A",
"1  c #322D2D",
"2  c #39252A",
"3  c #31312F",
"4  c #373635",
"5  c #3B3335",
"6  c #3F383A",
"7  c #362F31",
"8  c #430A22",
"9  c #4A0C26",
"0  c #540D2A",
"q  c #5D0E2D",
"w  c #461B2A",
"e  c #4C1A2C",
"r  c #54132C",
"t  c #59112D",
"y  c #501B2D",
"u  c #5D1231",
"i  c #5B1D34",
"p  c #60122F",
"a  c #630F31",
"s  c #621132",
"d  c #432C33",
"f  c #5E2136",
"g  c #542735",
"h  c #443539",
"j  c #4B353B",
"k  c #49353A",
"l  c #52343D",
"z  c #59333F",
"x  c #41212A",
"c  c #62263B",
"v  c #4C3E42",
"b  c #473F41",
"n  c #5D3741",
"m  c #523C42",
"M  c #5D3C46",
"N  c #5C3E48",
"B  c #6A2D42",
"V  c #663B48",
"C  c #73364A",
"Z  c #77394C",
"A  c #4A4445",
"S  c #5B4A4E",
"D  c #57444A",
"F  c #574D51",
"G  c #595053",
"H  c #65424D",
"J  c #6C424E",
"K  c #6C4551",
"L  c #624A51",
"P  c #6C4954",
"I  c #694A54",
"U  c #754C59",
"Y  c #7C4E5C",
"T  c #704955",
"R  c #685157",
"E  c #78525D",
"W  c #665C63",
"Q  c #7E5461",
"!  c #785B64",
"~  c #79636A",
"^  c #823B52",
"/  c #8B455B",
"(  c #85485B",
")  c #97485F",
"_  c #944C62",
"`  c #9C4C65",
"'  c #964B64",
"]  c #855463",
"[  c #8C5465",
"{  c #8D5B6B",
"}  c #855A68",
"|  c #9A5369",
" . c #975669",
".. c #955F70",
"X. c #A24E69",
"o. c #A14D64",
"O. c #A5536C",
"+. c #AB546E",
"@. c #AA5A74",
"#. c #B35673",
"$. c #B55975",
"%. c #B65D79",
"&. c #BC5C7A",
"*. c #BA5877",
"=. c #88626E",
"-. c #8C6672",
";. c #936272",
":. c #9B6B7B",
">. c #936B78",
",. c #9E717F",
"<. c #A8697C",
"1. c #B5627C",
"2. c #B8617C",
"3. c #C35D7D",
"4. c #C6607E",
"5. c #AC6C82",
"6. c #B46D84",
"7. c #BC6C84",
"8. c #BC6682",
"9. c #A47483",
"0. c #AA7486",
"q. c #AD7688",
"w. c #A97C8A",
"e. c #B4748A",
"r. c #BB758B",
"t. c #B5798C",
"y. c #BC788F",
"u. c #B77186",
"i. c #BD7B92",
"p. c #C75E80",
"a. c #C46482",
"s. c #CC6283",
"d. c #C76988",
"f. c #D16385",
"g. c #D36688",
"h. c #D56A8C",
"j. c #D96D8F",
"k. c #C2758E",
"l. c #DB6F91",
"z. c #C47B93",
"x. c #CA7C96",
"c. c #CC7F98",
"v. c #C67790",
"b. c #D47392",
"n. c #DB7494",
"m. c #D17A96",
"M. c #D77B98",
"N. c #E37B9C",
"B. c #E27799",
"V. c #E77FA1",
"C. c #948992",
"Z. c #988A94",
"A. c #AA8591",
"S. c #A88F99",
"D. c #BC8294",
"F. c #B68898",
"G. c #AC9BA5",
"H. c #B398A4",
"J. c #BD9FAD",
"K. c #B8A3AD",
"L. c #BDA9B4",
"P. c #BAABB6",
"I. c #CC829A",
"U. c #C48499",
"Y. c #D3829D",
"T. c #D8829E",
"R. c #E4819E",
"E. c #D686A1",
"W. c #DB85A2",
"Q. c #DC8AA4",
"!. c #DA89A4",
"~. c #C094A4",
"^. c #E583A3",
"/. c #EB84A4",
"(. c #E289A6",
"). c #ED87A8",
"_. c #E48CA9",
"`. c #EC8CAC",
"'. c #E787AA",
"]. c #F38CAD",
"[. c #F186A9",
"{. c #EC91AE",
"}. c #E791AE",
"|. c #EE8FB1",
" X c #F78FB1",
".X c #ED93B1",
"XX c #F494B3",
"oX c #FB95B6",
"OX c #F998B7",
"+X c #FD97B9",
"@X c #FE98B9",
"#X c #F698B7",
"$X c #C6A7B4",
"%X c #C3B3BE",
"&X c #C3A0AD",
"*X c #CCBDC7",
"=X c #D1C2CE",
"-X c #D8CAD5",
";X c #DBCDDA",
":X c #D3C8D3",
">X c #DED1DC",
",X c #E0D5DE",
"<X c #E3D5E2",
"1X c #ECDDEB",
"2X c #E2D8E3",
"3X c #EFE1EE",
"4X c #F3E4F2",
"5X c #FEEDFD",
"6X c #FCEBFB",
"7X c #F7E9F7",
/* pixels */
"                                                                                                    ",
"                        > m K P H k =           $ < l l j S h :           = k N K H 5 =             ",
"                        v 9.E._.!.y.{ V - % k P { 5.k.x.z.i.0.;.E m = - V { i.!._.E.:.m             ",
"                        R e.u.z.E.(..Xx.Y [ u._.OX+X+X+X+X+X+X#XQ.r.Q Y c.}.'.E.z.e.t.U             ",
"                      * Q }..XQ.v.5.r.z.i.`.@X@X+X@X@X@X+X@X@X@X+X@X.Xi.i.i.5.v.Q..X_.Q             ",
"                        R _.@XOX+XQ.<.Y.OXOX@X@X@X@X@X@X@X@X@X@X@X+X@X#Xc.5.Q.OX+X@XM.R             ",
"                        A U.oX+X_.k.Q.+XOX@X@X@X@X@X@X@X@X@X+X@X@X@X+X+X@XQ.k._.+XOXu.j             ",
"                        1 -.|..Xi.Q.OX@X@X@X@X@X@X@X@X@X@X@X@X@X@X@X+X+X+X@XQ.v.|..X..              ",
"                          m Y.k.T.OX+X+X+XXXQ.Q.XX+X+X+X+X+X+XOX_.^.|.OX+XOXOXE.I.k.N               ",
"                          > } r.#X@X+XXX!.F.$X$XF.!.oX+X+X+X'.D.&X$XJ.z.XX+X@XXXz.T                 ",
"                          : E _.OX@XXXQ.H.;X3X3X;XH.!.+XOX.XF.=X1X1X;X*Xi.oX@X@XW.U                 ",
"                          : 0.XX@X@XXXF.,X5X5X5X5X;XH.].+Xz.=X7X5X5X5X1XL.Q.+X@X#X<.$               ",
"                          v W.oX@X+X{.G.6X6X4X:X<X4XK.(.#Xw.1X2X:X4X6X6X;Xr.@X@X+Xc.H               ",
"      : A >             > J (.+X@X@X{.G.6X6X:XW Z.<XK.Q.#XA.1XZ.W P.6X6X;Xr.@X@X+X'.}               ",
"    R 9.w.>.h           5 / `.+X@X@X.XS.4X6X:XD C.-XK.'.OXq.,XC.F P.6X7X*Xx.+X+X@XXX..              ",
"  l 9.-.~ R A         1 Q O.).+X@X@XXXU.*X7X4X,X2X%XI.#XOXY.K.,X;X4X6X2XF..X+X+X@X@Xr.K 2           ",
"  ! 9.5 S =.-.D     > E r.1./.oX@X@XOX{.F.L.,X;XL.D.|.+XOX#Xz.G.-X,X*XA.R.OX@X+X@X@Xz.z.U           ",
"  w.Q L 9.9.0.:.6   h z.T.2.N.oX@X@X@X+XXXE.t.t.E..X#X+X+X+X#X_.D.t.I.{.@X@X@X@X@X@Xv.(.6.k         ",
"  -.9.} >.: I >.l , { _.(.1.n.oX+X@X+X@X@XoXOXoXOXXXXXXXXXXX#XOXOXXXOX+X@X@X@X@X+X+Xz.'.}.U         ",
"  F q.u.=.N ;.w.L 6 y.XX`.1.d. X+X+X@X@X@X@XOXXX_.I.y.r.r.r.c._.XXOX@X@X@X@X@X@X+X#Xz.`.OXe.<       ",
"    R i.i.q.c.c.,.;.!.OXXX1.4.R.+X+X@X@X@X@XXXI.z.}.#X+X+X#XQ.z.Y. X@X@X+X@X@X@X+X{.x.{.oX(.V       ",
"      ! q.-.:.! G <.`.@XOX6.2.j. X@X@X@X@XXXI.Y.+X@X+X+X+X+X@X+XI.U.OXOX@X@X@X@X@XT.T.oXoXoX[ *     ",
"      < ;.q.t.} K 6.#X+X@XI.2.4.R.oX@X@X@X_.U.#X}.Q.#X+X+X+X}._. XU._.OX@X@X@X+X+Xz.(.+X+X+X6.j     ",
"        2 ;.U.w...d.XX@X+X{.1.4.g.).@X@XOXT.T.{.5.Y E.+X+XQ.} } }._.U.@X@X@XoX@X_.z.{.+X+X+XI.D     ",
"          m :.9.{ a. X+X+XOXk.2.s.l.].OXXXE._._.[ & z.+X+XE.M n (..Xr.+X+X+X+X Xk.c.OX@X@X+X_.D     ",
"            L :...4.].+X@X@X{.@.3.f.n.XX#XE.W.#XM.k.}.@X@X.Xz.x.XX}.z.+X@X+XoXm.7.`.@X@X@X+X|.H     ",
"              j ( 3.).+X@X@X+XY.O.s.s.n.).(.x.#X@X@X@X@X+X+X@X@X#Xx._.OX+X XM.1.W.OX@X@X+X@X.XH     ",
"                Z &.R.oX@X@X@XXX7.O.s.s.j.V.c.Y.#X@X@X@X+X@X+X#XY.I.#XoX`.j.2.m.oX+X@X@X@X@XXXH     ",
"                J 3.l. X@X@X@XoX|.8.| s.f.h.b.k.i.Q.+X+X+X#XQ.z.Y.{.[.B.g.@.x.XX+X+X+X+X@X+X.XH     ",
"                V $.g.[.+X@X@XoX+X`.a.` 3.f.f.f.a.8.7.r.y.r.v.b.n.l.h.3.@.m.].@X+X+X@X@X@X@X`.H     ",
"                z #.f.B.oX+X@X@X@XoX].b.X.O.p.f.f.s.p.p.d.p.g.g.g.a.O.@.W.#X+X+X@X@X@X@X@X+Xm.l     ",
"                h +.f.h.[.oX@X@X@X@X@XXX(.a.' ` $.p.p.f.f.f.a.#.| | z.].oXoX@X@X@X@X+X@X+X].%.<     ",
"                3 | 4.f.B. X@X+X@X@X@X@XoXXX/.b.%.` ' _ _ _ ` %.x.`.oXoX@X@X@X+X@X@X@XoXoXM._ :     ",
"                4 ( &.f.f.R.OX@X@X@X@X@X@X@XOXOXXX]././.^./.`.XXoX@X@X+X@X@X@X@X@X@X@X@X[.g.V       ",
"                * l #.s.4.h.).+X@X@X+X@X@X@X+X+X+XOXOX+XoX@X+X+X@X@X@X@X@X@X+X@X@X+XoX].n.#.D       ",
"                  3 | s.f.f.h.).oX@X@X@X@X+X@X@X@X@X+X@X@X@X@X@X@X+X@X@X@X@X@X+X+XoX Xn.f./ d       ",
"                  > H 2.f.f.f.j.[.oX@X@X@X@X+X@X@X@X@X@X@X+X@X+X@X@X@X@X@X@X@X+XoX].n.f.&.z         ",
"                    h | 4.f.4.f.g.[.oX+X@X@X@X@X@X@X@X@X@X@X@X@X@X@X@X@X@X+X@XoX].n.g.s./ 2         ",
"                    6 H 3.4.f.4.f.g.N.].+X+X+X@X@X@X@X@X@X@X+X@X@X@X@X@X@XoX X/.j.f.f.@.g           ",
"                      5 ( 4.4.h.f.f.f.l./.].+X+X@X@X+X@X@X@X@X@X@X@X+X+XXX[.n.f.f.f.&.Z             ",
"                      . A [ 4.4.f.f.f.f.f.l.V.[.].oXoX+X@X@X@X@XoXXX`./.n.g.f.f.f.3.( &             ",
"                        4 F O.4.f.p.#.X.` ` +.s.B.N.R././././.R.b.8.O.' X.*.f.f.p./ <               ",
"                          6 S _ $._ B i 0 u c ^ +.4.f.f.g.f.4.o.C p 0 t c C o.$./ x                 ",
"                            4 G V r a a a a u 0 c +.s.g.f.4.) f t s s s a q c V d                   ",
"                              G e s u r 0 s s s q Z *.f.f.+.c u s s s r 0 s q w $                   ",
"                            4 h u s t # 9 s s s a r | s.g.Z u s s s u 9 8 s s t ;                   ",
"                            4 e a s 0 @ t s s s s 0 ( &.1.c s s s s u 9 @ 0 s t w                   ",
"                            F g s u 8 @ t s s s s q g J J y a s s a a 0 @ 9 s s w                   ",
"                            1 w u t # # u a s u u e 2 $ > ; 0 t s s u 0 @ 8 u r ;                   ",
"                              4 5 O o o # ; d h v F 5 X X . % + O O # + o o % - $                   "
};
