/* XPM */
static char * C:\Users\Bryan\42\test\img\player_left2_xpm[] = {
"50 50 156 2",
"  	c None",
". 	c #D4DAD8",
"+ 	c #C3C4C3",
"@ 	c #DBDCDB",
"# 	c #E6E8E6",
"$ 	c #B3BDC2",
"% 	c #A5AEB2",
"& 	c #BAC5C9",
"* 	c #9FA8AB",
"= 	c #CBCBCA",
"- 	c #BBBCBA",
"; 	c #A9B2B5",
"> 	c #A2AAAD",
", 	c #ABB6BA",
"' 	c #E4E4E3",
") 	c #A9B4AB",
"! 	c #828A8D",
"~ 	c #6D7373",
"{ 	c #B2BBBB",
"] 	c #9AA4A6",
"^ 	c #4F5354",
"/ 	c #2B2C2C",
"( 	c #595D57",
"_ 	c #959EA1",
": 	c #C8DCC9",
"< 	c #AEB9BD",
"[ 	c #7C8286",
"} 	c #666A53",
"| 	c #B29684",
"1 	c #C9A897",
"2 	c #C3A390",
"3 	c #AD958A",
"4 	c #8B9294",
"5 	c #B6C1C5",
"6 	c #A7B1B5",
"7 	c #EBECEB",
"8 	c #CDD1CD",
"9 	c #B69E94",
"0 	c #FDD3BC",
"a 	c #CCAC9C",
"b 	c #D6DAD6",
"c 	c #BCC2BD",
"d 	c #E3BDAB",
"e 	c #9F9791",
"f 	c #BBC3C4",
"g 	c #F4CAB3",
"h 	c #ECC3AA",
"i 	c #E5B09B",
"j 	c #C09E88",
"k 	c #D4AC8F",
"l 	c #D6B4A2",
"m 	c #929A9D",
"n 	c #C3C9C4",
"o 	c #9EA8A7",
"p 	c #BE9F8E",
"q 	c #B5937D",
"r 	c #DAB6A2",
"s 	c #C1BFBC",
"t 	c #937D74",
"u 	c #A49A95",
"v 	c #666766",
"w 	c #BFAFAD",
"x 	c #FCCDBA",
"y 	c #C2AA9D",
"z 	c #87706A",
"A 	c #D3C4BF",
"B 	c #D7B8A6",
"C 	c #C7AEA1",
"D 	c #97A69F",
"E 	c #D7AE9B",
"F 	c #DEBEAD",
"G 	c #E6BBA6",
"H 	c #F9C3B5",
"I 	c #DCE0DC",
"J 	c #A48D84",
"K 	c #DAADA3",
"L 	c #D4D4D4",
"M 	c #81847B",
"N 	c #F5C5AE",
"O 	c #C77A67",
"P 	c #898A82",
"Q 	c #F6CEB9",
"R 	c #F7B9A2",
"S 	c #DFBAA6",
"T 	c #6C836C",
"U 	c #767774",
"V 	c #8E9799",
"W 	c #607F71",
"X 	c #5A6757",
"Y 	c #534E45",
"Z 	c #9EA6AA",
"` 	c #565A4B",
" .	c #555A46",
"..	c #686D64",
"+.	c #686C55",
"@.	c #5A5C4A",
"#.	c #54564A",
"$.	c #767769",
"%.	c #848782",
"&.	c #A4A5A3",
"*.	c #868C82",
"=.	c #525543",
"-.	c #5D614C",
";.	c #A4A8A2",
">.	c #636751",
",.	c #DBDAD6",
"'.	c #61644E",
").	c #8E9389",
"!.	c #7B8676",
"~.	c #8E8E89",
"{.	c #999B96",
"].	c #4F5240",
"^.	c #97A292",
"/.	c #4D4E3C",
"(.	c #EDF1EC",
"_.	c #FAFAFA",
":.	c #5C5D46",
"<.	c #ADAEAC",
"[.	c #676B5B",
"}.	c #464639",
"|.	c #A2A29E",
"1.	c #767F6E",
"2.	c #64665B",
"3.	c #CBCFB9",
"4.	c #B6B9B3",
"5.	c #424436",
"6.	c #878576",
"7.	c #464838",
"8.	c #B1B1AE",
"9.	c #A49888",
"0.	c #363C2E",
"a.	c #7B7B64",
"b.	c #39392B",
"c.	c #CBB3A1",
"d.	c #5B5C3A",
"e.	c #5F613B",
"f.	c #727358",
"g.	c #54553A",
"h.	c #535535",
"i.	c #CBC6B6",
"j.	c #D2D9C1",
"k.	c #B7BFA6",
"l.	c #61633C",
"m.	c #41412C",
"n.	c #8F967E",
"o.	c #C0BAB6",
"p.	c #BA9E91",
"q.	c #D1CAC6",
"r.	c #575836",
"s.	c #D3CECC",
"t.	c #E1E1D9",
"u.	c #B6B5B3",
"v.	c #91867F",
"w.	c #95948E",
"x.	c #9B9D9A",
"y.	c #959595",
"                                              . + + @                                               ",
"                                        # $ % $ & & $ * =                                           ",
"                                      - % $ & & & & & & $ -                                         ",
"                                    ; ; % > $ & & & & & & , '                                       ",
"                                  ) $ , ! ~ ! $ { & & & & & -                                       ",
"                                  ] ; ^ / / / ( _ $ & & & & ] :                                     ",
"                                ' < [ } | 1 1 2 3 4 5 & & & 6 7                                     ",
"                                8 5 9 0 0 0 0 0 0 a _ & & & 5 b                                     ",
"                                c < d 0 0 0 0 0 0 0 e 6 & & & 8                                     ",
"                                f > g h h 0 0 i j k l m 5 & & n                                     ",
"                                f o p q q g 0 r 9 s t u , & & f                                     ",
"                                f o v w 8 h x y z A B C 6 & & D                                     ",
"                                8 > 3 E F G 0 0 0 x H a 6 & $ *                                     ",
"                                I , J H x G 0 g 0 H H K 6 & % 5 L                                   ",
"                                  > M H x N i x 0 x g r $ $ > 5 ;                                   ",
"                                  4 ] d 0 E O O G 0 x w 5 6 , & >                                   ",
"                                  ! $ P Q x R H 0 0 S m & $ % $ >                                   ",
"                                  > $ > T B 0 0 r 9 U $ $ _ ; {                                     ",
"                                  n $ $ V W X Y u 4 $ < % % {                                       ",
"                                    o < $ , Z > { & & f m `  .c                                     ",
"                                      > 6 , < < $ $ _ ..} +.+.@.                                    ",
"                                        #.$.%.4 &.@.} +.} +.+.+.*.                                  ",
"                                      = } =.} %.L X +.+.+.-.} +.@.                                  ",
"                                      ;.>.#.+.P ,.>.+.+.+.=.'.+.+.).                                ",
"                                      !.=.} } ~.' @.+.+.+.} =.+.+.-.                                ",
"                                       .=.+.+.{.' @.+.+.-.+.].} +.+.^.                              ",
"                                    @ -.@./.-.&.(.` -. .-.+.=...+.+. .                              ",
"                                    %.+.} ].} &._.` } } } } :.M +.+.-.                              ",
"                                  8 -.} } =.+.<._.[.+.+.'.+.>.!.} } '.L                             ",
"                                  [.} >.} }.>.- _.*.} +.>.} } *.'.X '.|.                            ",
"                                I -.>.>.1.M } 2.~.( } } } } '.3. .>.} ).                            ",
"                                4.5.-.=.# %.:./.6.@.-.@.]./.5.f ^.=.7.8.                            ",
"                              (.9.].0.I   |.=.:.a.@.'.7.7.}.b.    0.}.-                             ",
"                              c.0 S b     ^.d.e.f.g.g.h.d.d.f.    c.0 i.                            ",
"                          j.k.1 0 S       } l.l.d.m.d.l.l.l.n.  k.Q 0 c.j.                          ",
"                            o.p p.q.    7 r.l.l.d.- h.l.l.l.8.  3.| B 9                             ",
"                            @ J s.      = l.l.l.:.  $.l.l.l.8.  t.u 2 8.                            ",
"                                        <.l.l.e.u.  |.l.l.l.-     ,.o.                              ",
"                                        v.l.l.h.    + l.l.l.-                                       ",
"                                        h.l.l.w.    @ d.l.l.{.                                      ",
"                                      ' r.l.l.-       @.l.l.d.-                                     ",
"                                      8 l.l.e.@       8 d.l.l.d.7                                   ",
"                                      - l.l.=.          u.d.l.d.&.                                  ",
"                                      n d.d.&.            u r.d.@.                                  ",
"                                      @ r./.                = [.U x.L                               ",
"                                      <.y.8.                  = s L =                               ",
"                                  = u.= = 8.                  = = ,.s @                             ",
"                                + = @ @ L -                   - 7 L -                               ",
"                                  - &.&.; +                 ' 8.+ - @                               ",
"                                                              ,.L                                   "};
