/* XPM */
static char * C:\Users\Bryan\42\test\img\player_left_xpm[] = {
"50 50 162 2",
"  	c None",
". 	c #E9EAE9",
"+ 	c #C2C4C4",
"@ 	c #B1B7B9",
"# 	c #A2AAAD",
"$ 	c #9EA8AB",
"% 	c #A7B1B4",
"& 	c #CFD1D1",
"* 	c #ABB5B9",
"= 	c #BAC5C9",
"- 	c #B6C1C5",
"; 	c #A9AFB2",
"> 	c #A4ADB1",
", 	c #BAC3C6",
"' 	c #AEB8BC",
") 	c #B3BEC2",
"! 	c #BBBCBB",
"~ 	c #8B9192",
"{ 	c #494D49",
"] 	c #46484A",
"^ 	c #5A5F60",
"/ 	c #9BA4A7",
"( 	c #B1BABD",
"_ 	c #8C989A",
": 	c #373736",
"< 	c #3D3938",
"[ 	c #232223",
"} 	c #282828",
"| 	c #CBAB9B",
"1 	c #FDD3BC",
"2 	c #DDBCA8",
"3 	c #B19689",
"4 	c #716F6E",
"5 	c #A4A5A4",
"6 	c #F3CBB5",
"7 	c #8F908B",
"8 	c #ECECEC",
"9 	c #BFA598",
"0 	c #D5AD96",
"a 	c #DEB79D",
"b 	c #FAD0B6",
"c 	c #C5A594",
"d 	c #8F7669",
"e 	c #E3BCA5",
"f 	c #CBA488",
"g 	c #D0A88D",
"h 	c #8C9598",
"i 	c #9DA6A9",
"j 	c #959DA0",
"k 	c #84857C",
"l 	c #C7BABA",
"m 	c #87736E",
"n 	c #B79584",
"o 	c #D5B19C",
"p 	c #DBB4A4",
"q 	c #DBC9C2",
"r 	c #D6C7C1",
"s 	c #E7BEAA",
"t 	c #CEC3BD",
"u 	c #A59996",
"v 	c #B5A9A6",
"w 	c #948177",
"x 	c #A09897",
"y 	c #EBB6AB",
"z 	c #FCCDB9",
"A 	c #EBBCAA",
"B 	c #EFC8B4",
"C 	c #DAC5BA",
"D 	c #EFC6B1",
"E 	c #A89D97",
"F 	c #CBCCCC",
"G 	c #939B9D",
"H 	c #F8C2B5",
"I 	c #E7B5A3",
"J 	c #F1C4AE",
"K 	c #D5D5D4",
"L 	c #B29C93",
"M 	c #C69284",
"N 	c #D8A692",
"O 	c #F1C2B1",
"P 	c #F4BFB5",
"Q 	c #B99B8C",
"R 	c #958784",
"S 	c #9A9190",
"T 	c #FBCAB6",
"U 	c #D5B4A1",
"V 	c #828A88",
"W 	c #EDA48F",
"X 	c #E2A78F",
"Y 	c #949593",
"Z 	c #E5C0AA",
"` 	c #B7ADA8",
" .	c #7D8486",
"..	c #5A5E5F",
"+.	c #7C7A74",
"@.	c #827F7E",
"#.	c #D6D9D9",
"$.	c #DFE0E0",
"%.	c #DEB8A4",
"&.	c #DAD7D5",
"*.	c #E2E2E1",
"=.	c #D0CCC9",
"-.	c #B4B5B5",
";.	c #6D716B",
">.	c #63665A",
",.	c #858683",
"'.	c #E7E8E8",
").	c #DBDBDB",
"!.	c #424539",
"~.	c #ABABAA",
"{.	c #636751",
"].	c #555846",
"^.	c #5D5F51",
"/.	c #5F6258",
"(.	c #686C55",
"_.	c #C7C9C8",
":.	c #3B3C2C",
"<.	c #4A4D3C",
"[.	c #61644E",
"}.	c #5B5E4B",
"|.	c #666A53",
"1.	c #5E614C",
"2.	c #F2F2F2",
"3.	c #515443",
"4.	c #92958F",
"5.	c #767973",
"6.	c #9A9A96",
"7.	c #858883",
"8.	c #555848",
"9.	c #8B8D8B",
"0.	c #F9F9F9",
"a.	c #5D6152",
"b.	c #68685B",
"c.	c #9C9B99",
"d.	c #B9B9B7",
"e.	c #4E4E37",
"f.	c #7F7F6B",
"g.	c #ADB0AF",
"h.	c #717269",
"i.	c #33362A",
"j.	c #4E5035",
"k.	c #575936",
"l.	c #707154",
"m.	c #747565",
"n.	c #3A423E",
"o.	c #B69989",
"p.	c #61633C",
"q.	c #54563B",
"r.	c #424432",
"s.	c #3F402F",
"t.	c #AD9689",
"u.	c #D0B8AC",
"v.	c #5C5D3A",
"w.	c #5A5A36",
"x.	c #C9C6C3",
"y.	c #808075",
"z.	c #5F613B",
"A.	c #C9C8C6",
"B.	c #A2A19E",
"C.	c #535434",
"D.	c #8A8A84",
"E.	c #5C5D43",
"                                                                                                    ",
"                                              . + @ # # $ % &                                       ",
"                                            @ # $ * = = = = - ;                                     ",
"                                          > , ' * > ) = = = = = %                                   ",
"                                        ! - ~ { ] ^ / ) = = = = = (                                 ",
"                                        % _ : < [ } < / ) = = = = $                                 ",
"                                      + ) | 1 1 1 2 3 4 $ = = = = >                                 ",
"                                      # 5 1 1 1 1 1 1 6 7 ) = = = %                                 ",
"                                    8 % 9 0 a b 1 1 1 1 c > = = = >                                 ",
"                                    & % d c 0 e 1 e f g e h = = = i                                 ",
"                                    + j k l m 6 1 6 n c o ~ ) , = #                                 ",
"                                    @ ~ p q r s 1 t u v w x ' = , (                                 ",
"                                    * ~ y z z A 1 B q C D E ' = = F                                 ",
"                                    / G A H A I J 1 z H H x - = = K                                 ",
"                                    G $ A 6 L M N e O H P G = - ) F                                 ",
"                                    ( ' Q 1 M R S L T z U ' , $ = ,                                 ",
"                                    ( - V 2 H W X b 1 b / - $ ' - F                                 ",
"                                    $ ' / Y o 6 6 Z | R ) , ) * = +                                 ",
"                      + Q `         , * ) /  ...+.@.~ ) , > i ) $ #.                                ",
"                    $.U Q %.&.        _ * ) ) * ) - , ) > * $ +                                     ",
"                    *.n U Z =.        -.;.G > ) = = ) > ~ >.,.'.                                    ",
"                      ).2 3 !.~.).    {.{.].^.5 ,././.{.(.(.(.^._.                                  ",
"                        *.:.<.[.}._./ |.].{.}.$.;.(.(.(.|.(.|.(.1.5                                 ",
"                          5 [.{.(.}.<.].1.(.>.2.].(.(.(.{.3.|.|.(.{.4.                              ",
"                            5.[.|.(.}.<.(.(.6.*.1.(.(.(.(.[.{ {.(.(.|.7.                            ",
"                              5.|.(.(.<.[.(.! _.(.(.(.(.(.].8 7 8.1.{.(.-.                          ",
"                                ~.1.(.}.<.8.).+ {.{.1.1.(.7     9.|.|.|.-.                          ",
"                                  K 5 9.|.>.0.~.a.1.1.(.(.-.    b.|.(.}.8                           ",
"                                      6.|.c.0.7 (.(.[.(.(.    *.}.[.[.Y                             ",
"                                      a.{.d.0.k (.(.1.(.(.    ! |.|.[.+                             ",
"                                      !.].e.f.3.|.(.|.|.|.    g.8.1.8.                              ",
"                                    '.!.<.f.h.3.(.|.|.|.].    5.<.i.#.                              ",
"                                    F j.k.l.m.}.e.<.3.<.n.F %.b o.-.                                ",
"                                    h.p.p.p.[.q.e.r.s.r./ t.6 1 u.                                  ",
"                                  F v.p.p.w.:.p.p.p.v.@.  x.Q U &.                                  ",
"                                  y.p.p.p.}._.z.p.p.p.x.                                            ",
"                                #.v.p.p.k.A.  v.p.p.z.$.                                            ",
"                                4.p.p.z.B.    w.p.p.C.                                              ",
"                                C.p.p.m.      w.p.p.k                                               ",
"                              K z.p.p.+       w.p.w.B.                                              ",
"                              5 p.p.C.        k.p.p.C.F                                             ",
"                              k p.p.D.        D.p.p.p.v.).                                          ",
"                              k v.k.&.          D.z.p.v.b.                                          ",
"                              D.w.5               c.w.v.k.-.                                        ",
"                            v ~.+.8                 A.+.E.Y ~.                                      ",
"                        -.+ F + ! 8                     5 d.2.!                                     ",
"                      ).! F #.F +                       ~.=.*.c.                                    ",
"                        #.l -.! -.                    F &.*.F K                                     ",
"                                                      5 ! ! -.                                      ",
"                                                        K *.                                        "};
