/* XPM */
static char * C:\Users\Bryan\42\test\img\player_up_xpm[] = {
"50 50 163 2",
"  	c None",
". 	c #C8C6C4",
"+ 	c #9EA3A4",
"@ 	c #B2BCBF",
"# 	c #BAC5C9",
"$ 	c #B9C3C7",
"% 	c #A1A9AC",
"& 	c #B9B9B8",
"* 	c #B2BCC0",
"= 	c #ACB4B9",
"- 	c #A7AAAB",
"; 	c #B5B5B5",
"> 	c #A7ACAE",
", 	c #B4BEC3",
"' 	c #BCC6CA",
") 	c #C3C1C0",
"! 	c #C5C6C6",
"~ 	c #ABAEAF",
"{ 	c #B1B5B7",
"] 	c #9EA0A3",
"^ 	c #B3B9BB",
"/ 	c #9FA7A9",
"( 	c #BCC7CB",
"_ 	c #A6B0B3",
": 	c #9CA3A5",
"< 	c #A4AEB1",
"[ 	c #A1A8AB",
"} 	c #A3ADB0",
"| 	c #A6B1B4",
"1 	c #B4B0AD",
"2 	c #90999D",
"3 	c #A6AEB4",
"4 	c #A39F9C",
"5 	c #9CA6AA",
"6 	c #B6C1C3",
"7 	c #A9B4B8",
"8 	c #AFB2B2",
"9 	c #969FA5",
"0 	c #B2BDC0",
"a 	c #B7C2C6",
"b 	c #B3BCC0",
"c 	c #AFB9BD",
"d 	c #BAC4C9",
"e 	c #C4CCCE",
"f 	c #8E9698",
"g 	c #B4BFC2",
"h 	c #969FA1",
"i 	c #676A55",
"j 	c #6B6C60",
"k 	c #8D9595",
"l 	c #ADB8BC",
"m 	c #737872",
"n 	c #626650",
"o 	c #787569",
"p 	c #5D604E",
"q 	c #686C55",
"r 	c #6A6D5A",
"s 	c #646757",
"t 	c #8D8F86",
"u 	c #7B7D72",
"v 	c #676C55",
"w 	c #5C604B",
"x 	c #525441",
"y 	c #565948",
"z 	c #676B53",
"A 	c #5B5D4B",
"B 	c #535644",
"C 	c #5C5F4A",
"D 	c #61644F",
"E 	c #5B5F4A",
"F 	c #646852",
"G 	c #4F5240",
"H 	c #545745",
"I 	c #686B56",
"J 	c #434635",
"K 	c #565947",
"L 	c #3E4133",
"M 	c #4B4D3D",
"N 	c #585B49",
"O 	c #636752",
"P 	c #696B54",
"Q 	c #585C46",
"R 	c #606350",
"S 	c #4E513F",
"T 	c #454838",
"U 	c #717461",
"V 	c #6C705C",
"W 	c #8B857F",
"X 	c #494A3B",
"Y 	c #3C3E31",
"Z 	c #494B3D",
"` 	c #757463",
" .	c #66674F",
"..	c #5F6250",
"+.	c #44443A",
"@.	c #676155",
"#.	c #3F4135",
"$.	c #3F4229",
"%.	c #4C4D39",
"&.	c #51533D",
"*.	c #606148",
"=.	c #777661",
"-.	c #5A5C3A",
";.	c #545641",
">.	c #3D3E2B",
",.	c #BFA08F",
"'.	c #4E4D32",
").	c #61633C",
"!.	c #60623B",
"~.	c #5E603B",
"{.	c #626342",
"].	c #61633D",
"^.	c #AC8E83",
"/.	c #EBC4AF",
"(.	c #515130",
"_.	c #505131",
":.	c #E8C0AD",
"<.	c #B08F83",
"[.	c #605C40",
"}.	c #5D5E39",
"|.	c #504F32",
"1.	c #BD9B8E",
"2.	c #A1928D",
"3.	c #5B5741",
"4.	c #535534",
"5.	c #97857E",
"6.	c #6A6351",
"7.	c #4C4B2D",
"8.	c #64624E",
"9.	c #838178",
"0.	c #525135",
"a.	c #747167",
"b.	c #6D6C5D",
"c.	c #9E9C97",
"d.	c #5A573E",
"e.	c #888780",
"f.	c #83837A",
"g.	c #807B73",
"h.	c #4F4F32",
"i.	c #686B59",
"j.	c #B5B3AF",
"k.	c #787667",
"l.	c #98968C",
"m.	c #949287",
"n.	c #CECDCC",
"o.	c #96958E",
"p.	c #B6B5B2",
"q.	c #ACAAA6",
"r.	c #DAD9D8",
"s.	c #545536",
"t.	c #D3D2D2",
"u.	c #4F5139",
"v.	c #4C4B33",
"w.	c #44442B",
"x.	c #EFEEEC",
"y.	c #B0AFAF",
"z.	c #A7A7A7",
"A.	c #989796",
"B.	c #BEBDBE",
"C.	c #BEBCBB",
"D.	c #9B9A98",
"E.	c #B1B1B1",
"F.	c #929291",
"                                                                                                    ",
"                                          . + @ # # # $ % &                                         ",
"                                        & * # # # # = # # $ -                                       ",
"                                        @ # # # # # # $ # # # ;                                     ",
"                                      > # # # # # # # # $ # # =                                     ",
"                                      , # ' ' # # # # # # $ # # )                                   ",
"                                    ! # # # # # # # # # # # # # ~                                   ",
"                                    { # # # # # # # # # # # # # ]                                   ",
"                                    ^ # # # # # # # # # # # # # /                                   ",
"                                    % # # # # # # # # # # # # ( _                                   ",
"                                    : # # # # # # # # # # # # # <                                   ",
"                                    [ # # # # # # # # # # # # # }                                   ",
"                                    = ' # # # # # # # # # # # # | 1                                 ",
"                                    2 # # # # # # # # # # # # # 3 4                                 ",
"                                    5 6 # # # # # # # # # # # # 7 8                                 ",
"                                    9 0 # # # # # # # # # # # a 6                                   ",
"                                    : : 0 b # # # # # # # # a $                                     ",
"                                      3 7 c ' d # # # # # 0 0 e                                     ",
"                                        f a # # d # d @ c g h                                       ",
"                                        i j k % = l c c : m n j                                     ",
"                                      o i p q r s t u r i v p w                                     ",
"                                      x i y q q q v v q v z x z                                     ",
"                                      A z B v q q q q q q v B z                                     ",
"                                      C D E q q q q q q q q x i                                     ",
"                                      z F G q q q q q q q n H q                                     ",
"                                      i I J H w z q q q K L D v                                     ",
"                                      n i M I z i q q q q A E I                                     ",
"                                      E w N I z z v q q q O x P                                     ",
"                                      x Q R I z r q q q q v S w                                     ",
"                                      x E T w U q q q q V K G E                                     ",
"                                      W X Y Z n i `  ...+.J J @.                                    ",
"                                        #.$.%.&.*.=.-.;.%.>.+.                                      ",
"                                        ,.'.).!.~.{.!.].).'.^.                                      ",
"                                        /.(.).).-.  -.].)._.:.                                      ",
"                                        <.[.).).~.  }.).).|.1.                                      ",
"                                        2.3.).).4.  _.).).|.5.                                      ",
"                                          6.).).'.  7.).).8.                                        ",
"                                          9.).).0.  a.).).b.                                        ",
"                                          c.).).d.  e.).).f.                                        ",
"                                          g.).).h.  i.).).b.                                        ",
"                                          j.).).k.  l.).).m.                                        ",
"                                          n.}.}.o.  p.}.~.q.                                        ",
"                                            '.-.    r.s.4.t.                                        ",
"                                            a.u.      v.w.x.                                        ",
"                                          r.y.z.      A.B.C.                                        ",
"                                          D.E.          E.F.                                        ",
"                                                                                                    ",
"                                                                                                    ",
"                                                                                                    ",
"                                                                                                    "};
