/* XPM */
static char *ad5381cb748149c2c61188a89fa90d1bKe1kcjHTYU2xL8vH[] = {
/* columns rows colors chars-per-pixel */
"99 50 71 1 ",
"  c #461F02",
". c #4B2306",
"X c #4E2609",
"o c #4F280B",
"O c #502506",
"+ c #51260A",
"@ c #542A0D",
"# c #5B2E0E",
"$ c #5C310F",
"% c #562E11",
"& c #592F12",
"* c #573013",
"= c #5C3113",
"- c #5D3519",
"; c #60320F",
": c #623516",
"> c #6A3715",
", c #653917",
"< c #6B3A16",
"1 c #623619",
"2 c #683718",
"3 c #653A1C",
"4 c #6C3C1B",
"5 c #723D16",
"6 c #723E1B",
"7 c #793F1A",
"8 c #653B20",
"9 c #6C3E21",
"0 c #6F411F",
"q c #714017",
"w c #74421D",
"e c #7A441D",
"r c #78481F",
"t c #6E4123",
"y c #734423",
"u c #7A4622",
"i c #764827",
"p c #7D4A25",
"a c #744629",
"s c #784728",
"d c #76492B",
"f c #7D4B2A",
"g c #7F502D",
"h c #7B4E30",
"j c #7C5133",
"k c #814622",
"l c #824C25",
"z c #8B4F25",
"x c #824E2A",
"c c #894E2A",
"v c #855027",
"b c #8C5126",
"n c #85512D",
"m c #8A532D",
"M c #8F582E",
"N c #91562E",
"B c #93582E",
"V c #814F30",
"C c #865433",
"Z c #8A5634",
"A c #8D5936",
"S c #8B5738",
"D c #8D5939",
"F c #925631",
"G c #935B35",
"H c #995D36",
"J c #945D39",
"K c #995F3A",
"L c #96603B",
"P c #9A603B",
"I c #976342",
/* pixels */
"PHHFFFBNNBBBNNLBBBBBBBNFFBFNGGHFFNNBBBMNFFKHFFGBBNNNNBFHJGNNNBBGBBBBHBJGFGNBNNFBNHHNGKFFBBBFGGNBBNZ",
"AMNFNNFNNNBBzkvMNBBBNFNFFFclmMMFFFBBMBFFmlmmMFNNNMNNNFmzcMNGNNFNNBNbFkcNBNNNNBFFNBbzcNNFBNNNNNNNbzp",
"mNFHKHKJHHHBvkvmFKKKHHHHHHN7lmFHKKHGHPPGbelmGPGGHHKHHKmepmGHHKHHHPHKB7lmGGHHHHFHHHNkkcFHGHHHHHKHNkq",
"mFHPPPPPPPPPbrpMKPKPPPPPPPFqlmGPPPPPPPPPN5kmGPPPKPPKKPmeumGKKKKKPPKKH7kcGPKKPPPPPPNkkNFHPPPHKKPPNke",
"nmHKKPKKKKPKvepmHKKKPKKPPPNwlmGPPKPKPPPPM5lvHPPPPPPPPPZeuxJHKPIKPPKPH6lcGHKPPPPPPKNkkmNKPPPKPPPPBeq",
"nMHPKPKKKKKKlepmJKKKPPKPPKZ5llHPKKKKPPPPb5lcFPPPKKGPPPmeecAHKKKKPKKPA5lzGPPGPHPGPKFeemFKPPLKPPPPFkw",
"mmGKKLLIPPKKlrpnGKPPPPPKPKMwlmHPPPKJPPPLmelmGPPJJJJLLPMeunJKKKKPKKKKA5plGKKKGPLLPKFewmFKPLJKKKLPFew",
"nmGPKJLKKPHHlrubHPJPJJJJJGx5llJPKPPLKLPGmwenGPPKKKPPLPmermFKKIKPPKKKZ7lzNKPKGPPLPKBrwcFKPPJPPJLPGrw",
"cZKPKLLLPKKPlepmHKKPPLJKKJmwllGPHKKLKJLJmeumHJJHGPPLKKFerzGKKKKKKPKGFeklFKPKJPPPPPFurbFKPPJPPPLPNe6",
"cmGKJGLGKJPLpellAKGJKGHHHHbqzlGJJHJKKKKJn5lmGPKJGGGLKKm7kcFJKKKJJKKHN7lnGKJHKPJJKHZeebMJJHPGPGGPFe5",
"fupxxxvgxpxfwwuppxhffVxVxfuqfupgggfnnxxfuquurlllvllllpy6uppfxfVVhgxxw4dufxllcplxglu5rpuxgxvxfxxvpww",
"d3=&==%$###;$<0>;&&&&&===&=3y,$#$$$*&##$;,0<:=****&==&;2y,$$#:&&=&=;#,d3=&$**&$**$#,tw$#=&=*&==*&=6",
"nueuuureuuywwfngyueuuyuruywpnsfpuyyuyuywypnsiuuyuuuuyupxxxufy6euuwerrpgcpeueuwureppuVVpuuepueuueepx",
"MzzbzbvbbmmnlvmvlcbbbbbbmzllmccccbmmlnmccpxZcbbbbbbzzzllcccbcNczmmbvblnbzbbbbbbbzbmkcmcczbbbbbbbzzf",
"nnFHJAAGFGFFlelmFHBBBGBAFFcelmFGGFFFBNGFmelcNFGGGFFFZGbekmMGFHFFFJGNBeplZAGAAGAFNGNe7cmFFGNFGFFGmuw",
"VCJKJLLJJHHHzermHPJPJGGLLGn5lnFGHPGGHHHHm5uzFKJJJJKJKLvwrnAGGGJHDIKFF5ixAJLJJLJJKGMeulZHKLJJJGJPFu4",
"ccFGGGLGJGJLpwpmGGJJJJJLJJn0plAHJLJJLGGJn5uxSJHJJJJKJDnwpvZLLGLJJJJGA4dlALGGGJGLJJmwwlmGLJLLLGGLFw4",
"xnGJJJDJJJJJpwunDGDJDJGJGGc6llFKGJDJGLDJx6uxmGGAGJDJJLnwuxmDGAGGJDGGFwplmLGJLDJJKJmwelZJJGGDGLGLZy6",
"nmDJJJLGJALLuwpmMGGJJJDGJGx5lcAGJGDJJGGJm5ezAGJJDLJGDLx6wvALGJGLJJGAA4ulZGGJLJDLHHmwwlMGJGLGGLAGZww",
"xxDJDJDJDJJDpwunDLJDDIDJJJx4fnAADLIDJILDc5ixAJDJLJJDJLnwifnLDLDDJJHJZ4ipZLDDJDJGAAZwwvZJGJDLDDALFet",
"nCJJDDLJDJDJx6yxSDJJJJDDJGx4inAADJDSDJJDf5pcAGJHDDADJJvwugCLDAJDJJJAZ5ppmLGALALDJGnwylxAJJJJAGDLMw0",
"lcGLLLJGHGJLp5ucGHGGHJJJGGx5exGJLGJJGGKJl5uvZJGJGJHJJJnwwpnGLLJJKJKHZ5ulMGLGMLGLGJZe7xZHJGJGLGGGme2",
"lpnnvnnnnnmcw5plxnnnCmxnnnp4pucmnnnCcxnve5ppxnnCnnnnnZp5wulnnnmnnnmnk4ipfvvZvnnncVf57xxVZVnnnnnnxy4",
"y31:::-:1:1::298:1:=:::11::2y2:2,,,-::,,:,04:::211,:::::00:2:2:1::::2&t8,-111-,-21;:9y2121-13,---29",
"d33300-3-33-2tdt33333333883tdt3:333133333tat833333333130iy313113331333ht933332833332yi3,,3333--014y",
"npfpppppgppppxVxsfpfplppxfsfnpxpppsppplpppxxfppplppxplppgggpvuppxfpppixcxpllfpxppfxupnppppppfppppuy",
"mnmmmmnmmvvmlelcnnmmmmccZmxellmZmmmmmnMml7plmmmmcmmcmMlrrvmmZMmmmcmmzekllbmmmMmccZnpucnZmmmmbbMMlr0",
"lvAGDDLJDLDLu6yVAHDJDJDJHJx<pxFDADJDDGDJx97fZJDJJDDADJn4wpmJGDDDSJJAn4upmGJSAJJFAGmw6xZGAAGDDDDGmw0",
"lxADADDDDDGJp0yxZGSJAJJDJSl<upZFASSJJAGDl6uxZJSADJADDJx6wfCGAADDJSFGZ<9lZGDDSSJZSJV76fnDJGDJAJDJAq4",
"fxAAAADDAADGu6yxSFSJSJDSDAx4upZSJJSSDAAAx47xCSSASSSSDDc4wfmASAGDAASAc<sunAADDJJAFJV76pVJADDDDDDDZw0",
"fxSSASSSSSAAuwyfZZASZSAFAAx4upZSSSAADSADx<ylZAJSSJJDDJx5wfCAADDSSSDAZ4yuCAAAJSDSSJC69fcSADDDDDDJZ62",
"ffSSASCSSSSAu4yxZAZFZASASSx<ssCSSJDSSADDx<exVASSSSSSDDn40fCSASAASSAGx4yunASSSSAASSn66lVJDSSADDAAm02",
"ffSSSSSSSSAJp6yxZASSSSSASAx<ufnSSJJDSSAAp26pVDSASSASSDn4wpCASDASSSAZn2yiZDDSSSSSAAn4yfCDDASSSSSAC60",
"fgZASSSSSSAFp9yfZASSSSSSAAf4upCSSSDDSSDSx4sxCJAAASAAAAf0ypCSSSSAJSSAn4asnASSAAADSAn06sVDDASSAAAAZw4",
"ppnSSCZZSCZZy5yfCmSCCCSCCCi<upnZCZZZZZAZp4yxVSZCnCSZCmpw0pfSCCnCSSSmn>apgCSZCCCCnZv46ixSSCmZCCZZn<3",
"d40ttttty999:2ty00tttty9tt3,y49y9t4t99992:49994tttt0tt2,00ttttttt9tt3:yw0ttttt3tttt,4y8ytttttttt4;>",
"a-@#**$%%&&&&3y3%%%$&##&@%$1y3=&****&&&&&3y3-**-**%%$@%1t0$$*%%%***=%-y3%@%%=%@=$*$3yt*=$**%**$$*,3",
"fy0yytyy9y9y0pfs00yyy99yyyyyfiyyyyyyyyyy6yxdyttyt0yyyw0yii00t000yywyytfiywyyytwyytwyssyyww0twy00yyp",
"npfvppfpfxcxueppfvpvxplflxfspipkfnfpfvcpfyffffsffpxlpvpyppfgfffgpxvnpwpvnlppffxxnfpwyplxggfffvgppwy",
"xxnZZmnAZZnmrqrfnnCZZZmmZZf4ufAZnMAZnmmnp5ufVZxSZnZZZnpwwpnZmnMMnmZnfwyevAAMCmZmZnlwwunnmAMmmAMnnw4",
"dyCSCZZnSSCAiqwgZZZmSZZmZCl2suCAZngCZmZCf<wiCCCCSCSDSCp4wpnCSZCmAAZZn4tuxZCZAASVZZg40pgZZCZnCZZAnw>",
"sfSASCCSgZCCy00ggCSZCSSCZCs1ssVZZCSJCCZZf,ysCSCSSSSSASf40dCCZCCCCSZCC3ysCSSZCCSSZZg40sfZZCSSASCAg04",
"sfCCCCDDCCCCyq0dCCCgCCCCZCs2ypVCSCjDASSCf>ypCCCSCCSCCCf00dCCCSSZSCZCf2wyhCCCSSZSCSf0ysfSCSCSDjCCgy3",
"fsCCZCCSCSZSy00dCZSCCACCSZs2suZZCCCSCZCSp>upxCCCCCSCCCp4wpnCZZCCCCCSn,yihZZZSCVZCZg33ifCSSCgSCDCf4,",
"dfgSZZZZCSZCt4yigSDggJCjSSs2skCCZCZZAASAs>wpxSSCZCZCCCi40ygCZnAZVZZZf4ysVSZZCZCCnZg44pfSSSgJSCCAC4,",
"idCSZZZZSCCCy0yiCDDCZLSCJJ9999CSZCCZCACSf4isxSCCSSSZCSp0tthSSZAAZCZVV4yyCSZVCSZCmCf34adSCCjISgSjC44",
"idgCSgCCjCSCy0aigSCSCjCDDS92hVSSCZCgjCSji4ydhSCCSSCCCCf4tdhCjSjASSZCC1ashCVVCCCCASg0tdfSCCAJggCSh3,",
"didhhddddjjd31ttttahdathh991s999ddhhdddht1ttadaadhayaht3tydhddhdddha8:ay9aasdhhhddt39yadidiadahjt13",
"0%OOXO@ooX.+O:3-@ @&&@@@+@@-9&@++XX@@@X++-8-@&+@%+oXXOO&98&+O&@+o%oXo$3-@@@++++XooX*03XXOoOO*@XXo@1",
"-X.XOXX..X...+@+X X + Xo X +-+ +XX ooo o  --   +...X.XO@&+ O    o...XX$@XXXXXXXX.X..o$.X.o@..Xoo.o="
};
