/* XPM */
static char * C:\Users\Bryan\42\test\img\wall_xpm[] = {
"50 50 174 2",
"  	c #783A06",
". 	c #773A04",
"+ 	c #713510",
"@ 	c #7A3600",
"# 	c #803D07",
"$ 	c #823D0B",
"% 	c #7C3C0A",
"& 	c #834106",
"* 	c #7F400B",
"= 	c #83420B",
"- 	c #7C3C13",
"; 	c #723E23",
"> 	c #934B0C",
", 	c #8C4406",
"' 	c #81533B",
") 	c #7C4925",
"! 	c #87491C",
"~ 	c #89430C",
"{ 	c #934A16",
"] 	c #73462C",
"^ 	c #8E7B6B",
"/ 	c #8E7562",
"( 	c #957560",
"_ 	c #9A7E6A",
": 	c #8B6353",
"< 	c #8B4613",
"[ 	c #92552E",
"} 	c #8B522D",
"| 	c #97694D",
"1 	c #934E1B",
"2 	c #723D1C",
"3 	c #89664E",
"4 	c #7B4C35",
"5 	c #A96631",
"6 	c #96541D",
"7 	c #79472A",
"8 	c #A59888",
"9 	c #824D2B",
"0 	c #8C4D2A",
"a 	c #995E3C",
"b 	c #9C694D",
"c 	c #906D58",
"d 	c #8A4B22",
"e 	c #8C490D",
"f 	c #83512D",
"g 	c #946142",
"h 	c #844115",
"i 	c #947C66",
"j 	c #695143",
"k 	c #A7A792",
"l 	c #8C634C",
"m 	c #947D6C",
"n 	c #835342",
"o 	c #B67237",
"p 	c #9B5716",
"q 	c #8D4B13",
"r 	c #774B32",
"s 	c #834B25",
"t 	c #9A5D3A",
"u 	c #96603B",
"v 	c #9B6443",
"w 	c #9A6D59",
"x 	c #793D1A",
"y 	c #A78776",
"z 	c #6F372D",
"A 	c #A58E7D",
"B 	c #7B4623",
"C 	c #8E6145",
"D 	c #855844",
"E 	c #B3703A",
"F 	c #CB7F3E",
"G 	c #995422",
"H 	c #7C5545",
"I 	c #9C7456",
"J 	c #9A603B",
"K 	c #713913",
"L 	c #9A613C",
"M 	c #855932",
"N 	c #8B5634",
"O 	c #80694F",
"P 	c #946A55",
"Q 	c #6D2C13",
"R 	c #74421E",
"S 	c #8D5A39",
"T 	c #916650",
"U 	c #744423",
"V 	c #877567",
"W 	c #9C8877",
"X 	c #985C36",
"Y 	c #935D3A",
"Z 	c #A2755F",
"` 	c #948F81",
" .	c #8D5936",
"..	c #A16E5B",
"+.	c #A27964",
"@.	c #7C5F4B",
"#.	c #8D5E44",
"$.	c #896D5D",
"%.	c #935632",
"&.	c #95603D",
"*.	c #6E401D",
"=.	c #7F502E",
"-.	c #823B10",
";.	c #A87E68",
">.	c #836755",
",.	c #835D4C",
"'.	c #7D4C2B",
").	c #7F5033",
"!.	c #693915",
"~.	c #7A431E",
"{.	c #AE897C",
"].	c #91816C",
"^.	c #845332",
"/.	c #955222",
"(.	c #7C553E",
"_.	c #79695A",
":.	c #5A2807",
"<.	c #532402",
"[.	c #55290C",
"}.	c #5F310F",
"|.	c #4E2203",
"1.	c #62330E",
"2.	c #A98C85",
"3.	c #877F6A",
"4.	c #542D14",
"5.	c #88745C",
"6.	c #997767",
"7.	c #B18A7A",
"8.	c #855D3F",
"9.	c #824529",
"0.	c #97947E",
"a.	c #826955",
"b.	c #A16C4D",
"c.	c #A26B38",
"d.	c #918A75",
"e.	c #A0603D",
"f.	c #9D5F3A",
"g.	c #9D6C54",
"h.	c #AA6941",
"i.	c #94664C",
"j.	c #A77855",
"k.	c #B48151",
"l.	c #935A36",
"m.	c #6A3513",
"n.	c #A45F26",
"o.	c #B9754C",
"p.	c #8F5009",
"q.	c #804B31",
"r.	c #93725D",
"s.	c #C37E5E",
"t.	c #7D604B",
"u.	c #8C5738",
"v.	c #6C3D1C",
"w.	c #774A27",
"x.	c #A48372",
"y.	c #C88958",
"z.	c #9D7C64",
"A.	c #935F41",
"B.	c #AA734C",
"C.	c #D18E61",
"D.	c #9B715C",
"E.	c #A06F53",
"F.	c #683619",
"G.	c #CF9562",
"H.	c #511F00",
"I.	c #A3806E",
"J.	c #A67859",
"K.	c #793D22",
"L.	c #653513",
"M.	c #512409",
"N.	c #663A1C",
"O.	c #6C3E21",
"P.	c #4F2109",
"Q.	c #6F4122",
"                    .                             .                                       .         ",
"                  .   +                 .                                               .   +       ",
"        .           . .                 .       .   .     + . +               .           . .       ",
"        .       .                       .       .         .   @               .       .             ",
"# # $ # # # # # # # # # % # # # # # # # # # # # % # % # # # #   # # # # # $ # # # # # # # # # % # # ",
"# #   # # # # # # # # # %   # # # #   $ # # # # % # # # # # # # # # # # #   # # # # # # # # # %   # ",
"# # # # # # # $ # # # # # # # # # # # # # # # # # # #   # # # # # # # # # # # # # # $ # # # # # # # ",
"# # # # # # #   # # # # # # # # # # # # # # # # # # # # # # # # # # # # # # # # # #   # # # # # # # ",
"# # # # # # # # # # # # # # # # # # # # # # # # # # # # # # # # # # # # # # # # # # # # # # # # # # ",
"# # # # # # # # # # # # # # # # # # # # # # # # # # # # # # # # # # # # # # # # # # # # # # # # # # ",
"# # #   # # # # # # # # # # # # # # # # # # # # # # # # # # # # # # # # # #   # # # # # # # # # # # ",
"# # # $ # # # & # # # # # # # # # # # # # # # # # # # # # # # # # # & # # # $ # # # & # # # # # # # ",
"    . . . . . . . .     @         . . . . . . .                   . .     . . . . . . . .     @     ",
"        .                                     .               @               .                     ",
"                                            #                                                       ",
"    #   #   &     %         #         #       * #         #         #     #   #   &     %         # ",
"* * . *   * &   &     # * *   *   #     *     * *       * *   * .   & * * . *   * &   &     # * *   ",
"    # * & #   #   # # #     *   # # #   * * # # # # # =   * % # * *       # * & #   #   # # #     * ",
"& # & * * *   # # # # # # & # # % - ; - > , *   # # # ' ) ! ~ # & # # & # & * * *   # # # # # # & # ",
"# # = { { & & # & & & # & # $ ] ^ / ( _ : ! < & # & # [ } | 1 # # & $ # # = { { & & # & & & # & # $ ",
"% 2 3 4 ! 5 6 & & & & & # $ 7 8 ^ 9 0 a b c d e & & & f [ g h = # & = % 2 3 4 ! 5 6 & & & & & # $ 7 ",
"i j k l m n 5 o p & q { # r 8 _ + s 9 t u v w 1 = # & } } a x ~ & # - i j k l m n 5 o p & q { # r 8 ",
"y z A B B C D d E F F G H 8 I J K s s L J J I C 1 & = M N a r $ = $ O y z A B B C D d E F F G H 8 I ",
"P Q k R B ) S T : U ] V W v X Y K s d L J t J Z d e = f } Y D $ = 2 W P Q k R B ) S T : U ] V W v X ",
"w x ` ) ) 9  .L v b ..+.J J a Y   s s u Y X L v P G & f  .L T $ $ @.I w x ` ) ) 9  .L v b ..+.J J a ",
"#.d ^ $.B 9 %.L Y a &.&.u u u Y *.=.s &.&.a Y L +.%., 9 [ L w % -./ g #.d ^ $.B 9 %.L Y a &.&.u u u ",
";.0 >.,.B '.B s '.'.'.9 ).=.f '.!.'.B ) '.=.'.'.l D ~ f B ~.{.@ - ].^.;.0 >.,.B '.B s '.'.'.9 ).=.f ",
"n /.(._.*.!.:.<.<.<.<.<.[.[.<.<.}.R }.:.|.:.:.|.<.,.-.~.1.<.2.@ - 3.4.n /.(._.*.!.:.<.<.<.<.<.[.[.<.",
"' < 7 5.M  .s 9 s s f s f 9 s s B N f f s s s '.f 6.- S '.) 7.s h 5.8.' < 7 5.M  .s 9 s s f s f 9 s ",
"N q 9.0.s ^.N N } } } }  .S } } ! } s } } } } } } y < S } N ..X ~ a.C N q 9.0.s ^.N N } } } }  .S } ",
"b.c.s d.R s %.e.f.X Y X t u u a + s } X J J a %.a {.G ^.%.f.g.h.e ,.i.b.c.s d.R s %.e.f.X Y X t u u ",
"j.k.0 0.~.s %.X Y t a Y a u l.%.m.! s  .l.u u a v +.n.^.0 %.P o.p.q.r.j.k.0 0.~.s %.X Y t a Y a u l.",
"Y s.t.d.R '.&.l.Y S Y Y Y S l.u.v.w.f  .S S Y S  .x.5 8.9 Y P y.1 ) ].Y s.t.d.R '.&.l.Y S Y Y Y S l.",
"N i.z.r ) f M u l.Y A.A.S l.Y S m.s f l.u u  .&.u w 1 T N J 6.B.C.D A N i.z.r ) f M u l.Y A.A.S l.Y ",
"u Y Y x B f  .u Y S Y g Y l.Y u.m.s f  .l.a u Y Y i.> #.} Y Y ;.$.i P u Y Y x B f  .u Y S Y g Y l.Y ",
"Y Y &.R x B  . .Y Y l.Y l.A.l.S m.B s l.N S l.N N D.> ^.^.g S Y w b g Y Y &.R x B  . .Y Y l.Y l.A.l.",
"A.g g ; v.)  .a Y Y u Y Y l.Y Y m.~.) &.&.Y Y &.Y E.p ' 9 a Y A.a g S A.g g ; v.)  .a Y Y u Y Y l.Y ",
"9 9 9 2 7 9 ) 9 f =.=.'.=.=.=.'.!.) w.'.f 4 '.f ^.;.E N ) ^.9 q.'.9 q.9 9 9 2 7 9 ) 9 f =.=.'.=.=.=.",
"<.<.<.:.U F.<.<.|.|.|.|.|.|.<.|.:.R }.<.<.<.<.|.:.r.G.] :.<.H.<.<.H.<.<.<.<.:.U F.<.<.|.|.|.|.|.|.<.",
"B B U U q.^.U B w.) ) w.B B w.B ) M '.U R U w.U B I.J.q.U 7 B '.) B B B B U U q.^.U B w.) ) w.B B w.",
") q.^.) ) f 9 '.f 9 9 9 9 9 9 9 B 9 ) ^.^.q.9 ^.=.'.C S '.N '.'.'.9 f ) q.^.) ) f 9 '.f 9 9 9 9 9 9 ",
"Y Y  .2 R 9  .Y Y &. .&.N Y l. .m.9.9 l.l.S l.Y  . .S '.9 Y  .S Y Y S Y Y  .2 R 9  .Y Y &. .&.N Y l.",
" .S Y 2 2 B ^.Y  .S N &. .l.Y M m.B )  .u.u. . .Y l.Y '.9 Y u.S S S S  .S Y 2 2 B ^.Y  .S N &. .l.Y ",
" .l.Y U 2 B ^.l. . .u.Y  . . .M m.B ) N  .S  .u. . .N 9 9 l. . . .l.N  .l.Y U 2 B ^.l. . .u.Y  . . .",
"N S N K 2 ) ^.%.N  .N S  . . .} m.B ) N S S  .N l.N u.) 9 N N N N  .S N S N K 2 ) ^.%.N  .N S  . . .",
" .N N 2 R ) ^.N N N N  . . .S ^.m.B B N N N  . .u.u.l.9 9 l.N N N N l. .N N 2 R ) ^.N N N N  . . .S ",
"N Y Y ; 2 B ^.l.u.u.N S l.N Y N m.B )  .N S Y S u.u.u.9 q.Y u.u.u.S S N Y Y ; 2 B ^.l.u.u.N S l.N Y ",
"N u.S K.2 ) ^.u.u.u.N u.S ^.S ^.m.) ) N u.u.S u.u.u.S 9 ) u.u.u.N u.u.N u.S K.2 ) ^.u.u.u.N u.S ^.S ",
"^.^.^.!.U B f ^.^.).M ).M '.^.r L.w.U ).=.=.=.=.).).M ) 7 ^.f ^.f ^.^.^.^.^.!.U B f ^.^.).M ).M '.^.",
"M.|.|.|.N.O.P.|.|.M.M.|.|.|.P.|.4.Q.4.|.[.|.M.|.P.P.P.Q.[.|.P.|.[.|.M.M.|.|.|.N.O.P.|.|.M.M.|.|.|.P."};
