/* XPM */
static char *_10612c298414c4f969ef034cba132b65NmbjEBBA95GCVBC[] = {
/* columns rows colors chars-per-pixel */
"50 50 204 2 ",
"   c #461E04",
".  c #4C2206",
"X  c #4D2409",
"o  c #502609",
"O  c #53290D",
"+  c #5D2E0E",
"@  c #552C11",
"#  c #5B2E11",
"$  c #552E19",
"%  c #5D3114",
"&  c #5E3519",
"*  c #722E0F",
"=  c #61300F",
"-  c #6F390E",
";  c #773A04",
":  c #7A3C06",
">  c #72360E",
",  c #753C0D",
"<  c #7D3C0B",
"1  c #602F11",
"2  c #662419",
"3  c #712F11",
"4  c #712A1A",
"5  c #633314",
"6  c #6A3716",
"7  c #6C3917",
"8  c #62361A",
"9  c #66391C",
"0  c #6C3B1B",
"q  c #6C371A",
"w  c #743414",
"e  c #793612",
"r  c #713A15",
"t  c #7B3C12",
"y  c #74351A",
"u  c #723D1C",
"i  c #7A3E1B",
"p  c #7D371A",
"a  c #663B23",
"s  c #6A3E22",
"d  c #763620",
"f  c #723D21",
"g  c #7B3C22",
"h  c #7D4006",
"j  c #7E420D",
"k  c #6F411E",
"l  c #74411E",
"z  c #7B411E",
"x  c #6D4124",
"c  c #6D442C",
"v  c #744322",
"b  c #794524",
"n  c #774826",
"m  c #7C4926",
"M  c #72442C",
"N  c #7A4529",
"B  c #76482B",
"V  c #7D4B2A",
"C  c #7F512F",
"Z  c #694531",
"A  c #734532",
"S  c #7E4A30",
"D  c #744D39",
"F  c #7F5130",
"G  c #7D523B",
"H  c #7A5642",
"J  c #7C5E47",
"K  c #7C594B",
"L  c #755A49",
"P  c #7A614D",
"I  c #7E6A57",
"U  c #7F725B",
"Y  c #813E06",
"T  c #833D0A",
"R  c #893D0B",
"E  c #893D01",
"W  c #853E14",
"Q  c #823D19",
"!  c #834106",
"~  c #8B4106",
"^  c #84420B",
"/  c #8B450B",
"(  c #8E4B0E",
")  c #924B0A",
"_  c #984B07",
"`  c #8B4414",
"'  c #8E4914",
"]  c #854419",
"[  c #89431B",
"{  c #8B4B1C",
"}  c #824115",
"|  c #904617",
" . c #914B12",
".. c #924C1B",
"X. c #9A4B1A",
"o. c #8F5119",
"O. c #9B551D",
"+. c #965317",
"@. c #824A27",
"#. c #8C4C23",
"$. c #824E2C",
"%. c #894927",
"&. c #85512E",
"*. c #88542F",
"=. c #9A5624",
"-. c #9C5A2A",
";. c #985828",
":. c #834E31",
">. c #874F3C",
",. c #855333",
"<. c #8A5535",
"1. c #875A37",
"2. c #8D5936",
"3. c #84543C",
"4. c #8C5638",
"5. c #85593C",
"6. c #8E5A3A",
"7. c #925A36",
"8. c #915C3A",
"9. c #A15E28",
"0. c #A15723",
"q. c #93603E",
"w. c #A4622C",
"e. c #AB672D",
"r. c #A76735",
"t. c #AA6631",
"y. c #A06836",
"u. c #A8673A",
"i. c #B67037",
"p. c #BC7339",
"a. c #C17738",
"s. c #815541",
"d. c #875C44",
"f. c #8A5D43",
"g. c #835D4C",
"h. c #895F4B",
"j. c #8E6145",
"k. c #81624E",
"l. c #8B664E",
"z. c #926244",
"x. c #93654B",
"c. c #956A4F",
"v. c #896452",
"b. c #8D6A54",
"n. c #826A59",
"m. c #896B58",
"M. c #926A52",
"N. c #936C5B",
"B. c #976C56",
"V. c #84725D",
"C. c #987057",
"Z. c #99745D",
"A. c #937259",
"S. c #A46B4A",
"D. c #B87846",
"F. c #B2744F",
"G. c #AD7750",
"H. c #A2745B",
"J. c #B77F53",
"K. c #AC7848",
"L. c #8F6D61",
"P. c #8D7565",
"I. c #8C7C6A",
"U. c #857866",
"Y. c #987868",
"T. c #9C7D70",
"R. c #A37F70",
"E. c #C27F4D",
"W. c #89866F",
"Q. c #97806B",
"!. c #9D816C",
"~. c #8D8B7E",
"^. c #948476",
"/. c #9D8372",
"(. c #948B74",
"). c #988678",
"_. c #968D7D",
"`. c #9B8D7C",
"'. c #9E927A",
"]. c #A8866D",
"[. c #B88961",
"{. c #A18A76",
"}. c #A78778",
"|. c #A3927C",
" X c #C78042",
".X c #CB8945",
"XX c #D08848",
"oX c #D98B46",
"OX c #C58458",
"+X c #CA915F",
"@X c #CA8D62",
"#X c #CF9E6C",
"$X c #DC9769",
"%X c #DC9970",
"&X c #988F81",
"*X c #979080",
"=X c #9C9483",
"-X c #9B9A8B",
";X c #97998B",
":X c #A58D80",
">X c #AA9483",
",X c #A59687",
"<X c #A2A08A",
"1X c #A4A497",
/* pixels */
"; ; ; ; ; ; ; ; ; ; ; ; ; ; ; ; ; ; ; ; ; ; ; ; ; ; ; ; ; ; ; ; ; ; ; ; ; ; ; ; ; ; ; ; ; ; ; ; ; ; ",
"; ; ; ; ; , ; ; ; ; ; : : : , ; ; : ; ; : ; : ; ; : ; ; ; , ; ; ; ; : : ; ; ; , ; ; : , ; ; ; : ; ; ",
": : : : ; : < : : : : : : ; : : ; : < : ; : : : : : : < < ; : : : : : : : : : ; : : : : : : : : : < ",
": : : : : : : : : : : : : : : ; : : : : : : : : : : ; : : : : : ; : : : : : : : < : : : : : : : : : ",
": : : : : : : : : : : : : : : : : : : : : : : : : : : : : : : : : : : ; : : : : : : : : : Y : : : : ",
"! : h : < : : Y : : h : h : h : T : Y : : : : h ! : h : : < Y : ; h h h h h : : : : : : : : : h : : ",
": Y : h h : : Y Y Y ! : Y : : Y < : Y : Y : Y < : h : < : : : : : h < < Y : : Y Y : : : Y Y : : Y : ",
"Y Y h : Y Y : Y ! : : < h Y Y < Y Y T : Y Y Y < : h Y Y Y T T R R Y Y Y Y Y Y < Y T Y T Y < : Y Y Y ",
"E Y : Y Y Y Y E Y Y h : : : Y Y Y : Y Y : Y Y : ! Y < : > s s > | X.Y ! Y T Y Y Y Y Y T Y < Y E Y Y ",
"Y : Y ! ! Y Y T Y ' ..( E ! ! ! Y ! Y : Y ! Y E ! < 0 k.A.Q.P.Y.I u =.^ Y Y ! Y Y ! Y E Y Y ' O.' h ",
"Y h Y ! ^ < W e 7 t { -.e...Y ! ! ^ ! ! ! ! Y T < x ).Z.6.&.0 b f.N.f =./ ^ ! ! ! ! ! Y < r 7 z t.w.",
"! ^ ! ~ ^ e c % W.>XP.x [ i.e.~ Y T Y ^ ! ! E W c `.C.6.6.&.l m @.<.5.f O.! ! Y ! Y ! T s I.>XK A -.",
"T ^ ! ~ < D |.% <Xx.q.].b.e r.E.e.' !  .O.! W A }.B.7.7.7.&.7 m @.<.2.M.t +.R ! ^ ! ! < n.,Xs.r x.K ",
"W / ^ T q Q.>X2 `.x.q.7.8.v.A [ i..XXXoXp.t D `.x.8.8.8.7.*.r @.%.4.2.8.b.{ ' ! ! ! T s -XB.b l m T.",
"< ~ ^ e J x.j.4 v.q.7.q.8.m h.D y e ' ^ - L /.z.7.7.7.7.7.$.r z @.<.7.7.x.M =.Y ! ^ < n.|.%.l l $.; ",
"e E j y f.8.}.y P z.8.q.8.V u S 1.G H P P.T.z.8.8.7.8.7.7.$.r v @.4.8.8.8.f...' ~ ^ t ^.C.&.u l $.; ",
"w ~ t A z.4.Y.] L x.4.8.6.b u b $.<.4.8.6.6.6.6.6.2.1.2.2.*.k l m *.6.6.6.x.:.;.~ ^ e -Xq.V v l :.; ",
"> ^ p k.s.@.s.*.f v.$.V m 0 u b m m V V V B V V V V V V V l k l v n V V V V Y.-./ ! w -XV v l l V ; ",
"* Y e m.Z a L.;.d U 1 1 1 + 6 0 0 5 1 # % + + % % + + @ + + + k 9 6 # # % + P.v | ^ w ~.+ + 5 7 v i ",
"3 j Q V.D M N.=.y U q s s q v V b 0 q q 0 0 0 0 9 0 k 0 k k k V n 0 q 6 0 0 c k.R T w ~.7 7 l v V V ",
"y j e V.5.V 3.=.W U.V V V b m &.&.V m V V m $.m m m V m l n n *.$.V V b m m @.g.< W y &XV b m V ,.S ",
"@.W } I 1.b.g | W I.5.,.<.m b m &.&.$.*.$.*.$.,.*.$.*.*.*.V z V @.&.:.4.:.&.:.h., i d _.,.V b b V ; ",
"q.^ } P j.!.p / } V.j.2.4.b u b $.<.2.6.7.8.6.6.6.2.7.2.2.$.k m @.&.4.7.6.6.6.R.e Q d ).2.&.v u m ; ",
"z.^ ` G x.C.*.o.` k.z.8.7.b u v V ,.7.7.7.8.6.7.q.2.7.q.7.V k z @.&.7.4.6.6.6.C.#.W g &X8.&.z r @.; ",
"D.( / N j.j.G.y.` G q.6.6.m u v m &.7.2.6.6.2.7.2.2.7.7.2.$.k l m $.2.2.2.2.2.c.-.` g &X7.*.v u m ; ",
"OX/ / Q f.x.[.K.X.S 6.6.2.b r z @.$.2.2.2.2.<.2.2.2.2.2.*.V k z b $.2.2.6.2.2.l.t.{ i <X6.$.i r @.; ",
"@X..( ] 5.H.H.%X..3.6.2.2.b r v m &.2.2.<.2.<.2.2.2.*.2.2.m k j b $.4.z.6.7.2.6.r.' i 1Xz.:.u u m ; ",
"J.E...] 5.4.5.S.V l.6.4.<.l r v @.&.2.*.2.2.2.2.2.2.7.7.2.V k l b $.<.2.2.2.2.<.u.' W _.z.$.l r m ; ",
"V $X$Xb B.4.4.Z.>XY.4.6.4.b u v m &.4.4.6.4.<.4.2.7.2.6.2.$.7 z b $.2.2.6.7.7.:...` ` I./.$.r 0 N ; ",
"}.N N U.{.2.4.6.6.<.2.7.6.b u i m &.4.7.4.4.4.4.2.2.<.6.2.$.7 z m &.2.2.4.6.6.:.` ) ` N.'.,.f u N ; ",
"h.}.|.T.x.,.<.<.<.<.<.4.4.v u v m ,.4.4.1.,.1.1.2.2.,.1.1.B k l n C ,.,.<.4.,.$...) ( d.'.V f u @.; ",
"b V &.,.,.$.&.,.,.:.*.,.:.u 0 v N V $.,.,.S ,.F ,.F C &.C v 0 v n B ,.F F F ,.m ) _ ) :.<Xb 0 q N ; ",
"9 5 8 8 9 8 8 9 0 8 8 8 & + & k 9 9 8 8 8 8 8 8 8 8 & 8 & # & s 9 & & 8 & & & m 9._ ( @._.% 5 9 v ; ",
"9 % # % % % % % % % % % = % k x x & + % % & % % % % % % # & 8 M n 9 % & % % & 4.D._ ) [ (.+ 9 x B < ",
"v v v l k l l l k l l k v k n B C l x l v v v v v x M v v v v V B B v x B v v h.+Xa.+.#.(.x n V ,.r ",
"V V V V n V V b m V C V C b v V C m m m V $.V V m N V V V N n m V m V V V V :.Z.#X X-.z.-XV v b :.; ",
"$.$.*.*.*.&.&.<.*.*.*.*.*.z l l m $.*.*.*.&.&.<.,.*.&.<.&.$.u b m &.<.*.$.<.<.z.2.@X7.T.'.V l l m ; ",
"z $.<.<.<.*.*.<.2.2.<.*.*.l r l m *.<.<.<.<.2.<.<.,.<.&.2.@.r v b $.2.2.*.<.<.,.<.b.Z.v.,.&.l 7 b i ",
"m C 2.2.1.<.<.*.&.2.<.<.<.v 7 l m ,.<.<.<.*.<.<.<.&.<.<.<.m 6 v v V <.2.<.<.*.4.<.<.4.4.<.:.l 0 N ; ",
"C &.6.,.<.1.<.6.&.*.,.,.,.v 0 l N $.$.<.<.<.4.4.<.<.<.4.,.b 6 f b V ,.,.,.,.,.8.4.4.4.:.4.:.q 0 V e ",
"n ,.4.:.,.4.1.6.,.,.,.,.1.M q v n F ,.,.1.:.,.1.3.,.,.1.,.n q v N V <.<.6.,.:.<.4.4.4.<.4.$.y u V ; ",
"n :.1.,.1.1.1.6.,.1.1.,.,.v 0 f m ,.,.4.4.,.,.4.<.,.4.4.,.n 6 b b V <.,.<.,.,.,.:.4.<.*.4.m q u @.; ",
"N :.4.,.4.,.,.2.,.1.<.1.,.v 0 v n S ,.6.1.,.:.6.4.$.<.7.4.N 0 v b V ,.,.,.,.<.<.<.<.<.*.2.@.0 7 b ; ",
"V V ,.1.,.<.1.1.4.,.,.6.,.v r l b V 1.6.<.:.*.8.8.:.$.z.6.v 6 g b $.,.4.4.,.<.<.*.2.<.1.2.m u 0 m ; ",
"b V 1.,.,.,.,.,.,.&.,.1.,.b x v b V 1.6.6.4.2.4.4.6.6.z.6.N 5 g N $.,.<.<.4.,.,.V ,.4.5.,.V 9 v $.; ",
"V V ,.1.,.,.,.F F ,.1.1.F s 0 l n n V F ,.,.,.V V ,.<.,.$.v 5 b N V V ,.,.,.,.,.S 3.,.,.,.B s 9 M , ",
"s s x x 9 x s k s x x x 9 % 5 s s 0 8 6 9 x f 9 9 9 s 9 8 8 & v v 9 9 s s s s x x x s a s a 8 9 M ; ",
"# o . . . X X X X . . . o . % 8 & O . . X X O O o o o o o O @ a 8 O . . o . . X @ X o . . O @ 8 f ; ",
"$ . . . O X X . . . . . . . O $ O . . . X   X X X X X X X   X & @ .   X O   . O o X . X X .   @ 5 ; ",
"3.v z g t t t r t t r ; ; ; ; ; ; , ; ; , ; ; : < ; ; ; ; , , ; : ; ; ; ; , ; ; ; , : ; ; : ; , , ; "
};
